NotoSansGeorgian-Condensed.ufo
<glyph name="hyphen" format="2">
  <advance width="274"/>
  <unicode hex="002D"/>
  <outline>
    <contour>
      <point x="27" y="229" type="line"/>
      <point x="247" y="229" type="line"/>
      <point x="247" y="310" type="line"/>
      <point x="27" y="310" type="line"/>
    </contour>
  </outline>
</glyph>
<glyph name="acutecomb" format="2">
  <unicode hex="0301"/>
  <anchor x="-26" y="537" name="_top"/>
  <anchor x="-26" y="766" name="top"/>
  <outline>
    <contour>
      <point x="93" y="766" type="line"/>
      <point x="-4" y="766" type="line"/>
      <point x="-25" y="721"/>
      <point x="-55" y="671"/>
      <point x="-93" y="617" type="curve"/>
      <point x="-93" y="606" type="line"/>
      <point x="-41" y="606" type="line"/>
      <point x="0" y="642"/>
      <point x="68" y="715"/>
      <point x="93" y="757" type="curve"/>
    </contour>
  </outline>
</glyph>
<glyph name="circumflexcomb" format="2">
  <unicode hex="0302"/>
  <anchor x="0" y="537" name="_top"/>
  <anchor x="0" y="766" name="top"/>
  <outline>
    <contour>
      <point x="38" y="766" type="curve"/>
      <point x="-39" y="766" type="line"/>
      <point x="-58" y="723"/>
      <point x="-95" y="665"/>
      <point x="-131" y="616" type="curve"/>
      <point x="-131" y="606" type="line"/>
      <point x="-86" y="606" type="line"/>
      <point x="-62" y="629"/>
      <point x="-31" y="665"/>
      <point x="0" y="700" type="curve"/>
      <point x="30" y="665"/>
      <point x="58" y="632"/>
      <point x="86" y="606" type="curve"/>
      <point x="131" y="606" type="line"/>
      <point x="131" y="616" type="line"/>
      <point x="98" y="660"/>
      <point x="59" y="721"/>
    </contour>
  </outline>
</glyph>
<glyph name="macroncomb" format="2">
  <unicode hex="0304"/>
  <anchor x="1" y="537" name="_top"/>
  <anchor x="1" y="686" name="top"/>
  <outline>
    <contour>
      <point x="122" y="686" type="line"/>
      <point x="-121" y="686" type="line"/>
      <point x="-121" y="624" type="line"/>
      <point x="122" y="624" type="line"/>
    </contour>
  </outline>
</glyph>
<glyph name="dieresiscomb" format="2">
  <unicode hex="0308"/>
  <anchor x="1" y="537" name="_top"/>
  <anchor x="1" y="708" name="top"/>
  <outline>
    <contour>
      <point x="-124" y="658" type="curve" smooth="yes"/>
      <point x="-124" y="623"/>
      <point x="-105" y="606"/>
      <point x="-81" y="606" type="curve" smooth="yes"/>
      <point x="-57" y="606"/>
      <point x="-39" y="623"/>
      <point x="-39" y="658" type="curve" smooth="yes"/>
      <point x="-39" y="691"/>
      <point x="-57" y="708"/>
      <point x="-81" y="708" type="curve" smooth="yes"/>
      <point x="-105" y="708"/>
      <point x="-124" y="692"/>
    </contour>
    <contour>
      <point x="39" y="658" type="curve" smooth="yes"/>
      <point x="39" y="623"/>
      <point x="57" y="606"/>
      <point x="82" y="606" type="curve" smooth="yes"/>
      <point x="106" y="606"/>
      <point x="125" y="623"/>
      <point x="125" y="658" type="curve" smooth="yes"/>
      <point x="125" y="691"/>
      <point x="106" y="708"/>
      <point x="82" y="708" type="curve" smooth="yes"/>
      <point x="58" y="708"/>
      <point x="39" y="692"/>
    </contour>
  </outline>
</glyph>
<glyph name="period-arm" format="2">
  <advance width="219"/>
  <unicode hex="0589"/>
  <note>
uni0589
</note>
  <outline>
    <contour>
      <point x="59" y="51" type="curve" smooth="yes"/>
      <point x="59" y="16"/>
      <point x="74" y="-8"/>
      <point x="111" y="-8" type="curve" smooth="yes"/>
      <point x="146" y="-8"/>
      <point x="161" y="15"/>
      <point x="161" y="51" type="curve" smooth="yes"/>
      <point x="161" y="86"/>
      <point x="147" y="109"/>
      <point x="111" y="109" type="curve" smooth="yes"/>
      <point x="74" y="109"/>
      <point x="59" y="86"/>
    </contour>
    <contour>
      <point x="59" y="485" type="curve" smooth="yes"/>
      <point x="59" y="449"/>
      <point x="76" y="427"/>
      <point x="111" y="427" type="curve" smooth="yes"/>
      <point x="143" y="427"/>
      <point x="161" y="448"/>
      <point x="161" y="485" type="curve" smooth="yes"/>
      <point x="161" y="523"/>
      <point x="145" y="543"/>
      <point x="111" y="543" type="curve" smooth="yes"/>
      <point x="75" y="543"/>
      <point x="59" y="520"/>
    </contour>
  </outline>
</glyph>
<glyph name="An-oldgeorgian" format="2">
  <advance width="441"/>
  <unicode hex="10A0"/>
  <note>
uni10A0
</note>
  <outline>
    <contour>
      <point x="284" y="-10" type="curve" smooth="yes"/>
      <point x="330" y="-10"/>
      <point x="369" y="-1"/>
      <point x="401" y="17" type="curve"/>
      <point x="401" y="93" type="line"/>
      <point x="369" y="77"/>
      <point x="334" y="66"/>
      <point x="294" y="66" type="curve" smooth="yes"/>
      <point x="198" y="66"/>
      <point x="133" y="161"/>
      <point x="133" y="340" type="curve" smooth="yes"/>
      <point x="133" y="514"/>
      <point x="207" y="638"/>
      <point x="321" y="638" type="curve" smooth="yes"/>
      <point x="401" y="638" type="line"/>
      <point x="401" y="714" type="line"/>
      <point x="67" y="714" type="line"/>
      <point x="67" y="641" type="line"/>
      <point x="173" y="641" type="line"/>
      <point x="173" y="638" type="line"/>
      <point x="98" y="594"/>
      <point x="48" y="483"/>
      <point x="48" y="337" type="curve" smooth="yes"/>
      <point x="48" y="123"/>
      <point x="132" y="-10"/>
    </contour>
  </outline>
</glyph>
<glyph name="Ban-oldgeorgian" format="2">
  <advance width="583"/>
  <unicode hex="10A1"/>
  <note>
uni10A1
</note>
  <outline>
    <contour>
      <point x="349" y="0" type="line"/>
      <point x="573" y="0" type="line"/>
      <point x="573" y="73" type="line"/>
      <point x="432" y="73" type="line"/>
      <point x="432" y="714" type="line"/>
      <point x="349" y="714" type="line"/>
      <point x="349" y="501" type="line" smooth="yes"/>
      <point x="349" y="341"/>
      <point x="301" y="283"/>
      <point x="232" y="283" type="curve" smooth="yes"/>
      <point x="162" y="283"/>
      <point x="128" y="350"/>
      <point x="128" y="461" type="curve" smooth="yes"/>
      <point x="128" y="566"/>
      <point x="147" y="644"/>
      <point x="177" y="714" type="curve"/>
      <point x="91" y="714" type="line"/>
      <point x="60" y="638"/>
      <point x="43" y="561"/>
      <point x="43" y="460" type="curve" smooth="yes"/>
      <point x="43" y="306"/>
      <point x="106" y="214"/>
      <point x="209" y="214" type="curve" smooth="yes"/>
      <point x="278" y="214"/>
      <point x="324" y="250"/>
      <point x="350" y="322" type="curve"/>
      <point x="354" y="322" type="line"/>
      <point x="351" y="288"/>
      <point x="349" y="241"/>
      <point x="349" y="198" type="curve" smooth="yes"/>
    </contour>
  </outline>
</glyph>
<glyph name="Gan-oldgeorgian" format="2">
  <advance width="558"/>
  <unicode hex="10A2"/>
  <note>
uni10A2
</note>
  <outline>
    <contour>
      <point x="324" y="0" type="line"/>
      <point x="548" y="0" type="line"/>
      <point x="548" y="73" type="line"/>
      <point x="406" y="73" type="line"/>
      <point x="406" y="714" type="line"/>
      <point x="60" y="714" type="line"/>
      <point x="60" y="396" type="line"/>
      <point x="142" y="396" type="line"/>
      <point x="142" y="641" type="line"/>
      <point x="324" y="641" type="line"/>
    </contour>
  </outline>
</glyph>
<glyph name="Don-oldgeorgian" format="2">
  <advance width="554"/>
  <unicode hex="10A3"/>
  <note>
uni10A3
</note>
  <outline>
    <contour>
      <point x="276" y="-10" type="curve" smooth="yes"/>
      <point x="426" y="-10"/>
      <point x="506" y="107"/>
      <point x="506" y="276" type="curve" smooth="yes"/>
      <point x="506" y="435"/>
      <point x="431" y="541"/>
      <point x="317" y="554" type="curve"/>
      <point x="317" y="638" type="line"/>
      <point x="485" y="638" type="line"/>
      <point x="485" y="714" type="line"/>
      <point x="69" y="714" type="line"/>
      <point x="69" y="638" type="line"/>
      <point x="238" y="638" type="line"/>
      <point x="238" y="554" type="line"/>
      <point x="125" y="541"/>
      <point x="48" y="435"/>
      <point x="48" y="276" type="curve" smooth="yes"/>
      <point x="48" y="107"/>
      <point x="125" y="-10"/>
    </contour>
    <contour>
      <point x="277" y="63" type="curve" smooth="yes"/>
      <point x="185" y="63"/>
      <point x="134" y="139"/>
      <point x="134" y="275" type="curve" smooth="yes"/>
      <point x="134" y="410"/>
      <point x="193" y="486"/>
      <point x="279" y="486" type="curve" smooth="yes"/>
      <point x="365" y="486"/>
      <point x="421" y="410"/>
      <point x="421" y="276" type="curve" smooth="yes"/>
      <point x="421" y="139"/>
      <point x="369" y="63"/>
    </contour>
  </outline>
</glyph>
<glyph name="En-oldgeorgian" format="2">
  <advance width="478"/>
  <unicode hex="10A4"/>
  <note>
uni10A4
</note>
  <outline>
    <contour>
      <point x="324" y="0" type="line"/>
      <point x="406" y="0" type="line"/>
      <point x="406" y="714" type="line"/>
      <point x="60" y="714" type="line"/>
      <point x="60" y="396" type="line"/>
      <point x="142" y="396" type="line"/>
      <point x="142" y="641" type="line"/>
      <point x="324" y="641" type="line"/>
    </contour>
  </outline>
</glyph>
<glyph name="Vin-oldgeorgian" format="2">
  <advance width="608"/>
  <unicode hex="10A5"/>
  <note>
uni10A5
</note>
  <outline>
    <contour>
      <point x="324" y="0" type="line"/>
      <point x="406" y="0" type="line"/>
      <point x="406" y="342" type="line"/>
      <point x="500" y="342" type="line"/>
      <point x="500" y="198" type="line"/>
      <point x="574" y="198" type="line"/>
      <point x="574" y="411" type="line"/>
      <point x="406" y="411" type="line"/>
      <point x="406" y="714" type="line"/>
      <point x="60" y="714" type="line"/>
      <point x="60" y="396" type="line"/>
      <point x="142" y="396" type="line"/>
      <point x="142" y="641" type="line"/>
      <point x="324" y="641" type="line"/>
    </contour>
  </outline>
</glyph>
<glyph name="Zen-oldgeorgian" format="2">
  <advance width="580"/>
  <unicode hex="10A6"/>
  <note>
uni10A6
</note>
  <outline>
    <contour>
      <point x="342" y="-10" type="curve" smooth="yes"/>
      <point x="476" y="-10"/>
      <point x="537" y="99"/>
      <point x="537" y="268" type="curve" smooth="yes"/>
      <point x="537" y="435"/>
      <point x="480" y="544"/>
      <point x="369" y="544" type="curve" smooth="yes"/>
      <point x="305" y="544"/>
      <point x="261" y="503"/>
      <point x="235" y="436" type="curve"/>
      <point x="231" y="436" type="line"/>
      <point x="234" y="473"/>
      <point x="235" y="514"/>
      <point x="235" y="552" type="curve" smooth="yes"/>
      <point x="235" y="714" type="line"/>
      <point x="4" y="714" type="line"/>
      <point x="4" y="641" type="line"/>
      <point x="153" y="641" type="line"/>
      <point x="153" y="258" type="line" smooth="yes"/>
      <point x="153" y="96"/>
      <point x="211" y="-10"/>
    </contour>
    <contour>
      <point x="342" y="63" type="curve" smooth="yes"/>
      <point x="267" y="63"/>
      <point x="235" y="134"/>
      <point x="235" y="265" type="curve" smooth="yes"/>
      <point x="235" y="388"/>
      <point x="272" y="471"/>
      <point x="345" y="471" type="curve" smooth="yes"/>
      <point x="412" y="471"/>
      <point x="451" y="402"/>
      <point x="451" y="267" type="curve" smooth="yes"/>
      <point x="451" y="133"/>
      <point x="414" y="63"/>
    </contour>
  </outline>
</glyph>
<glyph name="Tan-oldgeorgian" format="2">
  <advance width="654"/>
  <unicode hex="10A7"/>
  <note>
uni10A7
</note>
  <outline>
    <contour>
      <point x="452" y="411" type="line"/>
      <point x="452" y="714" type="line"/>
      <point x="319" y="714" type="line" smooth="yes"/>
      <point x="150" y="714"/>
      <point x="48" y="589"/>
      <point x="48" y="352" type="curve" smooth="yes"/>
      <point x="48" y="123"/>
      <point x="149" y="0"/>
      <point x="314" y="0" type="curve" smooth="yes"/>
      <point x="452" y="0" type="line"/>
      <point x="452" y="342" type="line"/>
      <point x="546" y="342" type="line"/>
      <point x="546" y="198" type="line"/>
      <point x="620" y="198" type="line"/>
      <point x="620" y="411" type="line"/>
    </contour>
    <contour>
      <point x="370" y="73" type="line"/>
      <point x="315" y="73" type="line" smooth="yes"/>
      <point x="196" y="73"/>
      <point x="133" y="170"/>
      <point x="133" y="355" type="curve" smooth="yes"/>
      <point x="133" y="544"/>
      <point x="196" y="641"/>
      <point x="319" y="641" type="curve" smooth="yes"/>
      <point x="370" y="641" type="line"/>
    </contour>
  </outline>
</glyph>
<glyph name="In-oldgeorgian" format="2">
  <advance width="364"/>
  <unicode hex="10A8"/>
  <note>
uni10A8
</note>
  <outline>
    <contour>
      <point x="210" y="0" type="line"/>
      <point x="292" y="0" type="line"/>
      <point x="292" y="714" type="line"/>
      <point x="4" y="714" type="line"/>
      <point x="4" y="641" type="line"/>
      <point x="210" y="641" type="line"/>
    </contour>
  </outline>
</glyph>
<glyph name="Kan-oldgeorgian" format="2">
  <advance width="518"/>
  <unicode hex="10A9"/>
  <note>
uni10A9
</note>
  <outline>
    <contour>
      <point x="371" y="0" type="line"/>
      <point x="453" y="0" type="line"/>
      <point x="453" y="365" type="line" smooth="yes"/>
      <point x="453" y="520"/>
      <point x="400" y="622"/>
      <point x="286" y="622" type="curve" smooth="yes"/>
      <point x="226" y="622"/>
      <point x="175" y="586"/>
      <point x="148" y="515" type="curve"/>
      <point x="144" y="515" type="line"/>
      <point x="147" y="544"/>
      <point x="147" y="581"/>
      <point x="147" y="622" type="curve" smooth="yes"/>
      <point x="147" y="714" type="line"/>
      <point x="65" y="714" type="line"/>
      <point x="65" y="357" type="line" smooth="yes"/>
      <point x="65" y="197"/>
      <point x="120" y="100"/>
      <point x="235" y="100" type="curve" smooth="yes"/>
      <point x="295" y="100"/>
      <point x="343" y="134"/>
      <point x="369" y="207" type="curve"/>
      <point x="373" y="207" type="line"/>
      <point x="372" y="168"/>
      <point x="371" y="130"/>
      <point x="371" y="91" type="curve" smooth="yes"/>
    </contour>
    <contour>
      <point x="259" y="170" type="curve" smooth="yes"/>
      <point x="184" y="170"/>
      <point x="148" y="233"/>
      <point x="148" y="363" type="curve" smooth="yes"/>
      <point x="148" y="477"/>
      <point x="189" y="552"/>
      <point x="261" y="552" type="curve" smooth="yes"/>
      <point x="333" y="552"/>
      <point x="370" y="484"/>
      <point x="370" y="360" type="curve" smooth="yes"/>
      <point x="370" y="239"/>
      <point x="325" y="170"/>
    </contour>
  </outline>
</glyph>
<glyph name="Las-oldgeorgian" format="2">
  <advance width="721"/>
  <unicode hex="10AA"/>
  <note>
uni10AA
</note>
  <outline>
    <contour>
      <point x="482" y="-10" type="curve" smooth="yes"/>
      <point x="616" y="-10"/>
      <point x="678" y="99"/>
      <point x="678" y="268" type="curve" smooth="yes"/>
      <point x="678" y="435"/>
      <point x="621" y="544"/>
      <point x="509" y="544" type="curve" smooth="yes"/>
      <point x="446" y="544"/>
      <point x="402" y="503"/>
      <point x="376" y="436" type="curve"/>
      <point x="371" y="436" type="line"/>
      <point x="374" y="473"/>
      <point x="376" y="514"/>
      <point x="376" y="552" type="curve" smooth="yes"/>
      <point x="376" y="714" type="line"/>
      <point x="60" y="714" type="line"/>
      <point x="60" y="396" type="line"/>
      <point x="142" y="396" type="line"/>
      <point x="142" y="641" type="line"/>
      <point x="294" y="641" type="line"/>
      <point x="294" y="258" type="line" smooth="yes"/>
      <point x="294" y="96"/>
      <point x="351" y="-10"/>
    </contour>
    <contour>
      <point x="483" y="63" type="curve" smooth="yes"/>
      <point x="408" y="63"/>
      <point x="376" y="134"/>
      <point x="376" y="265" type="curve" smooth="yes"/>
      <point x="376" y="388"/>
      <point x="413" y="471"/>
      <point x="486" y="471" type="curve" smooth="yes"/>
      <point x="553" y="471"/>
      <point x="592" y="402"/>
      <point x="592" y="267" type="curve" smooth="yes"/>
      <point x="592" y="133"/>
      <point x="555" y="63"/>
    </contour>
  </outline>
</glyph>
<glyph name="Man-oldgeorgian" format="2">
  <advance width="563"/>
  <unicode hex="10AB"/>
  <note>
uni10AB
</note>
  <outline>
    <contour>
      <point x="239" y="-10" type="curve" smooth="yes"/>
      <point x="365" y="-10"/>
      <point x="425" y="85"/>
      <point x="425" y="242" type="curve" smooth="yes"/>
      <point x="425" y="393" type="line"/>
      <point x="529" y="393" type="line"/>
      <point x="529" y="462" type="line"/>
      <point x="425" y="462" type="line"/>
      <point x="425" y="714" type="line"/>
      <point x="89" y="714" type="line"/>
      <point x="89" y="641" type="line"/>
      <point x="343" y="641" type="line"/>
      <point x="343" y="462" type="line"/>
      <point x="256" y="462" type="line" smooth="yes"/>
      <point x="124" y="462"/>
      <point x="48" y="396"/>
      <point x="48" y="230" type="curve" smooth="yes"/>
      <point x="48" y="85"/>
      <point x="116" y="-10"/>
    </contour>
    <contour>
      <point x="238" y="63" type="curve" smooth="yes"/>
      <point x="168" y="63"/>
      <point x="133" y="127"/>
      <point x="133" y="231" type="curve" smooth="yes"/>
      <point x="133" y="353"/>
      <point x="174" y="392"/>
      <point x="256" y="392" type="curve" smooth="yes"/>
      <point x="342" y="392" type="line"/>
      <point x="342" y="242" type="line" smooth="yes"/>
      <point x="342" y="127"/>
      <point x="310" y="63"/>
    </contour>
  </outline>
</glyph>
<glyph name="Nar-oldgeorgian" format="2">
  <advance width="520"/>
  <unicode hex="10AC"/>
  <note>
uni10AC
</note>
  <outline>
    <contour>
      <point x="66" y="0" type="line"/>
      <point x="148" y="0" type="line"/>
      <point x="148" y="212" type="line" smooth="yes"/>
      <point x="148" y="355"/>
      <point x="190" y="413"/>
      <point x="263" y="413" type="curve" smooth="yes"/>
      <point x="338" y="413"/>
      <point x="371" y="360"/>
      <point x="371" y="236" type="curve" smooth="yes"/>
      <point x="371" y="0" type="line"/>
      <point x="453" y="0" type="line"/>
      <point x="453" y="242" type="line" smooth="yes"/>
      <point x="453" y="408"/>
      <point x="394" y="481"/>
      <point x="290" y="481" type="curve" smooth="yes"/>
      <point x="213" y="481"/>
      <point x="172" y="439"/>
      <point x="147" y="380" type="curve"/>
      <point x="145" y="380" type="line"/>
      <point x="147" y="411"/>
      <point x="148" y="448"/>
      <point x="148" y="472" type="curve" smooth="yes"/>
      <point x="148" y="641" type="line"/>
      <point x="433" y="641" type="line"/>
      <point x="433" y="714" type="line"/>
      <point x="66" y="714" type="line"/>
    </contour>
  </outline>
</glyph>
<glyph name="On-oldgeorgian" format="2">
  <advance width="615"/>
  <unicode hex="10AD"/>
  <note>
uni10AD
</note>
  <outline>
    <contour>
      <point x="274" y="-10" type="curve" smooth="yes"/>
      <point x="323" y="-10"/>
      <point x="362" y="5"/>
      <point x="394" y="31" type="curve"/>
      <point x="416" y="9"/>
      <point x="445" y="-10"/>
      <point x="486" y="-10" type="curve" smooth="yes"/>
      <point x="567" y="-10"/>
      <point x="605" y="40"/>
      <point x="605" y="127" type="curve"/>
      <point x="523" y="127" type="line"/>
      <point x="523" y="87"/>
      <point x="506" y="57"/>
      <point x="474" y="57" type="curve" smooth="yes"/>
      <point x="459" y="57"/>
      <point x="445" y="63"/>
      <point x="432" y="73" type="curve"/>
      <point x="479" y="140"/>
      <point x="499" y="242"/>
      <point x="499" y="358" type="curve" smooth="yes"/>
      <point x="499" y="563"/>
      <point x="436" y="724"/>
      <point x="274" y="724" type="curve" smooth="yes"/>
      <point x="124" y="724"/>
      <point x="48" y="603"/>
      <point x="48" y="359" type="curve" smooth="yes"/>
      <point x="48" y="156"/>
      <point x="109" y="-10"/>
    </contour>
    <contour>
      <point x="273" y="67" type="curve" smooth="yes"/>
      <point x="183" y="67"/>
      <point x="135" y="166"/>
      <point x="135" y="358" type="curve" smooth="yes"/>
      <point x="135" y="549"/>
      <point x="181" y="648"/>
      <point x="274" y="648" type="curve" smooth="yes"/>
      <point x="364" y="648"/>
      <point x="410" y="551"/>
      <point x="410" y="358" type="curve" smooth="yes"/>
      <point x="410" y="163"/>
      <point x="363" y="67"/>
    </contour>
  </outline>
</glyph>
<glyph name="Par-oldgeorgian" format="2">
  <advance width="615"/>
  <unicode hex="10AE"/>
  <note>
uni10AE
</note>
  <outline>
    <contour>
      <point x="350" y="-10" type="curve" smooth="yes"/>
      <point x="469" y="-10"/>
      <point x="548" y="56"/>
      <point x="548" y="227" type="curve" smooth="yes"/>
      <point x="548" y="714" type="line"/>
      <point x="466" y="714" type="line"/>
      <point x="466" y="231" type="line" smooth="yes"/>
      <point x="466" y="104"/>
      <point x="421" y="63"/>
      <point x="351" y="63" type="curve" smooth="yes"/>
      <point x="278" y="63"/>
      <point x="236" y="109"/>
      <point x="236" y="231" type="curve" smooth="yes"/>
      <point x="236" y="714" type="line"/>
      <point x="4" y="714" type="line"/>
      <point x="4" y="641" type="line"/>
      <point x="153" y="641" type="line"/>
      <point x="153" y="225" type="line" smooth="yes"/>
      <point x="153" y="64"/>
      <point x="223" y="-10"/>
    </contour>
  </outline>
</glyph>
<glyph name="Zhar-oldgeorgian" format="2">
  <advance width="540"/>
  <unicode hex="10AF"/>
  <note>
uni10AF
</note>
  <outline>
    <contour>
      <point x="385" y="0" type="line"/>
      <point x="468" y="0" type="line"/>
      <point x="468" y="714" type="line"/>
      <point x="385" y="714" type="line"/>
      <point x="385" y="501" type="line" smooth="yes"/>
      <point x="385" y="341"/>
      <point x="337" y="283"/>
      <point x="268" y="283" type="curve" smooth="yes"/>
      <point x="198" y="283"/>
      <point x="164" y="350"/>
      <point x="164" y="459" type="curve" smooth="yes"/>
      <point x="164" y="528"/>
      <point x="178" y="589"/>
      <point x="234" y="641" type="curve"/>
      <point x="234" y="714" type="line"/>
      <point x="9" y="714" type="line"/>
      <point x="9" y="641" type="line"/>
      <point x="151" y="641" type="line"/>
      <point x="151" y="638" type="line"/>
      <point x="102" y="589"/>
      <point x="79" y="520"/>
      <point x="79" y="452" type="curve" smooth="yes"/>
      <point x="79" y="306"/>
      <point x="142" y="214"/>
      <point x="245" y="214" type="curve" smooth="yes"/>
      <point x="314" y="214"/>
      <point x="360" y="250"/>
      <point x="386" y="322" type="curve"/>
      <point x="390" y="322" type="line"/>
      <point x="387" y="288"/>
      <point x="385" y="241"/>
      <point x="385" y="198" type="curve" smooth="yes"/>
    </contour>
  </outline>
</glyph>
<glyph name="Rae-oldgeorgian" format="2">
  <advance width="702"/>
  <unicode hex="10B0"/>
  <note>
uni10B0
</note>
  <outline>
    <contour>
      <point x="235" y="-10" type="curve" smooth="yes"/>
      <point x="357" y="-10"/>
      <point x="413" y="83"/>
      <point x="413" y="234" type="curve" smooth="yes"/>
      <point x="413" y="358" type="line" smooth="yes"/>
      <point x="413" y="445"/>
      <point x="455" y="479"/>
      <point x="499" y="479" type="curve" smooth="yes"/>
      <point x="551" y="479"/>
      <point x="585" y="438"/>
      <point x="585" y="369" type="curve" smooth="yes"/>
      <point x="585" y="336"/>
      <point x="575" y="300"/>
      <point x="554" y="266" type="curve"/>
      <point x="627" y="245" type="line"/>
      <point x="653" y="285"/>
      <point x="668" y="332"/>
      <point x="668" y="389" type="curve" smooth="yes"/>
      <point x="668" y="466"/>
      <point x="616" y="547"/>
      <point x="525" y="547" type="curve" smooth="yes"/>
      <point x="478" y="547"/>
      <point x="437" y="525"/>
      <point x="412" y="473" type="curve"/>
      <point x="410" y="473" type="line"/>
      <point x="412" y="504"/>
      <point x="413" y="541"/>
      <point x="413" y="565" type="curve" smooth="yes"/>
      <point x="413" y="714" type="line"/>
      <point x="331" y="714" type="line"/>
      <point x="331" y="239" type="line" smooth="yes"/>
      <point x="331" y="126"/>
      <point x="300" y="63"/>
      <point x="233" y="63" type="curve" smooth="yes"/>
      <point x="168" y="63"/>
      <point x="132" y="126"/>
      <point x="132" y="210" type="curve" smooth="yes"/>
      <point x="132" y="262"/>
      <point x="142" y="313"/>
      <point x="163" y="359" type="curve"/>
      <point x="89" y="385" type="line"/>
      <point x="60" y="338"/>
      <point x="43" y="276"/>
      <point x="43" y="213" type="curve" smooth="yes"/>
      <point x="43" y="84"/>
      <point x="112" y="-10"/>
    </contour>
  </outline>
</glyph>
<glyph name="San-oldgeorgian" format="2">
  <advance width="474"/>
  <unicode hex="10B1"/>
  <note>
uni10B1
</note>
  <outline>
    <contour>
      <point x="245" y="-10" type="curve" smooth="yes"/>
      <point x="368" y="-10"/>
      <point x="431" y="84"/>
      <point x="431" y="213" type="curve" smooth="yes"/>
      <point x="431" y="276"/>
      <point x="414" y="338"/>
      <point x="385" y="385" type="curve"/>
      <point x="311" y="359" type="line"/>
      <point x="332" y="313"/>
      <point x="342" y="262"/>
      <point x="342" y="210" type="curve" smooth="yes"/>
      <point x="342" y="126"/>
      <point x="312" y="63"/>
      <point x="247" y="63" type="curve" smooth="yes"/>
      <point x="180" y="63"/>
      <point x="143" y="126"/>
      <point x="143" y="239" type="curve" smooth="yes"/>
      <point x="143" y="714" type="line"/>
      <point x="61" y="714" type="line"/>
      <point x="61" y="234" type="line"/>
      <point x="61" y="83"/>
      <point x="123" y="-10"/>
    </contour>
  </outline>
</glyph>
<glyph name="Tar-oldgeorgian" format="2">
  <advance width="456"/>
  <unicode hex="10B2"/>
  <note>
uni10B2
</note>
  <outline>
    <contour>
      <point x="66" y="0" type="line"/>
      <point x="390" y="0" type="line"/>
      <point x="390" y="73" type="line"/>
      <point x="148" y="73" type="line"/>
      <point x="148" y="279" type="line"/>
      <point x="203" y="279" type="line" smooth="yes"/>
      <point x="344" y="279"/>
      <point x="408" y="357"/>
      <point x="408" y="507" type="curve" smooth="yes"/>
      <point x="408" y="651"/>
      <point x="341" y="714"/>
      <point x="206" y="714" type="curve" smooth="yes"/>
      <point x="66" y="714" type="line"/>
    </contour>
    <contour>
      <point x="148" y="351" type="line"/>
      <point x="148" y="643" type="line"/>
      <point x="199" y="643" type="line" smooth="yes"/>
      <point x="284" y="643"/>
      <point x="325" y="605"/>
      <point x="325" y="507" type="curve" smooth="yes"/>
      <point x="325" y="395"/>
      <point x="283" y="351"/>
      <point x="199" y="351" type="curve" smooth="yes"/>
    </contour>
  </outline>
</glyph>
<glyph name="Un-oldgeorgian" format="2">
  <advance width="558"/>
  <unicode hex="10B3"/>
  <note>
uni10B3
</note>
  <outline>
    <contour>
      <point x="423" y="-164" type="curve" smooth="yes"/>
      <point x="496" y="-164"/>
      <point x="538" y="-113"/>
      <point x="538" y="-34" type="curve" smooth="yes"/>
      <point x="538" y="37"/>
      <point x="496" y="84"/>
      <point x="464" y="112" type="curve"/>
      <point x="494" y="176"/>
      <point x="506" y="263"/>
      <point x="506" y="358" type="curve" smooth="yes"/>
      <point x="506" y="581"/>
      <point x="437" y="724"/>
      <point x="278" y="724" type="curve" smooth="yes"/>
      <point x="129" y="724"/>
      <point x="48" y="600"/>
      <point x="48" y="358" type="curve" smooth="yes"/>
      <point x="48" y="152"/>
      <point x="112" y="-10"/>
      <point x="278" y="-10" type="curve" smooth="yes"/>
      <point x="342" y="-10"/>
      <point x="389" y="16"/>
      <point x="424" y="59" type="curve"/>
      <point x="445" y="38"/>
      <point x="464" y="10"/>
      <point x="464" y="-29" type="curve" smooth="yes"/>
      <point x="464" y="-69"/>
      <point x="444" y="-100"/>
      <point x="409" y="-100" type="curve" smooth="yes"/>
      <point x="398" y="-100"/>
      <point x="388" y="-99"/>
      <point x="379" y="-96" type="curve"/>
      <point x="379" y="-157" type="line"/>
      <point x="392" y="-161"/>
      <point x="409" y="-164"/>
    </contour>
    <contour>
      <point x="278" y="63" type="curve" smooth="yes"/>
      <point x="184" y="63"/>
      <point x="133" y="169"/>
      <point x="133" y="358" type="curve" smooth="yes"/>
      <point x="133" y="547"/>
      <point x="180" y="652"/>
      <point x="278" y="652" type="curve" smooth="yes"/>
      <point x="374" y="652"/>
      <point x="421" y="550"/>
      <point x="421" y="358" type="curve" smooth="yes"/>
      <point x="421" y="163"/>
      <point x="374" y="63"/>
    </contour>
  </outline>
</glyph>
<glyph name="Phar-oldgeorgian" format="2">
  <advance width="619"/>
  <unicode hex="10B4"/>
  <note>
uni10B4
</note>
  <outline>
    <contour>
      <point x="271" y="0" type="line"/>
      <point x="349" y="0" type="line"/>
      <point x="349" y="176" type="line"/>
      <point x="480" y="183"/>
      <point x="571" y="272"/>
      <point x="571" y="456" type="curve" smooth="yes"/>
      <point x="571" y="645"/>
      <point x="463" y="724"/>
      <point x="311" y="724" type="curve" smooth="yes"/>
      <point x="158" y="724"/>
      <point x="48" y="634"/>
      <point x="48" y="452" type="curve" smooth="yes"/>
      <point x="48" y="269"/>
      <point x="140" y="182"/>
      <point x="271" y="176" type="curve"/>
    </contour>
    <contour>
      <point x="271" y="246" type="line"/>
      <point x="188" y="252"/>
      <point x="131" y="310"/>
      <point x="131" y="452" type="curve" smooth="yes"/>
      <point x="131" y="591"/>
      <point x="192" y="648"/>
      <point x="271" y="654" type="curve"/>
    </contour>
    <contour>
      <point x="349" y="246" type="curve"/>
      <point x="349" y="654" type="line"/>
      <point x="427" y="648"/>
      <point x="488" y="594"/>
      <point x="488" y="456" type="curve" smooth="yes"/>
      <point x="488" y="312"/>
      <point x="432" y="253"/>
    </contour>
  </outline>
</glyph>
<glyph name="Khar-oldgeorgian" format="2">
  <advance width="468"/>
  <unicode hex="10B5"/>
  <note>
uni10B5
</note>
  <outline>
    <contour>
      <point x="188" y="0" type="line"/>
      <point x="270" y="0" type="line"/>
      <point x="270" y="392" type="line"/>
      <point x="420" y="392" type="line"/>
      <point x="420" y="462" type="line"/>
      <point x="270" y="462" type="line"/>
      <point x="270" y="714" type="line"/>
      <point x="188" y="714" type="line"/>
      <point x="188" y="462" type="line"/>
      <point x="38" y="462" type="line"/>
      <point x="38" y="392" type="line"/>
      <point x="188" y="392" type="line"/>
    </contour>
  </outline>
</glyph>
<glyph name="Ghan-oldgeorgian" format="2">
  <advance width="523"/>
  <unicode hex="10B6"/>
  <note>
uni10B6
</note>
  <outline>
    <contour>
      <point x="61" y="0" type="line"/>
      <point x="143" y="0" type="line"/>
      <point x="143" y="483" type="line" smooth="yes"/>
      <point x="143" y="610"/>
      <point x="188" y="651"/>
      <point x="259" y="651" type="curve" smooth="yes"/>
      <point x="332" y="651"/>
      <point x="373" y="605"/>
      <point x="373" y="483" type="curve" smooth="yes"/>
      <point x="373" y="0" type="line"/>
      <point x="456" y="0" type="line"/>
      <point x="456" y="489" type="line" smooth="yes"/>
      <point x="456" y="650"/>
      <point x="386" y="724"/>
      <point x="259" y="724" type="curve" smooth="yes"/>
      <point x="141" y="724"/>
      <point x="61" y="658"/>
      <point x="61" y="487" type="curve" smooth="yes"/>
    </contour>
  </outline>
</glyph>
<glyph name="Shin-oldgeorgian" format="2">
  <advance width="520"/>
  <unicode hex="10B8"/>
  <note>
uni10B8
</note>
  <outline>
    <contour>
      <point x="256" y="-10" type="curve" smooth="yes"/>
      <point x="388" y="-10"/>
      <point x="448" y="76"/>
      <point x="448" y="223" type="curve" smooth="yes"/>
      <point x="448" y="714" type="line"/>
      <point x="366" y="714" type="line"/>
      <point x="366" y="596" type="line" smooth="yes"/>
      <point x="366" y="454"/>
      <point x="325" y="395"/>
      <point x="251" y="395" type="curve" smooth="yes"/>
      <point x="176" y="395"/>
      <point x="144" y="448"/>
      <point x="144" y="572" type="curve" smooth="yes"/>
      <point x="144" y="714" type="line"/>
      <point x="61" y="714" type="line"/>
      <point x="61" y="566" type="line" smooth="yes"/>
      <point x="61" y="396"/>
      <point x="120" y="327"/>
      <point x="224" y="327" type="curve" smooth="yes"/>
      <point x="300" y="327"/>
      <point x="341" y="369"/>
      <point x="367" y="428" type="curve"/>
      <point x="370" y="428" type="line"/>
      <point x="367" y="397"/>
      <point x="366" y="354"/>
      <point x="366" y="318" type="curve" smooth="yes"/>
      <point x="366" y="224" type="line" smooth="yes"/>
      <point x="366" y="120"/>
      <point x="331" y="63"/>
      <point x="255" y="63" type="curve" smooth="yes"/>
      <point x="185" y="63"/>
      <point x="152" y="115"/>
      <point x="152" y="173" type="curve" smooth="yes"/>
      <point x="152" y="195"/>
      <point x="157" y="220"/>
      <point x="166" y="243" type="curve"/>
      <point x="91" y="266" type="line"/>
      <point x="72" y="233"/>
      <point x="66" y="199"/>
      <point x="66" y="167" type="curve" smooth="yes"/>
      <point x="66" y="72"/>
      <point x="138" y="-10"/>
    </contour>
  </outline>
</glyph>
<glyph name="Chin-oldgeorgian" format="2">
  <advance width="501"/>
  <unicode hex="10B9"/>
  <note>
uni10B9
</note>
  <outline>
    <contour>
      <point x="72" y="0" type="line"/>
      <point x="154" y="0" type="line"/>
      <point x="154" y="380" type="line"/>
      <point x="357" y="380" type="line"/>
      <point x="357" y="0" type="line"/>
      <point x="439" y="0" type="line"/>
      <point x="439" y="448" type="line"/>
      <point x="154" y="448" type="line"/>
      <point x="154" y="714" type="line"/>
      <point x="72" y="714" type="line"/>
    </contour>
  </outline>
</glyph>
<glyph name="Can-oldgeorgian" format="2">
  <advance width="520"/>
  <unicode hex="10BA"/>
  <note>
uni10BA
</note>
  <outline>
    <contour>
      <point x="263" y="-10" type="curve" smooth="yes"/>
      <point x="318" y="-10"/>
      <point x="355" y="10"/>
      <point x="385" y="38" type="curve"/>
      <point x="385" y="0" type="line"/>
      <point x="466" y="0" type="line"/>
      <point x="466" y="300" type="line"/>
      <point x="385" y="300" type="line"/>
      <point x="385" y="109" type="line"/>
      <point x="358" y="82"/>
      <point x="324" y="63"/>
      <point x="277" y="63" type="curve" smooth="yes"/>
      <point x="183" y="63"/>
      <point x="134" y="170"/>
      <point x="134" y="358" type="curve" smooth="yes"/>
      <point x="134" y="541"/>
      <point x="192" y="652"/>
      <point x="297" y="652" type="curve" smooth="yes"/>
      <point x="342" y="652"/>
      <point x="382" y="637"/>
      <point x="416" y="616" type="curve"/>
      <point x="443" y="685" type="line"/>
      <point x="400" y="710"/>
      <point x="352" y="724"/>
      <point x="296" y="724" type="curve" smooth="yes"/>
      <point x="134" y="724"/>
      <point x="48" y="578"/>
      <point x="48" y="358" type="curve" smooth="yes"/>
      <point x="48" y="129"/>
      <point x="123" y="-10"/>
    </contour>
  </outline>
</glyph>
<glyph name="Jil-oldgeorgian" format="2">
  <advance width="682"/>
  <unicode hex="10BB"/>
  <outline>
    <contour>
      <point x="234" y="-10" type="curve" smooth="yes"/>
      <point x="355" y="-10"/>
      <point x="415" y="80"/>
      <point x="415" y="227" type="curve" smooth="yes"/>
      <point x="415" y="392" type="line"/>
      <point x="546" y="392" type="line"/>
      <point x="546" y="0" type="line"/>
      <point x="620" y="0" type="line"/>
      <point x="620" y="462" type="line"/>
      <point x="415" y="462" type="line"/>
      <point x="415" y="714" type="line"/>
      <point x="333" y="714" type="line"/>
      <point x="333" y="462" type="line"/>
      <point x="251" y="462" type="line" smooth="yes"/>
      <point x="124" y="462"/>
      <point x="48" y="376"/>
      <point x="48" y="230" type="curve" smooth="yes"/>
      <point x="48" y="85"/>
      <point x="116" y="-10"/>
    </contour>
    <contour>
      <point x="233" y="63" type="curve" smooth="yes"/>
      <point x="168" y="63"/>
      <point x="133" y="127"/>
      <point x="133" y="231" type="curve" smooth="yes"/>
      <point x="133" y="333"/>
      <point x="174" y="392"/>
      <point x="251" y="392" type="curve" smooth="yes"/>
      <point x="332" y="392" type="line"/>
      <point x="332" y="227" type="line" smooth="yes"/>
      <point x="332" y="122"/>
      <point x="300" y="63"/>
    </contour>
  </outline>
</glyph>
<glyph name="Cil-oldgeorgian" format="2">
  <advance width="444"/>
  <unicode hex="10BC"/>
  <note>
uni10BC
</note>
  <outline>
    <contour>
      <point x="71" y="0" type="line"/>
      <point x="153" y="0" type="line"/>
      <point x="153" y="148" type="line"/>
      <point x="262" y="148" type="line"/>
      <point x="262" y="48" type="line"/>
      <point x="336" y="48" type="line"/>
      <point x="336" y="218" type="line"/>
      <point x="153" y="218" type="line"/>
      <point x="153" y="297" type="line"/>
      <point x="208" y="297" type="line" smooth="yes"/>
      <point x="349" y="297"/>
      <point x="413" y="376"/>
      <point x="413" y="513" type="curve" smooth="yes"/>
      <point x="413" y="651"/>
      <point x="346" y="714"/>
      <point x="211" y="714" type="curve" smooth="yes"/>
      <point x="71" y="714" type="line"/>
    </contour>
    <contour>
      <point x="153" y="369" type="line"/>
      <point x="153" y="643" type="line"/>
      <point x="204" y="643" type="line" smooth="yes"/>
      <point x="289" y="643"/>
      <point x="330" y="607"/>
      <point x="330" y="513" type="curve" smooth="yes"/>
      <point x="330" y="413"/>
      <point x="288" y="369"/>
      <point x="204" y="369" type="curve" smooth="yes"/>
    </contour>
  </outline>
</glyph>
<glyph name="Char-oldgeorgian" format="2">
  <advance width="435"/>
  <unicode hex="10BD"/>
  <note>
uni10BD
</note>
  <outline>
    <contour>
      <point x="218" y="-10" type="curve" smooth="yes"/>
      <point x="327" y="-10"/>
      <point x="389" y="58"/>
      <point x="389" y="174" type="curve" smooth="yes"/>
      <point x="389" y="296"/>
      <point x="322" y="347"/>
      <point x="255" y="393" type="curve" smooth="yes"/>
      <point x="190" y="438"/>
      <point x="143" y="467"/>
      <point x="143" y="546" type="curve" smooth="yes"/>
      <point x="143" y="613"/>
      <point x="167" y="655"/>
      <point x="221" y="655" type="curve" smooth="yes"/>
      <point x="272" y="655"/>
      <point x="297" y="614"/>
      <point x="297" y="555" type="curve" smooth="yes"/>
      <point x="297" y="547"/>
      <point x="296" y="538"/>
      <point x="294" y="531" type="curve"/>
      <point x="376" y="531" type="line"/>
      <point x="377" y="538"/>
      <point x="378" y="549"/>
      <point x="378" y="557" type="curve" smooth="yes"/>
      <point x="378" y="657"/>
      <point x="320" y="724"/>
      <point x="222" y="724" type="curve" smooth="yes"/>
      <point x="121" y="724"/>
      <point x="60" y="655"/>
      <point x="60" y="543" type="curve" smooth="yes"/>
      <point x="60" y="427"/>
      <point x="131" y="382"/>
      <point x="199" y="333" type="curve" smooth="yes"/>
      <point x="252" y="295"/>
      <point x="306" y="258"/>
      <point x="306" y="171" type="curve" smooth="yes"/>
      <point x="306" y="101"/>
      <point x="271" y="59"/>
      <point x="218" y="59" type="curve" smooth="yes"/>
      <point x="158" y="59"/>
      <point x="125" y="103"/>
      <point x="125" y="172" type="curve" smooth="yes"/>
      <point x="125" y="196"/>
      <point x="127" y="216"/>
      <point x="131" y="234" type="curve"/>
      <point x="50" y="234" type="line"/>
      <point x="47" y="217"/>
      <point x="44" y="193"/>
      <point x="44" y="170" type="curve" smooth="yes"/>
      <point x="44" y="57"/>
      <point x="109" y="-10"/>
    </contour>
  </outline>
</glyph>
<glyph name="Xan-oldgeorgian" format="2">
  <advance width="505"/>
  <unicode hex="10BE"/>
  <note>
uni10BE
</note>
  <outline>
    <contour>
      <point x="66" y="714" type="line"/>
      <point x="66" y="0" type="line"/>
      <point x="423" y="0" type="line"/>
      <point x="423" y="73" type="line"/>
      <point x="148" y="73" type="line"/>
      <point x="148" y="286" type="line"/>
      <point x="433" y="286" type="line"/>
      <point x="433" y="714" type="line"/>
      <point x="351" y="714" type="line"/>
      <point x="351" y="354" type="line"/>
      <point x="148" y="354" type="line"/>
      <point x="148" y="714" type="line"/>
    </contour>
  </outline>
</glyph>
<glyph name="Jhan-oldgeorgian" format="2">
  <advance width="486"/>
  <unicode hex="10BF"/>
  <note>
uni10BF
</note>
  <outline>
    <contour>
      <point x="30" y="0" type="line"/>
      <point x="121" y="0" type="line"/>
      <point x="254" y="301" type="line"/>
      <point x="387" y="0" type="line"/>
      <point x="476" y="0" type="line"/>
      <point x="306" y="367" type="line"/>
      <point x="436" y="660" type="line"/>
      <point x="436" y="714" type="line"/>
      <point x="14" y="714" type="line"/>
      <point x="14" y="641" type="line"/>
      <point x="84" y="641" type="line"/>
      <point x="202" y="367" type="line"/>
    </contour>
    <contour>
      <point x="254" y="429" type="line"/>
      <point x="165" y="641" type="line"/>
      <point x="345" y="641" type="line"/>
    </contour>
  </outline>
</glyph>
<glyph name="Hae-oldgeorgian" format="2">
  <advance width="707"/>
  <unicode hex="10C0"/>
  <note>
uni10C0
</note>
  <outline>
    <contour>
      <point x="476" y="-10" type="curve" smooth="yes"/>
      <point x="599" y="-10"/>
      <point x="664" y="84"/>
      <point x="664" y="213" type="curve" smooth="yes"/>
      <point x="664" y="276"/>
      <point x="647" y="338"/>
      <point x="618" y="385" type="curve"/>
      <point x="544" y="359" type="line"/>
      <point x="565" y="313"/>
      <point x="575" y="262"/>
      <point x="575" y="210" type="curve" smooth="yes"/>
      <point x="575" y="126"/>
      <point x="543" y="63"/>
      <point x="478" y="63" type="curve" smooth="yes"/>
      <point x="411" y="63"/>
      <point x="376" y="126"/>
      <point x="376" y="239" type="curve" smooth="yes"/>
      <point x="376" y="714" type="line"/>
      <point x="60" y="714" type="line"/>
      <point x="60" y="396" type="line"/>
      <point x="142" y="396" type="line"/>
      <point x="142" y="641" type="line"/>
      <point x="294" y="641" type="line"/>
      <point x="294" y="234" type="line" smooth="yes"/>
      <point x="294" y="83"/>
      <point x="354" y="-10"/>
    </contour>
  </outline>
</glyph>
<glyph name="He-oldgeorgian" format="2">
  <advance width="515"/>
  <unicode hex="10C1"/>
  <note>
uni10C1
</note>
  <outline>
    <contour>
      <point x="71" y="0" type="line"/>
      <point x="153" y="0" type="line"/>
      <point x="153" y="296" type="line" smooth="yes"/>
      <point x="153" y="406"/>
      <point x="187" y="478"/>
      <point x="252" y="478" type="curve" smooth="yes"/>
      <point x="314" y="478"/>
      <point x="338" y="429"/>
      <point x="338" y="307" type="curve" smooth="yes"/>
      <point x="338" y="261" type="line"/>
      <point x="495" y="261" type="line"/>
      <point x="495" y="331" type="line"/>
      <point x="419" y="331" type="line"/>
      <point x="414" y="475"/>
      <point x="372" y="546"/>
      <point x="279" y="546" type="curve" smooth="yes"/>
      <point x="218" y="546"/>
      <point x="175" y="513"/>
      <point x="151" y="451" type="curve"/>
      <point x="149" y="451" type="line"/>
      <point x="152" y="485"/>
      <point x="153" y="517"/>
      <point x="153" y="551" type="curve" smooth="yes"/>
      <point x="153" y="714" type="line"/>
      <point x="71" y="714" type="line"/>
    </contour>
  </outline>
</glyph>
<glyph name="Hie-oldgeorgian" format="2">
  <advance width="456"/>
  <unicode hex="10C2"/>
  <note>
uni10C2
</note>
  <outline>
    <contour>
      <point x="176" y="-10" type="curve" smooth="yes"/>
      <point x="322" y="-10"/>
      <point x="408" y="115"/>
      <point x="408" y="312" type="curve" smooth="yes"/>
      <point x="408" y="495"/>
      <point x="331" y="627"/>
      <point x="181" y="627" type="curve" smooth="yes"/>
      <point x="153" y="627" type="line"/>
      <point x="153" y="714" type="line"/>
      <point x="74" y="714" type="line"/>
      <point x="74" y="557" type="line"/>
      <point x="153" y="557" type="line" smooth="yes"/>
      <point x="275" y="557"/>
      <point x="322" y="449"/>
      <point x="322" y="310" type="curve" smooth="yes"/>
      <point x="322" y="164"/>
      <point x="267" y="63"/>
      <point x="166" y="63" type="curve" smooth="yes"/>
      <point x="118" y="63"/>
      <point x="81" y="79"/>
      <point x="51" y="96" type="curve"/>
      <point x="51" y="19" type="line"/>
      <point x="89" y="1"/>
      <point x="125" y="-10"/>
    </contour>
  </outline>
</glyph>
<glyph name="We-oldgeorgian" format="2">
  <advance width="502"/>
  <unicode hex="10C3"/>
  <note>
uni10C3
</note>
  <outline>
    <contour>
      <point x="349" y="0" type="line"/>
      <point x="432" y="0" type="line"/>
      <point x="432" y="714" type="line"/>
      <point x="349" y="714" type="line"/>
      <point x="349" y="464" type="line" smooth="yes"/>
      <point x="349" y="311"/>
      <point x="302" y="246"/>
      <point x="231" y="246" type="curve" smooth="yes"/>
      <point x="162" y="246"/>
      <point x="128" y="309"/>
      <point x="128" y="398" type="curve" smooth="yes"/>
      <point x="128" y="450"/>
      <point x="138" y="501"/>
      <point x="159" y="547" type="curve"/>
      <point x="85" y="573" type="line"/>
      <point x="56" y="526"/>
      <point x="43" y="459"/>
      <point x="43" y="396" type="curve" smooth="yes"/>
      <point x="43" y="265"/>
      <point x="105" y="177"/>
      <point x="209" y="177" type="curve" smooth="yes"/>
      <point x="278" y="177"/>
      <point x="324" y="213"/>
      <point x="350" y="285" type="curve"/>
      <point x="354" y="285" type="line"/>
      <point x="351" y="251"/>
      <point x="349" y="204"/>
      <point x="349" y="161" type="curve" smooth="yes"/>
    </contour>
  </outline>
</glyph>
<glyph name="Har-oldgeorgian" format="2">
  <advance width="524"/>
  <unicode hex="10C4"/>
  <note>
uni10C4
</note>
  <outline>
    <contour>
      <point x="221" y="0" type="line"/>
      <point x="303" y="0" type="line"/>
      <point x="303" y="251" type="line"/>
      <point x="402" y="266"/>
      <point x="461" y="345"/>
      <point x="461" y="503" type="curve" smooth="yes"/>
      <point x="461" y="714" type="line"/>
      <point x="379" y="714" type="line"/>
      <point x="379" y="505" type="line" smooth="yes"/>
      <point x="379" y="370"/>
      <point x="335" y="318"/>
      <point x="262" y="318" type="curve" smooth="yes"/>
      <point x="187" y="318"/>
      <point x="146" y="370"/>
      <point x="146" y="506" type="curve" smooth="yes"/>
      <point x="146" y="714" type="line"/>
      <point x="64" y="714" type="line"/>
      <point x="64" y="502" type="line" smooth="yes"/>
      <point x="64" y="342"/>
      <point x="121" y="265"/>
      <point x="221" y="251" type="curve"/>
    </contour>
  </outline>
</glyph>
<glyph name="Hoe-oldgeorgian" format="2">
  <advance width="615"/>
  <unicode hex="10C5"/>
  <note>
uni10C5
</note>
  <outline>
    <contour>
      <point x="184" y="-11" type="curve" smooth="yes"/>
      <point x="279" y="-11"/>
      <point x="328" y="48"/>
      <point x="328" y="178" type="curve" smooth="yes"/>
      <point x="328" y="238" type="line"/>
      <point x="433" y="238" type="line"/>
      <point x="433" y="118" type="line"/>
      <point x="507" y="118" type="line"/>
      <point x="507" y="302" type="line"/>
      <point x="328" y="302" type="line"/>
      <point x="328" y="397" type="line"/>
      <point x="404" y="397" type="line" smooth="yes"/>
      <point x="514" y="397"/>
      <point x="575" y="454"/>
      <point x="575" y="559" type="curve" smooth="yes"/>
      <point x="575" y="666"/>
      <point x="514" y="724"/>
      <point x="409" y="724" type="curve" smooth="yes"/>
      <point x="304" y="724"/>
      <point x="246" y="663"/>
      <point x="246" y="525" type="curve" smooth="yes"/>
      <point x="246" y="302" type="line"/>
      <point x="199" y="302" type="line" smooth="yes"/>
      <point x="101" y="302"/>
      <point x="39" y="246"/>
      <point x="39" y="144" type="curve" smooth="yes"/>
      <point x="39" y="39"/>
      <point x="94" y="-11"/>
    </contour>
    <contour>
      <point x="183" y="53" type="curve" smooth="yes"/>
      <point x="146" y="53"/>
      <point x="122" y="82"/>
      <point x="122" y="144" type="curve" smooth="yes"/>
      <point x="122" y="204"/>
      <point x="153" y="238"/>
      <point x="203" y="238" type="curve" smooth="yes"/>
      <point x="246" y="238" type="line"/>
      <point x="246" y="174" type="line" smooth="yes"/>
      <point x="246" y="87"/>
      <point x="224" y="53"/>
    </contour>
    <contour>
      <point x="329" y="461" type="line"/>
      <point x="329" y="527" type="line" smooth="yes"/>
      <point x="329" y="618"/>
      <point x="357" y="660"/>
      <point x="412" y="660" type="curve" smooth="yes"/>
      <point x="467" y="660"/>
      <point x="493" y="620"/>
      <point x="493" y="558" type="curve" smooth="yes"/>
      <point x="493" y="497"/>
      <point x="465" y="461"/>
      <point x="404" y="461" type="curve" smooth="yes"/>
    </contour>
  </outline>
</glyph>
<glyph name="Yn-oldgeorgian" format="2">
  <advance width="417"/>
  <unicode hex="10C7"/>
  <anchor x="206" y="0" name="bottom"/>
  <anchor x="206" y="714" name="top"/>
  <outline>
    <contour>
      <point x="213" y="-10" type="curve" smooth="yes"/>
      <point x="322" y="-10"/>
      <point x="382" y="61"/>
      <point x="382" y="178" type="curve" smooth="yes"/>
      <point x="382" y="199"/>
      <point x="380" y="217"/>
      <point x="377" y="234" type="curve"/>
      <point x="296" y="234" type="line"/>
      <point x="299" y="218"/>
      <point x="301" y="200"/>
      <point x="301" y="180" type="curve" smooth="yes"/>
      <point x="301" y="105"/>
      <point x="269" y="55"/>
      <point x="209" y="55" type="curve" smooth="yes"/>
      <point x="152" y="55"/>
      <point x="121" y="103"/>
      <point x="121" y="181" type="curve" smooth="yes"/>
      <point x="121" y="266"/>
      <point x="164" y="296"/>
      <point x="232" y="336" type="curve" smooth="yes"/>
      <point x="320" y="387"/>
      <point x="364" y="446"/>
      <point x="364" y="545" type="curve" smooth="yes"/>
      <point x="364" y="655"/>
      <point x="302" y="724"/>
      <point x="205" y="724" type="curve" smooth="yes"/>
      <point x="107" y="724"/>
      <point x="51" y="656"/>
      <point x="51" y="558" type="curve" smooth="yes"/>
      <point x="51" y="550"/>
      <point x="52" y="540"/>
      <point x="53" y="533" type="curve"/>
      <point x="134" y="533" type="line"/>
      <point x="133" y="540"/>
      <point x="132" y="548"/>
      <point x="132" y="557" type="curve" smooth="yes"/>
      <point x="132" y="615"/>
      <point x="158" y="658"/>
      <point x="206" y="658" type="curve" smooth="yes"/>
      <point x="253" y="658"/>
      <point x="282" y="615"/>
      <point x="282" y="544" type="curve" smooth="yes"/>
      <point x="282" y="463"/>
      <point x="252" y="433"/>
      <point x="176" y="393" type="curve" smooth="yes"/>
      <point x="88" y="346"/>
      <point x="39" y="299"/>
      <point x="39" y="185" type="curve" smooth="yes"/>
      <point x="39" y="65"/>
      <point x="103" y="-10"/>
    </contour>
  </outline>
</glyph>
<glyph name="Aen-oldgeorgian" format="2">
  <advance width="361"/>
  <unicode hex="10CD"/>
  <outline>
    <contour>
      <point x="26" y="0" type="line"/>
      <point x="341" y="0" type="line"/>
      <point x="341" y="76" type="line"/>
      <point x="115" y="76" type="line"/>
      <point x="335" y="648" type="line"/>
      <point x="335" y="714" type="line"/>
      <point x="30" y="714" type="line"/>
      <point x="30" y="638" type="line"/>
      <point x="244" y="638" type="line"/>
      <point x="26" y="65" type="line"/>
    </contour>
  </outline>
</glyph>
<glyph name="an-georgian" format="2">
  <advance width="413"/>
  <unicode hex="10D0"/>
  <note>
uni10D0
</note>
  <anchor x="207" y="537" name="top"/>
  <outline>
    <contour>
      <point x="204" y="-10" type="curve" smooth="yes"/>
      <point x="298" y="-10"/>
      <point x="371" y="52"/>
      <point x="371" y="170" type="curve" smooth="yes"/>
      <point x="371" y="259"/>
      <point x="336" y="315"/>
      <point x="301" y="371" type="curve" smooth="yes"/>
      <point x="272" y="418"/>
      <point x="247" y="467"/>
      <point x="247" y="537" type="curve"/>
      <point x="166" y="537" type="line"/>
      <point x="166" y="436"/>
      <point x="200" y="384"/>
      <point x="232" y="334" type="curve" smooth="yes"/>
      <point x="261" y="289"/>
      <point x="288" y="246"/>
      <point x="288" y="170" type="curve" smooth="yes"/>
      <point x="288" y="99"/>
      <point x="258" y="61"/>
      <point x="203" y="61" type="curve" smooth="yes"/>
      <point x="146" y="61"/>
      <point x="118" y="102"/>
      <point x="118" y="170" type="curve" smooth="yes"/>
      <point x="118" y="205"/>
      <point x="121" y="230"/>
      <point x="129" y="263" type="curve"/>
      <point x="53" y="263" type="line"/>
      <point x="42" y="227"/>
      <point x="37" y="203"/>
      <point x="37" y="165" type="curve" smooth="yes"/>
      <point x="37" y="52"/>
      <point x="103" y="-10"/>
    </contour>
  </outline>
</glyph>
<glyph name="ban-georgian" format="2">
  <advance width="445"/>
  <unicode hex="10D1"/>
  <note>
uni10D1
</note>
  <outline>
    <contour>
      <point x="271" y="541" type="curve"/>
      <point x="280" y="557"/>
      <point x="285" y="576"/>
      <point x="285" y="598" type="curve" smooth="yes"/>
      <point x="285" y="643"/>
      <point x="266" y="665"/>
      <point x="248" y="686" type="curve" smooth="yes"/>
      <point x="231" y="706"/>
      <point x="218" y="725"/>
      <point x="218" y="760" type="curve"/>
      <point x="137" y="760" type="line"/>
      <point x="137" y="704"/>
      <point x="157" y="679"/>
      <point x="176" y="656" type="curve" smooth="yes"/>
      <point x="191" y="638"/>
      <point x="204" y="621"/>
      <point x="204" y="591" type="curve" smooth="yes"/>
      <point x="204" y="571"/>
      <point x="200" y="557"/>
      <point x="193" y="545" type="curve"/>
      <point x="90" y="530"/>
      <point x="42" y="431"/>
      <point x="42" y="269" type="curve" smooth="yes"/>
      <point x="42" y="101"/>
      <point x="102" y="-10"/>
      <point x="221" y="-10" type="curve" smooth="yes"/>
      <point x="346" y="-10"/>
      <point x="403" y="102"/>
      <point x="403" y="269" type="curve" smooth="yes"/>
      <point x="403" y="425"/>
      <point x="355" y="517"/>
    </contour>
    <contour>
      <point x="223" y="61" type="curve" smooth="yes"/>
      <point x="155" y="61"/>
      <point x="125" y="132"/>
      <point x="125" y="269" type="curve" smooth="yes"/>
      <point x="125" y="407"/>
      <point x="154" y="476"/>
      <point x="223" y="476" type="curve" smooth="yes"/>
      <point x="290" y="476"/>
      <point x="321" y="407"/>
      <point x="321" y="269" type="curve" smooth="yes"/>
      <point x="321" y="130"/>
      <point x="290" y="61"/>
    </contour>
  </outline>
</glyph>
<glyph name="gan-georgian" format="2">
  <advance width="435"/>
  <unicode hex="10D2"/>
  <note>
uni10D2
</note>
  <outline>
    <contour>
      <point x="216" y="-250" type="curve" smooth="yes"/>
      <point x="341" y="-250"/>
      <point x="398" y="-139"/>
      <point x="398" y="19" type="curve" smooth="yes"/>
      <point x="398" y="135"/>
      <point x="371" y="230"/>
      <point x="286" y="264" type="curve"/>
      <point x="286" y="267" type="line"/>
      <point x="339" y="294"/>
      <point x="355" y="347"/>
      <point x="355" y="397" type="curve" smooth="yes"/>
      <point x="355" y="487"/>
      <point x="302" y="547"/>
      <point x="216" y="547" type="curve" smooth="yes"/>
      <point x="136" y="547"/>
      <point x="78" y="497"/>
      <point x="78" y="414" type="curve" smooth="yes"/>
      <point x="78" y="391"/>
      <point x="81" y="376"/>
      <point x="87" y="359" type="curve"/>
      <point x="163" y="359" type="line"/>
      <point x="159" y="376"/>
      <point x="157" y="389"/>
      <point x="157" y="409" type="curve" smooth="yes"/>
      <point x="157" y="457"/>
      <point x="178" y="483"/>
      <point x="216" y="483" type="curve" smooth="yes"/>
      <point x="257" y="483"/>
      <point x="275" y="446"/>
      <point x="275" y="401" type="curve" smooth="yes"/>
      <point x="275" y="345"/>
      <point x="264" y="299"/>
      <point x="200" y="286" type="curve" smooth="yes"/>
      <point x="94" y="265"/>
      <point x="37" y="186"/>
      <point x="37" y="19" type="curve" smooth="yes"/>
      <point x="37" y="-139"/>
      <point x="97" y="-250"/>
    </contour>
    <contour>
      <point x="218" y="-179" type="curve" smooth="yes"/>
      <point x="150" y="-179"/>
      <point x="120" y="-108"/>
      <point x="120" y="19" type="curve" smooth="yes"/>
      <point x="120" y="147"/>
      <point x="149" y="216"/>
      <point x="218" y="216" type="curve" smooth="yes"/>
      <point x="285" y="216"/>
      <point x="316" y="147"/>
      <point x="316" y="19" type="curve" smooth="yes"/>
      <point x="316" y="-110"/>
      <point x="285" y="-179"/>
    </contour>
  </outline>
</glyph>
<glyph name="don-georgian" format="2">
  <advance width="630"/>
  <unicode hex="10D3"/>
  <note>
uni10D3
</note>
  <outline>
    <contour>
      <point x="388" y="-250" type="curve"/>
      <point x="453" y="-226" type="line"/>
      <point x="421" y="-140"/>
      <point x="362" y="-94"/>
      <point x="282" y="-48" type="curve" smooth="yes"/>
      <point x="197" y="1"/>
      <point x="124" y="83"/>
      <point x="124" y="271" type="curve" smooth="yes"/>
      <point x="124" y="412"/>
      <point x="143" y="476"/>
      <point x="193" y="476" type="curve" smooth="yes"/>
      <point x="236" y="476"/>
      <point x="257" y="440"/>
      <point x="257" y="327" type="curve" smooth="yes"/>
      <point x="257" y="269" type="line" smooth="yes"/>
      <point x="257" y="112"/>
      <point x="306" y="0"/>
      <point x="424" y="0" type="curve" smooth="yes"/>
      <point x="536" y="0"/>
      <point x="588" y="111"/>
      <point x="588" y="269" type="curve" smooth="yes"/>
      <point x="588" y="446"/>
      <point x="539" y="547"/>
      <point x="422" y="547" type="curve" smooth="yes"/>
      <point x="367" y="547"/>
      <point x="318" y="514"/>
      <point x="301" y="441" type="curve"/>
      <point x="298" y="441" type="line"/>
      <point x="282" y="514"/>
      <point x="236" y="547"/>
      <point x="185" y="547" type="curve" smooth="yes"/>
      <point x="93" y="547"/>
      <point x="42" y="450"/>
      <point x="42" y="271" type="curve" smooth="yes"/>
      <point x="42" y="116"/>
      <point x="102" y="-6"/>
      <point x="203" y="-66" type="curve"/>
      <point x="203" y="-69" type="line"/>
      <point x="171" y="-71"/>
      <point x="137" y="-82"/>
      <point x="116" y="-95" type="curve"/>
      <point x="140" y="-145" type="line"/>
      <point x="171" y="-127"/>
      <point x="201" y="-119"/>
      <point x="229" y="-119" type="curve" smooth="yes"/>
      <point x="298" y="-119"/>
      <point x="355" y="-168"/>
    </contour>
    <contour>
      <point x="422" y="71" type="curve" smooth="yes"/>
      <point x="362" y="71"/>
      <point x="339" y="140"/>
      <point x="339" y="269" type="curve" smooth="yes"/>
      <point x="339" y="407"/>
      <point x="362" y="476"/>
      <point x="422" y="476" type="curve" smooth="yes"/>
      <point x="484" y="476"/>
      <point x="505" y="407"/>
      <point x="505" y="269" type="curve" smooth="yes"/>
      <point x="505" y="142"/>
      <point x="483" y="71"/>
    </contour>
  </outline>
</glyph>
<glyph name="en-georgian" format="2">
  <advance width="441"/>
  <unicode hex="10D4"/>
  <note>
uni10D4
</note>
  <anchor x="221" y="537" name="top"/>
  <outline>
    <contour>
      <point x="210" y="-250" type="curve" smooth="yes"/>
      <point x="319" y="-250"/>
      <point x="381" y="-163"/>
      <point x="381" y="-24" type="curve" smooth="yes"/>
      <point x="381" y="367" type="line" smooth="yes"/>
      <point x="381" y="488"/>
      <point x="310" y="547"/>
      <point x="218" y="547" type="curve" smooth="yes"/>
      <point x="120" y="547"/>
      <point x="54" y="485"/>
      <point x="54" y="372" type="curve" smooth="yes"/>
      <point x="54" y="334"/>
      <point x="59" y="310"/>
      <point x="70" y="274" type="curve"/>
      <point x="146" y="274" type="line"/>
      <point x="138" y="307"/>
      <point x="135" y="332"/>
      <point x="135" y="367" type="curve" smooth="yes"/>
      <point x="135" y="435"/>
      <point x="163" y="476"/>
      <point x="217" y="476" type="curve" smooth="yes"/>
      <point x="270" y="476"/>
      <point x="300" y="438"/>
      <point x="300" y="367" type="curve" smooth="yes"/>
      <point x="300" y="-24" type="line" smooth="yes"/>
      <point x="300" y="-121"/>
      <point x="272" y="-179"/>
      <point x="209" y="-179" type="curve" smooth="yes"/>
      <point x="139" y="-179"/>
      <point x="118" y="-107"/>
      <point x="118" y="-41" type="curve" smooth="yes"/>
      <point x="118" y="25"/>
      <point x="130" y="62"/>
      <point x="135" y="79" type="curve"/>
      <point x="61" y="79" type="line"/>
      <point x="50" y="56"/>
      <point x="37" y="15"/>
      <point x="37" y="-44" type="curve" smooth="yes"/>
      <point x="37" y="-137"/>
      <point x="85" y="-250"/>
    </contour>
  </outline>
</glyph>
<glyph name="vin-georgian" format="2">
  <advance width="428"/>
  <unicode hex="10D5"/>
  <note>
uni10D5
</note>
  <outline>
    <contour>
      <point x="210" y="-250" type="curve" smooth="yes"/>
      <point x="319" y="-250"/>
      <point x="391" y="-168"/>
      <point x="391" y="-19" type="curve" smooth="yes"/>
      <point x="391" y="104"/>
      <point x="343" y="165"/>
      <point x="271" y="183" type="curve"/>
      <point x="271" y="187" type="line"/>
      <point x="343" y="215"/>
      <point x="381" y="283"/>
      <point x="381" y="367" type="curve" smooth="yes"/>
      <point x="381" y="488"/>
      <point x="310" y="547"/>
      <point x="218" y="547" type="curve" smooth="yes"/>
      <point x="120" y="547"/>
      <point x="54" y="485"/>
      <point x="54" y="382" type="curve" smooth="yes"/>
      <point x="54" y="350"/>
      <point x="57" y="333"/>
      <point x="68" y="299" type="curve"/>
      <point x="144" y="299" type="line"/>
      <point x="138" y="332"/>
      <point x="135" y="346"/>
      <point x="135" y="377" type="curve" smooth="yes"/>
      <point x="135" y="435"/>
      <point x="163" y="476"/>
      <point x="217" y="476" type="curve" smooth="yes"/>
      <point x="270" y="476"/>
      <point x="300" y="438"/>
      <point x="300" y="359" type="curve" smooth="yes"/>
      <point x="300" y="274"/>
      <point x="260" y="219"/>
      <point x="196" y="219" type="curve" smooth="yes"/>
      <point x="167" y="219" type="line"/>
      <point x="167" y="146" type="line"/>
      <point x="199" y="146" type="line" smooth="yes"/>
      <point x="261" y="146"/>
      <point x="308" y="94"/>
      <point x="308" y="-19" type="curve" smooth="yes"/>
      <point x="308" y="-126"/>
      <point x="272" y="-179"/>
      <point x="209" y="-179" type="curve" smooth="yes"/>
      <point x="139" y="-179"/>
      <point x="118" y="-107"/>
      <point x="118" y="-51" type="curve" smooth="yes"/>
      <point x="118" y="-3"/>
      <point x="125" y="33"/>
      <point x="132" y="56" type="curve"/>
      <point x="58" y="56" type="line"/>
      <point x="47" y="30"/>
      <point x="37" y="-11"/>
      <point x="37" y="-54" type="curve" smooth="yes"/>
      <point x="37" y="-137"/>
      <point x="85" y="-250"/>
    </contour>
  </outline>
</glyph>
<glyph name="zen-georgian" format="2">
  <advance width="463"/>
  <unicode hex="10D6"/>
  <note>
uni10D6
</note>
  <outline>
    <contour>
      <point x="244" y="-10" type="curve" smooth="yes"/>
      <point x="367" y="-10"/>
      <point x="421" y="102"/>
      <point x="421" y="254" type="curve" smooth="yes"/>
      <point x="421" y="393"/>
      <point x="382" y="488"/>
      <point x="293" y="506" type="curve" smooth="yes"/>
      <point x="288" y="507"/>
      <point x="284" y="508"/>
      <point x="279" y="509" type="curve"/>
      <point x="279" y="512" type="line"/>
      <point x="299" y="537"/>
      <point x="306" y="571"/>
      <point x="306" y="607" type="curve" smooth="yes"/>
      <point x="306" y="708"/>
      <point x="254" y="770"/>
      <point x="165" y="770" type="curve" smooth="yes"/>
      <point x="70" y="770"/>
      <point x="25" y="704"/>
      <point x="25" y="602" type="curve" smooth="yes"/>
      <point x="25" y="528"/>
      <point x="62" y="463"/>
      <point x="129" y="447" type="curve"/>
      <point x="129" y="443" type="line"/>
      <point x="87" y="399"/>
      <point x="70" y="328"/>
      <point x="70" y="248" type="curve" smooth="yes"/>
      <point x="70" y="101"/>
      <point x="127" y="-10"/>
    </contour>
    <contour>
      <point x="246" y="61" type="curve" smooth="yes"/>
      <point x="180" y="61"/>
      <point x="153" y="132"/>
      <point x="153" y="254" type="curve" smooth="yes"/>
      <point x="153" y="377"/>
      <point x="179" y="446"/>
      <point x="246" y="446" type="curve" smooth="yes"/>
      <point x="311" y="446"/>
      <point x="339" y="377"/>
      <point x="339" y="254" type="curve" smooth="yes"/>
      <point x="339" y="130"/>
      <point x="311" y="61"/>
    </contour>
    <contour>
      <point x="165" y="502" type="curve" smooth="yes"/>
      <point x="123" y="502"/>
      <point x="104" y="549"/>
      <point x="104" y="604" type="curve" smooth="yes"/>
      <point x="104" y="660"/>
      <point x="122" y="705"/>
      <point x="165" y="705" type="curve" smooth="yes"/>
      <point x="208" y="705"/>
      <point x="227" y="660"/>
      <point x="227" y="604" type="curve" smooth="yes"/>
      <point x="227" y="536"/>
      <point x="212" y="502"/>
    </contour>
  </outline>
</glyph>
<glyph name="tan-georgian" format="2">
  <advance width="630"/>
  <unicode hex="10D7"/>
  <note>
uni10D7
</note>
  <outline>
    <contour>
      <point x="206" y="-10" type="curve" smooth="yes"/>
      <point x="324" y="-10"/>
      <point x="373" y="102"/>
      <point x="373" y="269" type="curve" smooth="yes"/>
      <point x="373" y="327" type="line" smooth="yes"/>
      <point x="373" y="440"/>
      <point x="394" y="476"/>
      <point x="437" y="476" type="curve" smooth="yes"/>
      <point x="487" y="476"/>
      <point x="506" y="412"/>
      <point x="506" y="277" type="curve" smooth="yes"/>
      <point x="506" y="182"/>
      <point x="491" y="87"/>
      <point x="460" y="0" type="curve"/>
      <point x="536" y="0" type="line"/>
      <point x="572" y="92"/>
      <point x="588" y="180"/>
      <point x="588" y="277" type="curve" smooth="yes"/>
      <point x="588" y="450"/>
      <point x="537" y="547"/>
      <point x="445" y="547" type="curve" smooth="yes"/>
      <point x="394" y="547"/>
      <point x="348" y="514"/>
      <point x="332" y="441" type="curve"/>
      <point x="329" y="441" type="line"/>
      <point x="312" y="514"/>
      <point x="263" y="547"/>
      <point x="208" y="547" type="curve" smooth="yes"/>
      <point x="91" y="547"/>
      <point x="42" y="446"/>
      <point x="42" y="269" type="curve" smooth="yes"/>
      <point x="42" y="101"/>
      <point x="94" y="-10"/>
    </contour>
    <contour>
      <point x="208" y="61" type="curve" smooth="yes"/>
      <point x="147" y="61"/>
      <point x="125" y="132"/>
      <point x="125" y="269" type="curve" smooth="yes"/>
      <point x="125" y="407"/>
      <point x="146" y="476"/>
      <point x="208" y="476" type="curve" smooth="yes"/>
      <point x="268" y="476"/>
      <point x="291" y="407"/>
      <point x="291" y="269" type="curve" smooth="yes"/>
      <point x="291" y="130"/>
      <point x="268" y="61"/>
    </contour>
  </outline>
</glyph>
<glyph name="in-georgian" format="2">
  <advance width="432"/>
  <unicode hex="10D8"/>
  <note>
uni10D8
</note>
  <anchor x="216" y="537" name="top"/>
  <outline>
    <contour>
      <point x="94" y="0" type="curve"/>
      <point x="170" y="0" type="line"/>
      <point x="139" y="86"/>
      <point x="124" y="178"/>
      <point x="124" y="286" type="curve" smooth="yes"/>
      <point x="124" y="432"/>
      <point x="166" y="476"/>
      <point x="216" y="476" type="curve" smooth="yes"/>
      <point x="269" y="476"/>
      <point x="308" y="431"/>
      <point x="308" y="287" type="curve" smooth="yes"/>
      <point x="308" y="182"/>
      <point x="293" y="87"/>
      <point x="262" y="0" type="curve"/>
      <point x="338" y="0" type="line"/>
      <point x="374" y="92"/>
      <point x="390" y="180"/>
      <point x="390" y="287" type="curve" smooth="yes"/>
      <point x="390" y="470"/>
      <point x="319" y="547"/>
      <point x="216" y="547" type="curve" smooth="yes"/>
      <point x="111" y="547"/>
      <point x="42" y="470"/>
      <point x="42" y="287" type="curve" smooth="yes"/>
      <point x="42" y="179"/>
      <point x="57" y="95"/>
    </contour>
  </outline>
</glyph>
<glyph name="kan-georgian" format="2">
  <advance width="413"/>
  <unicode hex="10D9"/>
  <note>
uni10D9
</note>
  <outline>
    <contour>
      <point x="205" y="-250" type="curve" smooth="yes"/>
      <point x="312" y="-250"/>
      <point x="376" y="-168"/>
      <point x="376" y="-19" type="curve" smooth="yes"/>
      <point x="376" y="124"/>
      <point x="328" y="182"/>
      <point x="256" y="203" type="curve"/>
      <point x="256" y="207" type="line"/>
      <point x="328" y="231"/>
      <point x="366" y="291"/>
      <point x="366" y="374" type="curve" smooth="yes"/>
      <point x="366" y="488"/>
      <point x="295" y="547"/>
      <point x="203" y="547" type="curve"/>
      <point x="203" y="476" type="line"/>
      <point x="249" y="476"/>
      <point x="285" y="438"/>
      <point x="285" y="364" type="curve" smooth="yes"/>
      <point x="285" y="294"/>
      <point x="245" y="239"/>
      <point x="181" y="239" type="curve" smooth="yes"/>
      <point x="152" y="239" type="line"/>
      <point x="152" y="166" type="line"/>
      <point x="184" y="166" type="line" smooth="yes"/>
      <point x="246" y="166"/>
      <point x="293" y="114"/>
      <point x="293" y="-19" type="curve" smooth="yes"/>
      <point x="293" y="-126"/>
      <point x="265" y="-179"/>
      <point x="204" y="-179" type="curve" smooth="yes"/>
      <point x="138" y="-179"/>
      <point x="113" y="-115"/>
      <point x="113" y="-51" type="curve" smooth="yes"/>
      <point x="113" y="-2"/>
      <point x="120" y="39"/>
      <point x="125" y="56" type="curve"/>
      <point x="51" y="56" type="line"/>
      <point x="40" y="31"/>
      <point x="32" y="-10"/>
      <point x="32" y="-54" type="curve" smooth="yes"/>
      <point x="32" y="-145"/>
      <point x="84" y="-250"/>
    </contour>
  </outline>
</glyph>
<glyph name="las-georgian" format="2">
  <advance width="746"/>
  <unicode hex="10DA"/>
  <note>
uni10DA
</note>
  <outline>
    <contour>
      <point x="468" y="-250" type="curve"/>
      <point x="535" y="-226" type="line"/>
      <point x="503" y="-140"/>
      <point x="421" y="-81"/>
      <point x="332" y="-45" type="curve" smooth="yes"/>
      <point x="219" y="1"/>
      <point x="124" y="83"/>
      <point x="124" y="301" type="curve" smooth="yes"/>
      <point x="124" y="413"/>
      <point x="142" y="476"/>
      <point x="188" y="476" type="curve" smooth="yes"/>
      <point x="225" y="476"/>
      <point x="241" y="428"/>
      <point x="241" y="322" type="curve" smooth="yes"/>
      <point x="241" y="182" type="line"/>
      <point x="319" y="182" type="line"/>
      <point x="319" y="322" type="line" smooth="yes"/>
      <point x="319" y="429"/>
      <point x="335" y="476"/>
      <point x="373" y="476" type="curve" smooth="yes"/>
      <point x="411" y="476"/>
      <point x="427" y="429"/>
      <point x="427" y="322" type="curve" smooth="yes"/>
      <point x="427" y="182" type="line"/>
      <point x="505" y="182" type="line"/>
      <point x="505" y="322" type="line" smooth="yes"/>
      <point x="505" y="428"/>
      <point x="521" y="476"/>
      <point x="558" y="476" type="curve" smooth="yes"/>
      <point x="604" y="476"/>
      <point x="622" y="413"/>
      <point x="622" y="277" type="curve" smooth="yes"/>
      <point x="622" y="206"/>
      <point x="614" y="137"/>
      <point x="587" y="68" type="curve"/>
      <point x="659" y="47" type="line"/>
      <point x="691" y="124"/>
      <point x="704" y="197"/>
      <point x="704" y="277" type="curve" smooth="yes"/>
      <point x="704" y="450"/>
      <point x="656" y="547"/>
      <point x="569" y="547" type="curve" smooth="yes"/>
      <point x="515" y="547"/>
      <point x="481" y="514"/>
      <point x="467" y="456" type="curve"/>
      <point x="465" y="456" type="line"/>
      <point x="451" y="514"/>
      <point x="416" y="547"/>
      <point x="373" y="547" type="curve" smooth="yes"/>
      <point x="330" y="547"/>
      <point x="295" y="514"/>
      <point x="281" y="456" type="curve"/>
      <point x="279" y="456" type="line"/>
      <point x="265" y="514"/>
      <point x="231" y="547"/>
      <point x="177" y="547" type="curve" smooth="yes"/>
      <point x="90" y="547"/>
      <point x="42" y="450"/>
      <point x="42" y="301" type="curve" smooth="yes"/>
      <point x="42" y="116"/>
      <point x="124" y="-9"/>
      <point x="233" y="-56" type="curve"/>
      <point x="233" y="-59" type="line"/>
      <point x="201" y="-61"/>
      <point x="159" y="-77"/>
      <point x="135" y="-94" type="curve"/>
      <point x="159" y="-144" type="line"/>
      <point x="188" y="-124"/>
      <point x="234" y="-110"/>
      <point x="279" y="-110" type="curve" smooth="yes"/>
      <point x="353" y="-110"/>
      <point x="434" y="-166"/>
    </contour>
  </outline>
</glyph>
<glyph name="man-georgian" format="2">
  <advance width="458"/>
  <unicode hex="10DB"/>
  <note>
uni10DB
</note>
  <outline>
    <contour>
      <point x="223" y="-10" type="curve" smooth="yes"/>
      <point x="334" y="-10"/>
      <point x="398" y="77"/>
      <point x="398" y="266" type="curve" smooth="yes"/>
      <point x="398" y="597" type="line" smooth="yes"/>
      <point x="398" y="711"/>
      <point x="327" y="770"/>
      <point x="231" y="770" type="curve" smooth="yes"/>
      <point x="137" y="770"/>
      <point x="67" y="718"/>
      <point x="67" y="640" type="curve" smooth="yes"/>
      <point x="67" y="625"/>
      <point x="70" y="611"/>
      <point x="75" y="594" type="curve"/>
      <point x="151" y="594" type="line"/>
      <point x="149" y="605"/>
      <point x="148" y="616"/>
      <point x="148" y="625" type="curve" smooth="yes"/>
      <point x="148" y="681"/>
      <point x="180" y="705"/>
      <point x="230" y="705" type="curve" smooth="yes"/>
      <point x="287" y="705"/>
      <point x="317" y="667"/>
      <point x="317" y="597" type="curve" smooth="yes"/>
      <point x="317" y="538" type="line" smooth="yes"/>
      <point x="317" y="517"/>
      <point x="318" y="494"/>
      <point x="320" y="464" type="curve"/>
      <point x="316" y="464" type="line"/>
      <point x="289" y="515"/>
      <point x="245" y="537"/>
      <point x="196" y="537" type="curve" smooth="yes"/>
      <point x="97" y="537"/>
      <point x="42" y="443"/>
      <point x="42" y="268" type="curve" smooth="yes"/>
      <point x="42" y="103"/>
      <point x="100" y="-10"/>
    </contour>
    <contour>
      <point x="222" y="61" type="curve" smooth="yes"/>
      <point x="154" y="61"/>
      <point x="125" y="136"/>
      <point x="125" y="267" type="curve" smooth="yes"/>
      <point x="125" y="398"/>
      <point x="153" y="471"/>
      <point x="216" y="471" type="curve" smooth="yes"/>
      <point x="286" y="471"/>
      <point x="317" y="410"/>
      <point x="317" y="286" type="curve" smooth="yes"/>
      <point x="317" y="259" type="line" smooth="yes"/>
      <point x="317" y="132"/>
      <point x="287" y="61"/>
    </contour>
  </outline>
</glyph>
<glyph name="on-georgian" format="2">
  <advance width="571"/>
  <unicode hex="10DD"/>
  <note>
uni10DD
</note>
  <anchor x="286" y="537" name="top"/>
  <outline>
    <contour>
      <point x="94" y="0" type="curve"/>
      <point x="170" y="0" type="line"/>
      <point x="139" y="86"/>
      <point x="124" y="178"/>
      <point x="124" y="276" type="curve" smooth="yes"/>
      <point x="124" y="413"/>
      <point x="142" y="476"/>
      <point x="193" y="476" type="curve" smooth="yes"/>
      <point x="230" y="476"/>
      <point x="246" y="428"/>
      <point x="246" y="322" type="curve" smooth="yes"/>
      <point x="246" y="182" type="line"/>
      <point x="324" y="182" type="line"/>
      <point x="324" y="322" type="line" smooth="yes"/>
      <point x="324" y="429"/>
      <point x="340" y="476"/>
      <point x="378" y="476" type="curve" smooth="yes"/>
      <point x="428" y="476"/>
      <point x="447" y="412"/>
      <point x="447" y="277" type="curve" smooth="yes"/>
      <point x="447" y="182"/>
      <point x="432" y="87"/>
      <point x="401" y="0" type="curve"/>
      <point x="477" y="0" type="line"/>
      <point x="513" y="92"/>
      <point x="529" y="180"/>
      <point x="529" y="277" type="curve" smooth="yes"/>
      <point x="529" y="450"/>
      <point x="478" y="547"/>
      <point x="386" y="547" type="curve" smooth="yes"/>
      <point x="335" y="547"/>
      <point x="300" y="514"/>
      <point x="286" y="456" type="curve"/>
      <point x="284" y="456" type="line"/>
      <point x="270" y="514"/>
      <point x="236" y="547"/>
      <point x="182" y="547" type="curve" smooth="yes"/>
      <point x="90" y="547"/>
      <point x="42" y="450"/>
      <point x="42" y="277" type="curve" smooth="yes"/>
      <point x="42" y="179"/>
      <point x="57" y="95"/>
    </contour>
  </outline>
</glyph>
<glyph name="par-georgian" format="2">
  <advance width="423"/>
  <unicode hex="10DE"/>
  <note>
uni10DE
</note>
  <outline>
    <contour>
      <point x="209" y="-10" type="curve" smooth="yes"/>
      <point x="315" y="-10"/>
      <point x="381" y="65"/>
      <point x="381" y="221" type="curve" smooth="yes"/>
      <point x="381" y="344"/>
      <point x="323" y="408"/>
      <point x="251" y="423" type="curve"/>
      <point x="251" y="427" type="line"/>
      <point x="323" y="444"/>
      <point x="361" y="477"/>
      <point x="361" y="537" type="curve" smooth="yes"/>
      <point x="361" y="599"/>
      <point x="330" y="636"/>
      <point x="296" y="666" type="curve" smooth="yes"/>
      <point x="263" y="696"/>
      <point x="237" y="720"/>
      <point x="237" y="760" type="curve"/>
      <point x="156" y="760" type="line"/>
      <point x="156" y="694"/>
      <point x="192" y="663"/>
      <point x="229" y="631" type="curve" smooth="yes"/>
      <point x="256" y="607"/>
      <point x="278" y="581"/>
      <point x="278" y="537" type="curve" smooth="yes"/>
      <point x="278" y="492"/>
      <point x="250" y="459"/>
      <point x="186" y="459" type="curve" smooth="yes"/>
      <point x="157" y="459" type="line"/>
      <point x="157" y="386" type="line"/>
      <point x="189" y="386" type="line" smooth="yes"/>
      <point x="252" y="386"/>
      <point x="298" y="334"/>
      <point x="298" y="221" type="curve" smooth="yes"/>
      <point x="298" y="107"/>
      <point x="268" y="61"/>
      <point x="209" y="61" type="curve" smooth="yes"/>
      <point x="152" y="61"/>
      <point x="118" y="102"/>
      <point x="118" y="170" type="curve" smooth="yes"/>
      <point x="118" y="205"/>
      <point x="121" y="230"/>
      <point x="129" y="263" type="curve"/>
      <point x="53" y="263" type="line"/>
      <point x="42" y="227"/>
      <point x="37" y="203"/>
      <point x="37" y="165" type="curve" smooth="yes"/>
      <point x="37" y="52"/>
      <point x="109" y="-10"/>
    </contour>
  </outline>
</glyph>
<glyph name="zhar-georgian" format="2">
  <advance width="489"/>
  <unicode hex="10DF"/>
  <note>
uni10DF
</note>
  <outline>
    <contour>
      <point x="253" y="-250" type="curve" smooth="yes"/>
      <point x="362" y="-250"/>
      <point x="424" y="-169"/>
      <point x="424" y="-30" type="curve" smooth="yes"/>
      <point x="424" y="537" type="line"/>
      <point x="363" y="537" type="line"/>
      <point x="304" y="502"/>
      <point x="229" y="475"/>
      <point x="144" y="462" type="curve"/>
      <point x="144" y="404" type="line"/>
      <point x="176" y="393"/>
      <point x="206" y="365"/>
      <point x="206" y="307" type="curve" smooth="yes"/>
      <point x="206" y="264"/>
      <point x="192" y="231"/>
      <point x="157" y="231" type="curve" smooth="yes"/>
      <point x="122" y="231"/>
      <point x="105" y="258"/>
      <point x="105" y="296" type="curve" smooth="yes"/>
      <point x="105" y="310"/>
      <point x="107" y="321"/>
      <point x="109" y="332" type="curve"/>
      <point x="42" y="332" type="line"/>
      <point x="38" y="319"/>
      <point x="36" y="305"/>
      <point x="36" y="289" type="curve" smooth="yes"/>
      <point x="36" y="222"/>
      <point x="82" y="172"/>
      <point x="157" y="172" type="curve" smooth="yes"/>
      <point x="228" y="172"/>
      <point x="277" y="226"/>
      <point x="277" y="302" type="curve" smooth="yes"/>
      <point x="277" y="361"/>
      <point x="243" y="401"/>
      <point x="208" y="418" type="curve"/>
      <point x="208" y="421" type="line"/>
      <point x="259" y="429"/>
      <point x="309" y="448"/>
      <point x="344" y="468" type="curve"/>
      <point x="344" y="-24" type="line" smooth="yes"/>
      <point x="344" y="-121"/>
      <point x="315" y="-179"/>
      <point x="252" y="-179" type="curve" smooth="yes"/>
      <point x="182" y="-179"/>
      <point x="161" y="-107"/>
      <point x="161" y="-56" type="curve" smooth="yes"/>
      <point x="161" y="-15"/>
      <point x="168" y="20"/>
      <point x="175" y="44" type="curve"/>
      <point x="101" y="44" type="line"/>
      <point x="88" y="14"/>
      <point x="80" y="-12"/>
      <point x="80" y="-59" type="curve" smooth="yes"/>
      <point x="80" y="-137"/>
      <point x="128" y="-250"/>
    </contour>
  </outline>
</glyph>
<glyph name="rae-georgian" format="2">
  <advance width="571"/>
  <unicode hex="10E0"/>
  <note>
uni10E0
</note>
  <outline>
    <contour>
      <point x="94" y="0" type="curve"/>
      <point x="170" y="0" type="line"/>
      <point x="139" y="86"/>
      <point x="124" y="178"/>
      <point x="124" y="276" type="curve" smooth="yes"/>
      <point x="124" y="413"/>
      <point x="142" y="476"/>
      <point x="193" y="476" type="curve" smooth="yes"/>
      <point x="230" y="476"/>
      <point x="246" y="428"/>
      <point x="246" y="322" type="curve" smooth="yes"/>
      <point x="246" y="182" type="line"/>
      <point x="324" y="182" type="line"/>
      <point x="324" y="322" type="line" smooth="yes"/>
      <point x="324" y="429"/>
      <point x="340" y="476"/>
      <point x="378" y="476" type="curve" smooth="yes"/>
      <point x="428" y="476"/>
      <point x="447" y="412"/>
      <point x="447" y="277" type="curve" smooth="yes"/>
      <point x="447" y="182"/>
      <point x="432" y="87"/>
      <point x="401" y="0" type="curve"/>
      <point x="477" y="0" type="line"/>
      <point x="513" y="92"/>
      <point x="529" y="180"/>
      <point x="529" y="277" type="curve" smooth="yes"/>
      <point x="529" y="450"/>
      <point x="478" y="547"/>
      <point x="386" y="547" type="curve" smooth="yes"/>
      <point x="335" y="547"/>
      <point x="300" y="514"/>
      <point x="286" y="456" type="curve"/>
      <point x="284" y="456" type="line"/>
      <point x="270" y="514"/>
      <point x="236" y="547"/>
      <point x="192" y="547" type="curve" smooth="yes"/>
      <point x="167" y="547"/>
      <point x="138" y="539"/>
      <point x="116" y="498" type="curve"/>
      <point x="114" y="498" type="line"/>
      <point x="136" y="596"/>
      <point x="168" y="639"/>
      <point x="237" y="664" type="curve" smooth="yes"/>
      <point x="275" y="678"/>
      <point x="338" y="689"/>
      <point x="402" y="700" type="curve"/>
      <point x="390" y="770" type="line"/>
      <point x="313" y="757"/>
      <point x="253" y="745"/>
      <point x="210" y="729" type="curve" smooth="yes"/>
      <point x="72" y="678"/>
      <point x="42" y="520"/>
      <point x="42" y="342" type="curve"/>
      <point x="42" y="285" type="line"/>
      <point x="42" y="179"/>
      <point x="57" y="95"/>
    </contour>
  </outline>
</glyph>
<glyph name="san-georgian" format="2">
  <advance width="458"/>
  <unicode hex="10E1"/>
  <note>
uni10E1
</note>
  <outline>
    <contour>
      <point x="238" y="-10" type="curve" smooth="yes"/>
      <point x="358" y="-10"/>
      <point x="416" y="93"/>
      <point x="416" y="216" type="curve" smooth="yes"/>
      <point x="416" y="283"/>
      <point x="400" y="333"/>
      <point x="377" y="377" type="curve" smooth="yes"/>
      <point x="350" y="429"/>
      <point x="328" y="476"/>
      <point x="328" y="537" type="curve"/>
      <point x="247" y="537" type="line"/>
      <point x="247" y="454"/>
      <point x="273" y="405"/>
      <point x="300" y="353" type="curve" smooth="yes"/>
      <point x="320" y="315"/>
      <point x="333" y="276"/>
      <point x="333" y="216" type="curve" smooth="yes"/>
      <point x="333" y="126"/>
      <point x="304" y="61"/>
      <point x="239" y="61" type="curve" smooth="yes"/>
      <point x="171" y="61"/>
      <point x="141" y="126"/>
      <point x="141" y="239" type="curve" smooth="yes"/>
      <point x="141" y="760" type="line"/>
      <point x="60" y="760" type="line"/>
      <point x="60" y="239" type="line" smooth="yes"/>
      <point x="60" y="70"/>
      <point x="124" y="-10"/>
    </contour>
  </outline>
</glyph>
<glyph name="tar-georgian" format="2">
  <advance width="551"/>
  <unicode hex="10E2"/>
  <note>
uni10E2
</note>
  <outline>
    <contour>
      <point x="276" y="-249" type="curve" smooth="yes"/>
      <point x="448" y="-249"/>
      <point x="509" y="-92"/>
      <point x="509" y="162" type="curve" smooth="yes"/>
      <point x="509" y="381"/>
      <point x="452" y="522"/>
      <point x="310" y="540" type="curve"/>
      <point x="313" y="565"/>
      <point x="315" y="590"/>
      <point x="315" y="615" type="curve"/>
      <point x="315" y="660" type="line"/>
      <point x="236" y="660" type="line"/>
      <point x="236" y="613" type="line"/>
      <point x="236" y="589"/>
      <point x="238" y="564"/>
      <point x="240" y="540" type="curve"/>
      <point x="108" y="522"/>
      <point x="42" y="398"/>
      <point x="42" y="162" type="curve" smooth="yes"/>
      <point x="42" y="-87"/>
      <point x="105" y="-249"/>
    </contour>
    <contour>
      <point x="276" y="-176" type="curve" smooth="yes"/>
      <point x="177" y="-176"/>
      <point x="125" y="-70"/>
      <point x="125" y="162" type="curve" smooth="yes"/>
      <point x="125" y="352"/>
      <point x="162" y="456"/>
      <point x="240" y="470" type="curve"/>
      <point x="238" y="442"/>
      <point x="236" y="415"/>
      <point x="236" y="387" type="curve"/>
      <point x="236" y="182" type="line"/>
      <point x="315" y="182" type="line"/>
      <point x="315" y="387" type="line"/>
      <point x="315" y="415"/>
      <point x="313" y="443"/>
      <point x="310" y="471" type="curve"/>
      <point x="388" y="456"/>
      <point x="426" y="354"/>
      <point x="426" y="162" type="curve" smooth="yes"/>
      <point x="426" y="-75"/>
      <point x="378" y="-176"/>
    </contour>
  </outline>
</glyph>
<glyph name="un-georgian" format="2">
  <advance width="481"/>
  <unicode hex="10E3"/>
  <note>
uni10E3
</note>
  <anchor x="231" y="537" name="top"/>
  <outline>
    <contour>
      <point x="241" y="-250" type="curve" smooth="yes"/>
      <point x="359" y="-250"/>
      <point x="421" y="-173"/>
      <point x="421" y="-34" type="curve" smooth="yes"/>
      <point x="421" y="375" type="line" smooth="yes"/>
      <point x="421" y="477"/>
      <point x="378" y="547"/>
      <point x="287" y="547" type="curve" smooth="yes"/>
      <point x="223" y="547"/>
      <point x="187" y="512"/>
      <point x="172" y="461" type="curve"/>
      <point x="170" y="461" type="line"/>
      <point x="156" y="512"/>
      <point x="129" y="542"/>
      <point x="67" y="542" type="curve" smooth="yes"/>
      <point x="20" y="542" type="line"/>
      <point x="20" y="471" type="line"/>
      <point x="60" y="471" type="line" smooth="yes"/>
      <point x="115" y="471"/>
      <point x="133" y="433"/>
      <point x="133" y="375" type="curve" smooth="yes"/>
      <point x="133" y="238" type="line"/>
      <point x="211" y="238" type="line"/>
      <point x="211" y="375" type="line" smooth="yes"/>
      <point x="211" y="433"/>
      <point x="227" y="476"/>
      <point x="276" y="476" type="curve" smooth="yes"/>
      <point x="324" y="476"/>
      <point x="340" y="433"/>
      <point x="340" y="369" type="curve" smooth="yes"/>
      <point x="340" y="-24" type="line" smooth="yes"/>
      <point x="340" y="-121"/>
      <point x="312" y="-179"/>
      <point x="240" y="-179" type="curve" smooth="yes"/>
      <point x="159" y="-179"/>
      <point x="138" y="-107"/>
      <point x="138" y="-41" type="curve" smooth="yes"/>
      <point x="138" y="25"/>
      <point x="150" y="62"/>
      <point x="155" y="79" type="curve"/>
      <point x="81" y="79" type="line"/>
      <point x="70" y="56"/>
      <point x="57" y="15"/>
      <point x="57" y="-44" type="curve" smooth="yes"/>
      <point x="57" y="-137"/>
      <point x="105" y="-250"/>
    </contour>
  </outline>
</glyph>
<glyph name="phar-georgian" format="2">
  <advance width="616"/>
  <unicode hex="10E4"/>
  <note>
uni10E4
</note>
  <outline>
    <contour>
      <point x="353" y="-250" type="curve" smooth="yes"/>
      <point x="482" y="-250"/>
      <point x="554" y="-168"/>
      <point x="554" y="-39" type="curve" smooth="yes"/>
      <point x="554" y="54"/>
      <point x="524" y="108"/>
      <point x="468" y="128" type="curve"/>
      <point x="468" y="132" type="line"/>
      <point x="551" y="160"/>
      <point x="574" y="243"/>
      <point x="574" y="332" type="curve" smooth="yes"/>
      <point x="574" y="450"/>
      <point x="523" y="547"/>
      <point x="431" y="547" type="curve" smooth="yes"/>
      <point x="380" y="547"/>
      <point x="334" y="514"/>
      <point x="318" y="441" type="curve"/>
      <point x="315" y="441" type="line"/>
      <point x="298" y="514"/>
      <point x="251" y="547"/>
      <point x="198" y="547" type="curve" smooth="yes"/>
      <point x="91" y="547"/>
      <point x="42" y="450"/>
      <point x="42" y="299" type="curve" smooth="yes"/>
      <point x="42" y="157"/>
      <point x="94" y="50"/>
      <point x="199" y="50" type="curve" smooth="yes"/>
      <point x="310" y="50"/>
      <point x="359" y="158"/>
      <point x="359" y="299" type="curve" smooth="yes"/>
      <point x="359" y="327" type="line" smooth="yes"/>
      <point x="359" y="440"/>
      <point x="380" y="476"/>
      <point x="423" y="476" type="curve" smooth="yes"/>
      <point x="473" y="476"/>
      <point x="493" y="412"/>
      <point x="493" y="332" type="curve" smooth="yes"/>
      <point x="493" y="244"/>
      <point x="473" y="169"/>
      <point x="409" y="169" type="curve" smooth="yes"/>
      <point x="390" y="169" type="line"/>
      <point x="390" y="96" type="line"/>
      <point x="402" y="96" type="line" smooth="yes"/>
      <point x="447" y="96"/>
      <point x="471" y="44"/>
      <point x="471" y="-39" type="curve" smooth="yes"/>
      <point x="471" y="-126"/>
      <point x="435" y="-179"/>
      <point x="352" y="-179" type="curve" smooth="yes"/>
      <point x="286" y="-179"/>
      <point x="243" y="-140"/>
      <point x="243" y="-72" type="curve" smooth="yes"/>
      <point x="243" y="-63"/>
      <point x="244" y="-54"/>
      <point x="245" y="-44" type="curve"/>
      <point x="167" y="-44" type="line"/>
      <point x="164" y="-56"/>
      <point x="162" y="-68"/>
      <point x="162" y="-80" type="curve" smooth="yes"/>
      <point x="162" y="-175"/>
      <point x="232" y="-250"/>
    </contour>
    <contour>
      <point x="201" y="121" type="curve" smooth="yes"/>
      <point x="145" y="121"/>
      <point x="123" y="188"/>
      <point x="123" y="299" type="curve" smooth="yes"/>
      <point x="123" y="411"/>
      <point x="144" y="476"/>
      <point x="201" y="476" type="curve" smooth="yes"/>
      <point x="256" y="476"/>
      <point x="279" y="411"/>
      <point x="279" y="299" type="curve" smooth="yes"/>
      <point x="279" y="186"/>
      <point x="256" y="121"/>
    </contour>
  </outline>
</glyph>
<glyph name="ghan-georgian" format="2">
  <advance width="571"/>
  <unicode hex="10E6"/>
  <note>
uni10E6
</note>
  <outline>
    <contour>
      <point x="361" y="-250" type="curve"/>
      <point x="426" y="-226" type="line"/>
      <point x="397" y="-139"/>
      <point x="355" y="-96"/>
      <point x="275" y="-48" type="curve" smooth="yes"/>
      <point x="189" y="4"/>
      <point x="124" y="83"/>
      <point x="124" y="271" type="curve" smooth="yes"/>
      <point x="124" y="413"/>
      <point x="142" y="476"/>
      <point x="193" y="476" type="curve" smooth="yes"/>
      <point x="230" y="476"/>
      <point x="246" y="428"/>
      <point x="246" y="322" type="curve" smooth="yes"/>
      <point x="246" y="182" type="line"/>
      <point x="324" y="182" type="line"/>
      <point x="324" y="322" type="line" smooth="yes"/>
      <point x="324" y="429"/>
      <point x="340" y="476"/>
      <point x="378" y="476" type="curve" smooth="yes"/>
      <point x="428" y="476"/>
      <point x="447" y="412"/>
      <point x="447" y="277" type="curve" smooth="yes"/>
      <point x="447" y="206"/>
      <point x="439" y="137"/>
      <point x="412" y="68" type="curve"/>
      <point x="484" y="47" type="line"/>
      <point x="516" y="124"/>
      <point x="529" y="197"/>
      <point x="529" y="277" type="curve" smooth="yes"/>
      <point x="529" y="450"/>
      <point x="478" y="547"/>
      <point x="386" y="547" type="curve" smooth="yes"/>
      <point x="335" y="547"/>
      <point x="300" y="514"/>
      <point x="286" y="456" type="curve"/>
      <point x="284" y="456" type="line"/>
      <point x="270" y="514"/>
      <point x="236" y="547"/>
      <point x="182" y="547" type="curve" smooth="yes"/>
      <point x="90" y="547"/>
      <point x="42" y="450"/>
      <point x="42" y="271" type="curve" smooth="yes"/>
      <point x="42" y="116"/>
      <point x="95" y="-6"/>
      <point x="196" y="-66" type="curve"/>
      <point x="196" y="-69" type="line"/>
      <point x="164" y="-71"/>
      <point x="130" y="-82"/>
      <point x="109" y="-95" type="curve"/>
      <point x="133" y="-145" type="line"/>
      <point x="164" y="-128"/>
      <point x="193" y="-120"/>
      <point x="221" y="-120" type="curve" smooth="yes"/>
      <point x="283" y="-120"/>
      <point x="334" y="-164"/>
    </contour>
  </outline>
</glyph>
<glyph name="qar-georgian" format="2">
  <advance width="448"/>
  <unicode hex="10E7"/>
  <note>
uni10E7
</note>
  <outline>
    <contour>
      <point x="217" y="-250" type="curve" smooth="yes"/>
      <point x="326" y="-250"/>
      <point x="388" y="-163"/>
      <point x="388" y="-24" type="curve" smooth="yes"/>
      <point x="388" y="537" type="line"/>
      <point x="309" y="537" type="line"/>
      <point x="309" y="398" type="line" smooth="yes"/>
      <point x="309" y="252"/>
      <point x="266" y="199"/>
      <point x="212" y="199" type="curve" smooth="yes"/>
      <point x="146" y="199"/>
      <point x="123" y="263"/>
      <point x="123" y="357" type="curve" smooth="yes"/>
      <point x="123" y="421"/>
      <point x="133" y="475"/>
      <point x="150" y="537" type="curve"/>
      <point x="73" y="537" type="line"/>
      <point x="53" y="480"/>
      <point x="42" y="420"/>
      <point x="42" y="350" type="curve" smooth="yes"/>
      <point x="42" y="215"/>
      <point x="93" y="131"/>
      <point x="186" y="131" type="curve" smooth="yes"/>
      <point x="240" y="131"/>
      <point x="284" y="157"/>
      <point x="308" y="220" type="curve"/>
      <point x="312" y="220" type="line"/>
      <point x="309" y="170"/>
      <point x="308" y="133"/>
      <point x="308" y="92" type="curve" smooth="yes"/>
      <point x="308" y="-24" type="line" smooth="yes"/>
      <point x="308" y="-121"/>
      <point x="279" y="-179"/>
      <point x="216" y="-179" type="curve" smooth="yes"/>
      <point x="146" y="-179"/>
      <point x="125" y="-107"/>
      <point x="125" y="-56" type="curve" smooth="yes"/>
      <point x="125" y="-15"/>
      <point x="132" y="20"/>
      <point x="139" y="44" type="curve"/>
      <point x="65" y="44" type="line"/>
      <point x="52" y="14"/>
      <point x="44" y="-12"/>
      <point x="44" y="-59" type="curve" smooth="yes"/>
      <point x="44" y="-137"/>
      <point x="92" y="-250"/>
    </contour>
  </outline>
</glyph>
<glyph name="shin-georgian" format="2">
  <advance width="458"/>
  <unicode hex="10E8"/>
  <note>
uni10E8
</note>
  <outline>
    <contour>
      <point x="223" y="-10" type="curve" smooth="yes"/>
      <point x="334" y="-10"/>
      <point x="398" y="77"/>
      <point x="398" y="256" type="curve" smooth="yes"/>
      <point x="398" y="621" type="line" smooth="yes"/>
      <point x="398" y="735"/>
      <point x="334" y="770"/>
      <point x="275" y="770" type="curve" smooth="yes"/>
      <point x="236" y="770"/>
      <point x="197" y="757"/>
      <point x="180" y="712" type="curve"/>
      <point x="177" y="712" type="line"/>
      <point x="162" y="757"/>
      <point x="132" y="770"/>
      <point x="98" y="770" type="curve" smooth="yes"/>
      <point x="71" y="770"/>
      <point x="49" y="765"/>
      <point x="25" y="752" type="curve"/>
      <point x="46" y="689" type="line"/>
      <point x="64" y="696"/>
      <point x="75" y="699"/>
      <point x="90" y="699" type="curve" smooth="yes"/>
      <point x="125" y="699"/>
      <point x="139" y="670"/>
      <point x="139" y="634" type="curve" smooth="yes"/>
      <point x="139" y="584" type="line"/>
      <point x="218" y="584" type="line"/>
      <point x="218" y="640" type="line" smooth="yes"/>
      <point x="218" y="686"/>
      <point x="242" y="705"/>
      <point x="267" y="705" type="curve" smooth="yes"/>
      <point x="294" y="705"/>
      <point x="317" y="687"/>
      <point x="317" y="617" type="curve" smooth="yes"/>
      <point x="317" y="518" type="line" smooth="yes"/>
      <point x="317" y="497"/>
      <point x="318" y="474"/>
      <point x="320" y="444" type="curve"/>
      <point x="316" y="444" type="line"/>
      <point x="289" y="495"/>
      <point x="245" y="517"/>
      <point x="196" y="517" type="curve" smooth="yes"/>
      <point x="97" y="517"/>
      <point x="42" y="423"/>
      <point x="42" y="258" type="curve" smooth="yes"/>
      <point x="42" y="103"/>
      <point x="100" y="-10"/>
    </contour>
    <contour>
      <point x="222" y="61" type="curve" smooth="yes"/>
      <point x="154" y="61"/>
      <point x="125" y="136"/>
      <point x="125" y="257" type="curve" smooth="yes"/>
      <point x="125" y="378"/>
      <point x="153" y="451"/>
      <point x="216" y="451" type="curve" smooth="yes"/>
      <point x="286" y="451"/>
      <point x="317" y="390"/>
      <point x="317" y="276" type="curve" smooth="yes"/>
      <point x="317" y="249" type="line" smooth="yes"/>
      <point x="317" y="132"/>
      <point x="287" y="61"/>
    </contour>
  </outline>
</glyph>
<glyph name="chin-georgian" format="2">
  <advance width="451"/>
  <unicode hex="10E9"/>
  <note>
uni10E9
</note>
  <outline>
    <contour>
      <point x="60" y="0" type="line"/>
      <point x="139" y="0" type="line"/>
      <point x="139" y="279" type="line" smooth="yes"/>
      <point x="139" y="416"/>
      <point x="182" y="469"/>
      <point x="240" y="469" type="curve" smooth="yes"/>
      <point x="303" y="469"/>
      <point x="333" y="403"/>
      <point x="333" y="269" type="curve" smooth="yes"/>
      <point x="333" y="170"/>
      <point x="318" y="63"/>
      <point x="298" y="0" type="curve"/>
      <point x="378" y="0" type="line"/>
      <point x="398" y="63"/>
      <point x="414" y="171"/>
      <point x="414" y="275" type="curve" smooth="yes"/>
      <point x="414" y="429"/>
      <point x="372" y="512"/>
      <point x="296" y="530" type="curve"/>
      <point x="296" y="533" type="line"/>
      <point x="334" y="560"/>
      <point x="350" y="600"/>
      <point x="350" y="639" type="curve" smooth="yes"/>
      <point x="350" y="715"/>
      <point x="297" y="770"/>
      <point x="206" y="770" type="curve" smooth="yes"/>
      <point x="119" y="770"/>
      <point x="60" y="709"/>
      <point x="60" y="625" type="curve" smooth="yes"/>
    </contour>
    <contour>
      <point x="136" y="452" type="line"/>
      <point x="139" y="498"/>
      <point x="139" y="522"/>
      <point x="139" y="536" type="curve" smooth="yes"/>
      <point x="139" y="616" type="line" smooth="yes"/>
      <point x="139" y="659"/>
      <point x="157" y="701"/>
      <point x="207" y="701" type="curve" smooth="yes"/>
      <point x="248" y="701"/>
      <point x="269" y="676"/>
      <point x="269" y="634" type="curve" smooth="yes"/>
      <point x="269" y="587"/>
      <point x="253" y="559"/>
      <point x="203" y="525" type="curve" smooth="yes"/>
      <point x="171" y="504"/>
      <point x="152" y="483"/>
      <point x="139" y="452" type="curve"/>
    </contour>
  </outline>
</glyph>
<glyph name="can-georgian" format="2">
  <advance width="487"/>
  <unicode hex="10EA"/>
  <note>
uni10EA
</note>
  <outline>
    <contour>
      <point x="258" y="-250" type="curve" smooth="yes"/>
      <point x="378" y="-250"/>
      <point x="450" y="-168"/>
      <point x="450" y="-8" type="curve" smooth="yes"/>
      <point x="450" y="121"/>
      <point x="400" y="183"/>
      <point x="328" y="198" type="curve"/>
      <point x="328" y="202" type="line"/>
      <point x="400" y="219"/>
      <point x="438" y="254"/>
      <point x="438" y="324" type="curve" smooth="yes"/>
      <point x="438" y="376"/>
      <point x="417" y="406"/>
      <point x="395" y="434" type="curve" smooth="yes"/>
      <point x="370" y="465"/>
      <point x="348" y="491"/>
      <point x="348" y="537" type="curve"/>
      <point x="267" y="537" type="line"/>
      <point x="267" y="477"/>
      <point x="293" y="443"/>
      <point x="319" y="411" type="curve" smooth="yes"/>
      <point x="339" y="387"/>
      <point x="355" y="360"/>
      <point x="355" y="314" type="curve" smooth="yes"/>
      <point x="355" y="269"/>
      <point x="327" y="236"/>
      <point x="263" y="236" type="curve" smooth="yes"/>
      <point x="234" y="236" type="line"/>
      <point x="234" y="163" type="line"/>
      <point x="261" y="163" type="line" smooth="yes"/>
      <point x="329" y="163"/>
      <point x="367" y="111"/>
      <point x="367" y="-8" type="curve" smooth="yes"/>
      <point x="367" y="-131"/>
      <point x="327" y="-182"/>
      <point x="259" y="-182" type="curve" smooth="yes"/>
      <point x="164" y="-182"/>
      <point x="125" y="-73"/>
      <point x="125" y="160" type="curve" smooth="yes"/>
      <point x="125" y="300"/>
      <point x="144" y="418"/>
      <point x="187" y="537" type="curve"/>
      <point x="108" y="537" type="line"/>
      <point x="65" y="427"/>
      <point x="42" y="304"/>
      <point x="42" y="160" type="curve" smooth="yes"/>
      <point x="42" y="-127"/>
      <point x="117" y="-250"/>
    </contour>
  </outline>
</glyph>
<glyph name="jil-georgian" format="2">
  <advance width="458"/>
  <unicode hex="10EB"/>
  <note>
uni10EB
</note>
  <outline>
    <contour>
      <point x="223" y="-10" type="curve" smooth="yes"/>
      <point x="334" y="-10"/>
      <point x="398" y="77"/>
      <point x="398" y="266" type="curve" smooth="yes"/>
      <point x="398" y="760" type="line"/>
      <point x="317" y="760" type="line"/>
      <point x="317" y="542" type="line" smooth="yes"/>
      <point x="317" y="521"/>
      <point x="318" y="498"/>
      <point x="320" y="468" type="curve"/>
      <point x="316" y="468" type="line"/>
      <point x="289" y="519"/>
      <point x="245" y="547"/>
      <point x="196" y="547" type="curve" smooth="yes"/>
      <point x="97" y="547"/>
      <point x="42" y="447"/>
      <point x="42" y="268" type="curve" smooth="yes"/>
      <point x="42" y="103"/>
      <point x="100" y="-10"/>
    </contour>
    <contour>
      <point x="222" y="61" type="curve" smooth="yes"/>
      <point x="154" y="61"/>
      <point x="125" y="136"/>
      <point x="125" y="267" type="curve" smooth="yes"/>
      <point x="125" y="402"/>
      <point x="153" y="475"/>
      <point x="216" y="475" type="curve" smooth="yes"/>
      <point x="286" y="475"/>
      <point x="317" y="412"/>
      <point x="317" y="274" type="curve" smooth="yes"/>
      <point x="317" y="259" type="line" smooth="yes"/>
      <point x="317" y="132"/>
      <point x="287" y="61"/>
    </contour>
  </outline>
</glyph>
<glyph name="cil-georgian" format="2">
  <advance width="458"/>
  <unicode hex="10EC"/>
  <note>
uni10EC
</note>
  <outline>
    <contour>
      <point x="235" y="-10" type="curve" smooth="yes"/>
      <point x="358" y="-10"/>
      <point x="416" y="103"/>
      <point x="416" y="258" type="curve" smooth="yes"/>
      <point x="416" y="423"/>
      <point x="361" y="517"/>
      <point x="262" y="517" type="curve" smooth="yes"/>
      <point x="213" y="517"/>
      <point x="169" y="495"/>
      <point x="142" y="444" type="curve"/>
      <point x="138" y="444" type="line"/>
      <point x="140" y="474"/>
      <point x="141" y="497"/>
      <point x="141" y="518" type="curve" smooth="yes"/>
      <point x="141" y="617" type="line" smooth="yes"/>
      <point x="141" y="687"/>
      <point x="164" y="705"/>
      <point x="191" y="705" type="curve" smooth="yes"/>
      <point x="216" y="705"/>
      <point x="240" y="686"/>
      <point x="240" y="640" type="curve" smooth="yes"/>
      <point x="240" y="584" type="line"/>
      <point x="319" y="584" type="line"/>
      <point x="319" y="634" type="line" smooth="yes"/>
      <point x="319" y="670"/>
      <point x="333" y="699"/>
      <point x="368" y="699" type="curve" smooth="yes"/>
      <point x="383" y="699"/>
      <point x="394" y="696"/>
      <point x="412" y="689" type="curve"/>
      <point x="433" y="752" type="line"/>
      <point x="409" y="765"/>
      <point x="387" y="770"/>
      <point x="360" y="770" type="curve" smooth="yes"/>
      <point x="326" y="770"/>
      <point x="296" y="757"/>
      <point x="281" y="712" type="curve"/>
      <point x="278" y="712" type="line"/>
      <point x="261" y="757"/>
      <point x="222" y="770"/>
      <point x="183" y="770" type="curve" smooth="yes"/>
      <point x="124" y="770"/>
      <point x="60" y="735"/>
      <point x="60" y="621" type="curve" smooth="yes"/>
      <point x="60" y="256" type="line" smooth="yes"/>
      <point x="60" y="77"/>
      <point x="124" y="-10"/>
    </contour>
    <contour>
      <point x="236" y="61" type="curve" smooth="yes"/>
      <point x="171" y="61"/>
      <point x="141" y="132"/>
      <point x="141" y="249" type="curve" smooth="yes"/>
      <point x="141" y="276" type="line" smooth="yes"/>
      <point x="141" y="390"/>
      <point x="172" y="451"/>
      <point x="242" y="451" type="curve" smooth="yes"/>
      <point x="305" y="451"/>
      <point x="333" y="378"/>
      <point x="333" y="257" type="curve" smooth="yes"/>
      <point x="333" y="136"/>
      <point x="304" y="61"/>
    </contour>
  </outline>
</glyph>
<glyph name="char-georgian" format="2">
  <advance width="462"/>
  <unicode hex="10ED"/>
  <note>
uni10ED
</note>
  <outline>
    <contour>
      <point x="244" y="-250" type="curve" smooth="yes"/>
      <point x="358" y="-250"/>
      <point x="420" y="-163"/>
      <point x="420" y="-40" type="curve" smooth="yes"/>
      <point x="420" y="46"/>
      <point x="398" y="102"/>
      <point x="372" y="158" type="curve" smooth="yes"/>
      <point x="347" y="212"/>
      <point x="327" y="266"/>
      <point x="327" y="347" type="curve" smooth="yes"/>
      <point x="327" y="466" type="line"/>
      <point x="406" y="466" type="line"/>
      <point x="406" y="537" type="line"/>
      <point x="327" y="537" type="line"/>
      <point x="327" y="760" type="line"/>
      <point x="247" y="760" type="line"/>
      <point x="247" y="537" type="line"/>
      <point x="184" y="537" type="line" smooth="yes"/>
      <point x="97" y="537"/>
      <point x="37" y="483"/>
      <point x="37" y="391" type="curve" smooth="yes"/>
      <point x="37" y="302"/>
      <point x="97" y="248"/>
      <point x="166" y="248" type="curve" smooth="yes"/>
      <point x="205" y="248"/>
      <point x="236" y="270"/>
      <point x="252" y="292" type="curve"/>
      <point x="255" y="292" type="line"/>
      <point x="258" y="225"/>
      <point x="275" y="186"/>
      <point x="295" y="140" type="curve" smooth="yes"/>
      <point x="318" y="88"/>
      <point x="337" y="38"/>
      <point x="337" y="-34" type="curve" smooth="yes"/>
      <point x="337" y="-121"/>
      <point x="311" y="-179"/>
      <point x="243" y="-179" type="curve" smooth="yes"/>
      <point x="168" y="-179"/>
      <point x="147" y="-107"/>
      <point x="147" y="-41" type="curve" smooth="yes"/>
      <point x="147" y="25"/>
      <point x="159" y="62"/>
      <point x="164" y="79" type="curve"/>
      <point x="90" y="79" type="line"/>
      <point x="79" y="56"/>
      <point x="66" y="15"/>
      <point x="66" y="-44" type="curve" smooth="yes"/>
      <point x="66" y="-137"/>
      <point x="114" y="-250"/>
    </contour>
    <contour>
      <point x="180" y="316" type="curve" smooth="yes"/>
      <point x="146" y="316"/>
      <point x="118" y="343"/>
      <point x="118" y="391" type="curve" smooth="yes"/>
      <point x="118" y="444"/>
      <point x="148" y="466"/>
      <point x="193" y="466" type="curve" smooth="yes"/>
      <point x="247" y="466" type="line"/>
      <point x="247" y="402" type="line" smooth="yes"/>
      <point x="247" y="346"/>
      <point x="223" y="316"/>
    </contour>
  </outline>
</glyph>
<glyph name="xan-georgian" format="2">
  <advance width="458"/>
  <unicode hex="10EE"/>
  <note>
uni10EE
</note>
  <outline>
    <contour>
      <point x="235" y="-10" type="curve" smooth="yes"/>
      <point x="358" y="-10"/>
      <point x="416" y="103"/>
      <point x="416" y="268" type="curve" smooth="yes"/>
      <point x="416" y="447"/>
      <point x="361" y="547"/>
      <point x="262" y="547" type="curve" smooth="yes"/>
      <point x="213" y="547"/>
      <point x="169" y="519"/>
      <point x="142" y="468" type="curve"/>
      <point x="138" y="468" type="line"/>
      <point x="140" y="498"/>
      <point x="141" y="521"/>
      <point x="141" y="542" type="curve" smooth="yes"/>
      <point x="141" y="760" type="line"/>
      <point x="60" y="760" type="line"/>
      <point x="60" y="266" type="line" smooth="yes"/>
      <point x="60" y="77"/>
      <point x="124" y="-10"/>
    </contour>
    <contour>
      <point x="236" y="61" type="curve" smooth="yes"/>
      <point x="171" y="61"/>
      <point x="141" y="132"/>
      <point x="141" y="259" type="curve" smooth="yes"/>
      <point x="141" y="274" type="line" smooth="yes"/>
      <point x="141" y="412"/>
      <point x="172" y="475"/>
      <point x="242" y="475" type="curve" smooth="yes"/>
      <point x="305" y="475"/>
      <point x="333" y="402"/>
      <point x="333" y="267" type="curve" smooth="yes"/>
      <point x="333" y="136"/>
      <point x="304" y="61"/>
    </contour>
  </outline>
</glyph>
<glyph name="jhan-georgian" format="2">
  <advance width="420"/>
  <unicode hex="10EF"/>
  <note>
uni10EF
</note>
  <outline>
    <contour>
      <point x="251" y="295" type="curve" smooth="yes"/>
      <point x="251" y="328" type="line"/>
      <point x="373" y="293" type="line"/>
      <point x="373" y="364" type="line"/>
      <point x="251" y="399" type="line"/>
      <point x="251" y="547" type="line"/>
      <point x="172" y="547" type="line"/>
      <point x="172" y="422" type="line"/>
      <point x="47" y="458" type="line"/>
      <point x="47" y="387" type="line"/>
      <point x="172" y="351" type="line"/>
      <point x="172" y="299" type="line" smooth="yes"/>
      <point x="172" y="196"/>
      <point x="206" y="147"/>
      <point x="245" y="93" type="curve" smooth="yes"/>
      <point x="275" y="52"/>
      <point x="300" y="10"/>
      <point x="300" y="-58" type="curve" smooth="yes"/>
      <point x="300" y="-125"/>
      <point x="272" y="-179"/>
      <point x="209" y="-179" type="curve" smooth="yes"/>
      <point x="139" y="-179"/>
      <point x="118" y="-107"/>
      <point x="118" y="-56" type="curve" smooth="yes"/>
      <point x="118" y="-15"/>
      <point x="125" y="20"/>
      <point x="132" y="44" type="curve"/>
      <point x="58" y="44" type="line"/>
      <point x="45" y="14"/>
      <point x="37" y="-12"/>
      <point x="37" y="-59" type="curve" smooth="yes"/>
      <point x="37" y="-137"/>
      <point x="85" y="-250"/>
      <point x="210" y="-250" type="curve" smooth="yes"/>
      <point x="319" y="-250"/>
      <point x="383" y="-167"/>
      <point x="383" y="-58" type="curve" smooth="yes"/>
      <point x="383" y="24"/>
      <point x="352" y="75"/>
      <point x="319" y="122" type="curve" smooth="yes"/>
      <point x="281" y="175"/>
      <point x="251" y="218"/>
    </contour>
  </outline>
</glyph>
<glyph name="hae-georgian" format="2">
  <advance width="422"/>
  <unicode hex="10F0"/>
  <note>
uni10F0
</note>
  <outline>
    <contour>
      <point x="208" y="-10" type="curve" smooth="yes"/>
      <point x="323" y="-10"/>
      <point x="380" y="65"/>
      <point x="380" y="167" type="curve" smooth="yes"/>
      <point x="380" y="243"/>
      <point x="342" y="294"/>
      <point x="270" y="309" type="curve"/>
      <point x="270" y="313" type="line"/>
      <point x="342" y="326"/>
      <point x="372" y="349"/>
      <point x="372" y="404" type="curve" smooth="yes"/>
      <point x="372" y="452"/>
      <point x="342" y="490"/>
      <point x="270" y="501" type="curve"/>
      <point x="270" y="505" type="line"/>
      <point x="342" y="522"/>
      <point x="360" y="545"/>
      <point x="360" y="589" type="curve" smooth="yes"/>
      <point x="360" y="639"/>
      <point x="325" y="667"/>
      <point x="293" y="689" type="curve" smooth="yes"/>
      <point x="261" y="711"/>
      <point x="236" y="729"/>
      <point x="236" y="760" type="curve"/>
      <point x="155" y="760" type="line"/>
      <point x="155" y="698"/>
      <point x="195" y="672"/>
      <point x="230" y="648" type="curve" smooth="yes"/>
      <point x="255" y="631"/>
      <point x="277" y="613"/>
      <point x="277" y="582" type="curve" smooth="yes"/>
      <point x="277" y="554"/>
      <point x="259" y="537"/>
      <point x="205" y="537" type="curve" smooth="yes"/>
      <point x="176" y="537" type="line"/>
      <point x="176" y="464" type="line"/>
      <point x="208" y="464" type="line" smooth="yes"/>
      <point x="269" y="464"/>
      <point x="289" y="436"/>
      <point x="289" y="404" type="curve" smooth="yes"/>
      <point x="289" y="369"/>
      <point x="269" y="348"/>
      <point x="205" y="348" type="curve" smooth="yes"/>
      <point x="176" y="348" type="line"/>
      <point x="176" y="275" type="line"/>
      <point x="201" y="275" type="line" smooth="yes"/>
      <point x="257" y="275"/>
      <point x="297" y="240"/>
      <point x="297" y="167" type="curve" smooth="yes"/>
      <point x="297" y="107"/>
      <point x="267" y="61"/>
      <point x="208" y="61" type="curve" smooth="yes"/>
      <point x="137" y="61"/>
      <point x="116" y="117"/>
      <point x="116" y="171" type="curve" smooth="yes"/>
      <point x="116" y="188"/>
      <point x="118" y="204"/>
      <point x="121" y="219" type="curve"/>
      <point x="44" y="219" type="line"/>
      <point x="38" y="198"/>
      <point x="35" y="177"/>
      <point x="35" y="156" type="curve" smooth="yes"/>
      <point x="35" y="68"/>
      <point x="90" y="-10"/>
    </contour>
  </outline>
</glyph>
<glyph name="he-georgian" format="2">
  <advance width="492"/>
  <unicode hex="10F1"/>
  <note>
uni10F1
</note>
  <outline>
    <contour>
      <point x="268" y="-10" type="curve" smooth="yes"/>
      <point x="383" y="-10"/>
      <point x="450" y="64"/>
      <point x="450" y="167" type="curve" smooth="yes"/>
      <point x="450" y="243"/>
      <point x="412" y="294"/>
      <point x="340" y="309" type="curve"/>
      <point x="340" y="313" type="line"/>
      <point x="412" y="326"/>
      <point x="442" y="349"/>
      <point x="442" y="404" type="curve" smooth="yes"/>
      <point x="442" y="452"/>
      <point x="412" y="490"/>
      <point x="340" y="501" type="curve"/>
      <point x="340" y="505" type="line"/>
      <point x="403" y="516"/>
      <point x="430" y="545"/>
      <point x="430" y="592" type="curve" smooth="yes"/>
      <point x="430" y="640"/>
      <point x="406" y="667"/>
      <point x="382" y="689" type="curve" smooth="yes"/>
      <point x="360" y="709"/>
      <point x="341" y="729"/>
      <point x="341" y="760" type="curve"/>
      <point x="260" y="760" type="line"/>
      <point x="260" y="702"/>
      <point x="287" y="676"/>
      <point x="311" y="653" type="curve" smooth="yes"/>
      <point x="331" y="634"/>
      <point x="347" y="618"/>
      <point x="347" y="589" type="curve" smooth="yes"/>
      <point x="347" y="554"/>
      <point x="329" y="537"/>
      <point x="275" y="537" type="curve" smooth="yes"/>
      <point x="246" y="537" type="line"/>
      <point x="246" y="464" type="line"/>
      <point x="278" y="464" type="line" smooth="yes"/>
      <point x="339" y="464"/>
      <point x="359" y="436"/>
      <point x="359" y="404" type="curve" smooth="yes"/>
      <point x="359" y="369"/>
      <point x="339" y="348"/>
      <point x="275" y="348" type="curve" smooth="yes"/>
      <point x="246" y="348" type="line"/>
      <point x="246" y="275" type="line"/>
      <point x="271" y="275" type="line" smooth="yes"/>
      <point x="327" y="275"/>
      <point x="367" y="240"/>
      <point x="367" y="167" type="curve" smooth="yes"/>
      <point x="367" y="101"/>
      <point x="332" y="58"/>
      <point x="269" y="58" type="curve" smooth="yes"/>
      <point x="164" y="58"/>
      <point x="125" y="167"/>
      <point x="125" y="393" type="curve" smooth="yes"/>
      <point x="125" y="523"/>
      <point x="144" y="641"/>
      <point x="187" y="760" type="curve"/>
      <point x="108" y="760" type="line"/>
      <point x="65" y="650"/>
      <point x="42" y="527"/>
      <point x="42" y="393" type="curve" smooth="yes"/>
      <point x="42" y="113"/>
      <point x="117" y="-10"/>
    </contour>
  </outline>
</glyph>
<glyph name="hie-georgian" format="2">
  <advance width="442"/>
  <unicode hex="10F2"/>
  <note>
uni10F2
</note>
  <outline>
    <contour>
      <point x="52" y="0" type="line"/>
      <point x="109" y="0"/>
      <point x="168" y="22"/>
      <point x="221" y="62" type="curve"/>
      <point x="274" y="22"/>
      <point x="333" y="0"/>
      <point x="390" y="0" type="curve"/>
      <point x="390" y="71" type="line"/>
      <point x="357" y="71"/>
      <point x="321" y="78"/>
      <point x="276" y="99" type="curve"/>
      <point x="276" y="102" type="line"/>
      <point x="356" y="160"/>
      <point x="400" y="245"/>
      <point x="400" y="357" type="curve" smooth="yes"/>
      <point x="400" y="470"/>
      <point x="331" y="547"/>
      <point x="221" y="547" type="curve" smooth="yes"/>
      <point x="111" y="547"/>
      <point x="42" y="470"/>
      <point x="42" y="357" type="curve" smooth="yes"/>
      <point x="42" y="245"/>
      <point x="86" y="160"/>
      <point x="166" y="102" type="curve"/>
      <point x="166" y="99" type="line"/>
      <point x="121" y="77"/>
      <point x="85" y="71"/>
      <point x="52" y="71" type="curve"/>
    </contour>
    <contour>
      <point x="221" y="133" type="curve"/>
      <point x="166" y="184"/>
      <point x="124" y="247"/>
      <point x="124" y="356" type="curve" smooth="yes"/>
      <point x="124" y="432"/>
      <point x="166" y="476"/>
      <point x="221" y="476" type="curve" smooth="yes"/>
      <point x="276" y="476"/>
      <point x="318" y="432"/>
      <point x="318" y="356" type="curve" smooth="yes"/>
      <point x="318" y="247"/>
      <point x="276" y="184"/>
    </contour>
  </outline>
</glyph>
<glyph name="we-georgian" format="2">
  <advance width="428"/>
  <unicode hex="10F3"/>
  <note>
uni10F3
</note>
  <outline>
    <contour>
      <point x="210" y="-250" type="curve" smooth="yes"/>
      <point x="319" y="-250"/>
      <point x="391" y="-168"/>
      <point x="391" y="-19" type="curve" smooth="yes"/>
      <point x="391" y="147"/>
      <point x="322" y="215"/>
      <point x="240" y="224" type="curve"/>
      <point x="375" y="480" type="line"/>
      <point x="375" y="537" type="line"/>
      <point x="73" y="537" type="line"/>
      <point x="73" y="467" type="line"/>
      <point x="286" y="467" type="line"/>
      <point x="157" y="219" type="line"/>
      <point x="157" y="159" type="line"/>
      <point x="190" y="159" type="line" smooth="yes"/>
      <point x="262" y="159"/>
      <point x="308" y="109"/>
      <point x="308" y="-19" type="curve" smooth="yes"/>
      <point x="308" y="-126"/>
      <point x="272" y="-179"/>
      <point x="209" y="-179" type="curve" smooth="yes"/>
      <point x="139" y="-179"/>
      <point x="118" y="-107"/>
      <point x="118" y="-51" type="curve" smooth="yes"/>
      <point x="118" y="-3"/>
      <point x="125" y="33"/>
      <point x="132" y="56" type="curve"/>
      <point x="58" y="56" type="line"/>
      <point x="47" y="30"/>
      <point x="37" y="-11"/>
      <point x="37" y="-54" type="curve" smooth="yes"/>
      <point x="37" y="-137"/>
      <point x="85" y="-250"/>
    </contour>
  </outline>
</glyph>
<glyph name="har-georgian" format="2">
  <advance width="418"/>
  <unicode hex="10F4"/>
  <note>
uni10F4
</note>
  <outline>
    <contour>
      <point x="209" y="-250" type="curve" smooth="yes"/>
      <point x="315" y="-250"/>
      <point x="381" y="-175"/>
      <point x="381" y="-19" type="curve" smooth="yes"/>
      <point x="381" y="104"/>
      <point x="323" y="168"/>
      <point x="251" y="183" type="curve"/>
      <point x="251" y="187" type="line"/>
      <point x="323" y="204"/>
      <point x="361" y="248"/>
      <point x="361" y="327" type="curve" smooth="yes"/>
      <point x="361" y="429"/>
      <point x="303" y="481"/>
      <point x="249" y="522" type="curve" smooth="yes"/>
      <point x="203" y="557"/>
      <point x="166" y="587"/>
      <point x="166" y="642" type="curve" smooth="yes"/>
      <point x="166" y="686"/>
      <point x="193" y="702"/>
      <point x="223" y="702" type="curve" smooth="yes"/>
      <point x="251" y="702"/>
      <point x="277" y="695"/>
      <point x="311" y="677" type="curve"/>
      <point x="338" y="738" type="line"/>
      <point x="302" y="758"/>
      <point x="265" y="770"/>
      <point x="219" y="770" type="curve" smooth="yes"/>
      <point x="143" y="770"/>
      <point x="85" y="725"/>
      <point x="85" y="648" type="curve" smooth="yes"/>
      <point x="85" y="557"/>
      <point x="140" y="515"/>
      <point x="191" y="474" type="curve" smooth="yes"/>
      <point x="236" y="438"/>
      <point x="278" y="398"/>
      <point x="278" y="327" type="curve" smooth="yes"/>
      <point x="278" y="259"/>
      <point x="250" y="219"/>
      <point x="186" y="219" type="curve" smooth="yes"/>
      <point x="157" y="219" type="line"/>
      <point x="157" y="146" type="line"/>
      <point x="189" y="146" type="line" smooth="yes"/>
      <point x="252" y="146"/>
      <point x="298" y="94"/>
      <point x="298" y="-19" type="curve" smooth="yes"/>
      <point x="298" y="-133"/>
      <point x="268" y="-179"/>
      <point x="209" y="-179" type="curve" smooth="yes"/>
      <point x="152" y="-179"/>
      <point x="118" y="-138"/>
      <point x="118" y="-70" type="curve" smooth="yes"/>
      <point x="118" y="-35"/>
      <point x="121" y="-10"/>
      <point x="129" y="23" type="curve"/>
      <point x="53" y="23" type="line"/>
      <point x="42" y="-13"/>
      <point x="37" y="-37"/>
      <point x="37" y="-75" type="curve" smooth="yes"/>
      <point x="37" y="-188"/>
      <point x="109" y="-250"/>
    </contour>
  </outline>
</glyph>
<glyph name="hoe-georgian" format="2">
  <advance width="458"/>
  <unicode hex="10F5"/>
  <note>
uni10F5
</note>
  <outline>
    <contour>
      <point x="201" y="-10" type="curve" smooth="yes"/>
      <point x="304" y="-10"/>
      <point x="361" y="54"/>
      <point x="361" y="166" type="curve" smooth="yes"/>
      <point x="361" y="259" type="line"/>
      <point x="433" y="259" type="line"/>
      <point x="433" y="324" type="line"/>
      <point x="361" y="324" type="line"/>
      <point x="361" y="448" type="line"/>
      <point x="433" y="448" type="line"/>
      <point x="433" y="513" type="line"/>
      <point x="361" y="513" type="line"/>
      <point x="361" y="592" type="line" smooth="yes"/>
      <point x="361" y="706"/>
      <point x="298" y="770"/>
      <point x="201" y="770" type="curve" smooth="yes"/>
      <point x="105" y="770"/>
      <point x="45" y="713"/>
      <point x="45" y="609" type="curve" smooth="yes"/>
      <point x="45" y="502"/>
      <point x="105" y="448"/>
      <point x="218" y="448" type="curve" smooth="yes"/>
      <point x="282" y="448" type="line"/>
      <point x="282" y="324" type="line"/>
      <point x="218" y="324" type="line" smooth="yes"/>
      <point x="106" y="324"/>
      <point x="42" y="266"/>
      <point x="42" y="160" type="curve" smooth="yes"/>
      <point x="42" y="47"/>
      <point x="103" y="-10"/>
    </contour>
    <contour>
      <point x="200" y="56" type="curve" smooth="yes"/>
      <point x="147" y="56"/>
      <point x="122" y="96"/>
      <point x="122" y="160" type="curve" smooth="yes"/>
      <point x="122" y="221"/>
      <point x="152" y="259"/>
      <point x="218" y="259" type="curve" smooth="yes"/>
      <point x="283" y="259" type="line"/>
      <point x="283" y="176" type="line" smooth="yes"/>
      <point x="283" y="102"/>
      <point x="256" y="56"/>
    </contour>
    <contour>
      <point x="218" y="513" type="line" smooth="yes"/>
      <point x="151" y="513"/>
      <point x="125" y="550"/>
      <point x="125" y="609" type="curve" smooth="yes"/>
      <point x="125" y="666"/>
      <point x="149" y="704"/>
      <point x="201" y="704" type="curve" smooth="yes"/>
      <point x="254" y="704"/>
      <point x="283" y="664"/>
      <point x="283" y="588" type="curve" smooth="yes"/>
      <point x="283" y="513" type="line"/>
    </contour>
  </outline>
</glyph>
<glyph name="fi-georgian" format="2">
  <advance width="683"/>
  <unicode hex="10F6"/>
  <note>
uni10F6
</note>
  <outline>
    <contour>
      <point x="283" y="-250" type="curve" smooth="yes"/>
      <point x="351" y="-250"/>
      <point x="382" y="-209"/>
      <point x="382" y="-112" type="curve" smooth="yes"/>
      <point x="382" y="-8" type="line" smooth="yes"/>
      <point x="382" y="23"/>
      <point x="381" y="52"/>
      <point x="378" y="88" type="curve"/>
      <point x="382" y="88" type="line"/>
      <point x="396" y="34"/>
      <point x="436" y="-10"/>
      <point x="497" y="-10" type="curve" smooth="yes"/>
      <point x="589" y="-10"/>
      <point x="641" y="91"/>
      <point x="641" y="272" type="curve" smooth="yes"/>
      <point x="641" y="448"/>
      <point x="590" y="547"/>
      <point x="495" y="547" type="curve" smooth="yes"/>
      <point x="432" y="547"/>
      <point x="398" y="502"/>
      <point x="381" y="451" type="curve"/>
      <point x="376" y="451" type="line"/>
      <point x="381" y="480"/>
      <point x="382" y="507"/>
      <point x="382" y="537" type="curve" smooth="yes"/>
      <point x="382" y="627" type="line" smooth="yes"/>
      <point x="382" y="680"/>
      <point x="396" y="697"/>
      <point x="433" y="697" type="curve" smooth="yes"/>
      <point x="446" y="697"/>
      <point x="460" y="694"/>
      <point x="474" y="689" type="curve"/>
      <point x="474" y="761" type="line"/>
      <point x="462" y="766"/>
      <point x="439" y="770"/>
      <point x="420" y="770" type="curve" smooth="yes"/>
      <point x="347" y="770"/>
      <point x="301" y="725"/>
      <point x="301" y="629" type="curve" smooth="yes"/>
      <point x="301" y="537" type="line" smooth="yes"/>
      <point x="301" y="508"/>
      <point x="303" y="480"/>
      <point x="307" y="451" type="curve"/>
      <point x="302" y="451" type="line"/>
      <point x="285" y="502"/>
      <point x="251" y="547"/>
      <point x="188" y="547" type="curve" smooth="yes"/>
      <point x="93" y="547"/>
      <point x="42" y="448"/>
      <point x="42" y="272" type="curve" smooth="yes"/>
      <point x="42" y="91"/>
      <point x="94" y="-10"/>
      <point x="186" y="-10" type="curve" smooth="yes"/>
      <point x="247" y="-10"/>
      <point x="287" y="34"/>
      <point x="301" y="88" type="curve"/>
      <point x="305" y="88" type="line"/>
      <point x="302" y="52"/>
      <point x="301" y="23"/>
      <point x="301" y="-8" type="curve" smooth="yes"/>
      <point x="301" y="-112" type="line" smooth="yes"/>
      <point x="301" y="-160"/>
      <point x="290" y="-177"/>
      <point x="262" y="-177" type="curve" smooth="yes"/>
      <point x="244" y="-177"/>
      <point x="221" y="-171"/>
      <point x="211" y="-165" type="curve"/>
      <point x="211" y="-234" type="line"/>
      <point x="231" y="-244"/>
      <point x="256" y="-250"/>
    </contour>
    <contour>
      <point x="209" y="59" type="curve" smooth="yes"/>
      <point x="151" y="59"/>
      <point x="122" y="133"/>
      <point x="122" y="272" type="curve" smooth="yes"/>
      <point x="122" y="407"/>
      <point x="150" y="479"/>
      <point x="210" y="479" type="curve" smooth="yes"/>
      <point x="268" y="479"/>
      <point x="301" y="413"/>
      <point x="301" y="299" type="curve" smooth="yes"/>
      <point x="301" y="239" type="line" smooth="yes"/>
      <point x="301" y="115"/>
      <point x="264" y="59"/>
    </contour>
    <contour>
      <point x="474" y="59" type="curve" smooth="yes"/>
      <point x="419" y="59"/>
      <point x="382" y="115"/>
      <point x="382" y="239" type="curve" smooth="yes"/>
      <point x="382" y="299" type="line" smooth="yes"/>
      <point x="382" y="413"/>
      <point x="415" y="479"/>
      <point x="473" y="479" type="curve" smooth="yes"/>
      <point x="533" y="479"/>
      <point x="561" y="407"/>
      <point x="561" y="272" type="curve" smooth="yes"/>
      <point x="561" y="133"/>
      <point x="532" y="59"/>
    </contour>
  </outline>
</glyph>
<glyph name="yn-georgian" format="2">
  <advance width="404"/>
  <unicode hex="10F7"/>
  <note>
uni10F7
</note>
  <anchor x="202" y="537" name="top"/>
  <outline>
    <contour>
      <point x="203" y="-250" type="curve" smooth="yes"/>
      <point x="300" y="-250"/>
      <point x="367" y="-180"/>
      <point x="367" y="-54" type="curve" smooth="yes"/>
      <point x="367" y="-31"/>
      <point x="364" y="-6"/>
      <point x="360" y="13" type="curve"/>
      <point x="278" y="13" type="line"/>
      <point x="284" y="-8"/>
      <point x="286" y="-28"/>
      <point x="286" y="-51" type="curve" smooth="yes"/>
      <point x="286" y="-138"/>
      <point x="253" y="-182"/>
      <point x="201" y="-182" type="curve" smooth="yes"/>
      <point x="154" y="-182"/>
      <point x="119" y="-140"/>
      <point x="119" y="-55" type="curve" smooth="yes"/>
      <point x="119" y="45"/>
      <point x="160" y="98"/>
      <point x="225" y="149" type="curve" smooth="yes"/>
      <point x="315" y="220"/>
      <point x="359" y="276"/>
      <point x="359" y="385" type="curve" smooth="yes"/>
      <point x="359" y="481"/>
      <point x="308" y="547"/>
      <point x="208" y="547" type="curve" smooth="yes"/>
      <point x="110" y="547"/>
      <point x="54" y="479"/>
      <point x="54" y="386" type="curve" smooth="yes"/>
      <point x="54" y="368"/>
      <point x="56" y="351"/>
      <point x="58" y="340" type="curve"/>
      <point x="139" y="340" type="line"/>
      <point x="136" y="350"/>
      <point x="135" y="365"/>
      <point x="135" y="385" type="curve" smooth="yes"/>
      <point x="135" y="439"/>
      <point x="162" y="480"/>
      <point x="207" y="480" type="curve" smooth="yes"/>
      <point x="251" y="480"/>
      <point x="279" y="444"/>
      <point x="279" y="383" type="curve" smooth="yes"/>
      <point x="279" y="297"/>
      <point x="240" y="262"/>
      <point x="170" y="206" type="curve" smooth="yes"/>
      <point x="100" y="150"/>
      <point x="37" y="80"/>
      <point x="37" y="-53" type="curve" smooth="yes"/>
      <point x="37" y="-182"/>
      <point x="109" y="-250"/>
    </contour>
  </outline>
</glyph>
<glyph name="elifi-georgian" format="2">
  <advance width="448"/>
  <unicode hex="10F8"/>
  <note>
uni10F8
</note>
  <outline>
    <contour>
      <point x="231" y="-250" type="curve" smooth="yes"/>
      <point x="356" y="-250"/>
      <point x="404" y="-137"/>
      <point x="404" y="-59" type="curve" smooth="yes"/>
      <point x="404" y="-12"/>
      <point x="396" y="14"/>
      <point x="383" y="44" type="curve"/>
      <point x="309" y="44" type="line"/>
      <point x="316" y="20"/>
      <point x="323" y="-15"/>
      <point x="323" y="-56" type="curve" smooth="yes"/>
      <point x="323" y="-107"/>
      <point x="302" y="-179"/>
      <point x="232" y="-179" type="curve" smooth="yes"/>
      <point x="169" y="-179"/>
      <point x="140" y="-121"/>
      <point x="140" y="-24" type="curve" smooth="yes"/>
      <point x="140" y="92" type="line" smooth="yes"/>
      <point x="140" y="133"/>
      <point x="139" y="170"/>
      <point x="136" y="220" type="curve"/>
      <point x="140" y="220" type="line"/>
      <point x="164" y="157"/>
      <point x="208" y="131"/>
      <point x="262" y="131" type="curve" smooth="yes"/>
      <point x="355" y="131"/>
      <point x="406" y="215"/>
      <point x="406" y="350" type="curve" smooth="yes"/>
      <point x="406" y="420"/>
      <point x="395" y="480"/>
      <point x="375" y="537" type="curve"/>
      <point x="298" y="537" type="line"/>
      <point x="315" y="475"/>
      <point x="325" y="421"/>
      <point x="325" y="357" type="curve" smooth="yes"/>
      <point x="325" y="263"/>
      <point x="302" y="199"/>
      <point x="236" y="199" type="curve" smooth="yes"/>
      <point x="182" y="199"/>
      <point x="139" y="252"/>
      <point x="139" y="398" type="curve" smooth="yes"/>
      <point x="139" y="537" type="line"/>
      <point x="60" y="537" type="line"/>
      <point x="60" y="-24" type="line" smooth="yes"/>
      <point x="60" y="-163"/>
      <point x="122" y="-250"/>
    </contour>
  </outline>
</glyph>
<glyph name="turnedgan-georgian" format="2">
  <advance width="445"/>
  <unicode hex="10F9"/>
  <note>
uni10F9
</note>
  <outline>
    <contour>
      <point x="224" y="547" type="curve" smooth="yes"/>
      <point x="99" y="547"/>
      <point x="42" y="436"/>
      <point x="42" y="278" type="curve" smooth="yes"/>
      <point x="42" y="162"/>
      <point x="69" y="67"/>
      <point x="154" y="33" type="curve"/>
      <point x="154" y="30" type="line"/>
      <point x="101" y="3"/>
      <point x="85" y="-50"/>
      <point x="85" y="-100" type="curve" smooth="yes"/>
      <point x="85" y="-190"/>
      <point x="138" y="-250"/>
      <point x="224" y="-250" type="curve" smooth="yes"/>
      <point x="304" y="-250"/>
      <point x="362" y="-200"/>
      <point x="362" y="-117" type="curve" smooth="yes"/>
      <point x="362" y="-94"/>
      <point x="359" y="-79"/>
      <point x="353" y="-62" type="curve"/>
      <point x="277" y="-62" type="line"/>
      <point x="281" y="-79"/>
      <point x="283" y="-92"/>
      <point x="283" y="-112" type="curve" smooth="yes"/>
      <point x="283" y="-160"/>
      <point x="262" y="-186"/>
      <point x="224" y="-186" type="curve" smooth="yes"/>
      <point x="183" y="-186"/>
      <point x="165" y="-149"/>
      <point x="165" y="-104" type="curve" smooth="yes"/>
      <point x="165" y="-48"/>
      <point x="176" y="-2"/>
      <point x="240" y="11" type="curve" smooth="yes"/>
      <point x="346" y="32"/>
      <point x="403" y="111"/>
      <point x="403" y="278" type="curve" smooth="yes"/>
      <point x="403" y="436"/>
      <point x="343" y="547"/>
    </contour>
    <contour>
      <point x="222" y="476" type="curve" smooth="yes"/>
      <point x="290" y="476"/>
      <point x="320" y="405"/>
      <point x="320" y="278" type="curve" smooth="yes"/>
      <point x="320" y="150"/>
      <point x="291" y="81"/>
      <point x="222" y="81" type="curve" smooth="yes"/>
      <point x="155" y="81"/>
      <point x="124" y="150"/>
      <point x="124" y="278" type="curve" smooth="yes"/>
      <point x="124" y="407"/>
      <point x="155" y="476"/>
    </contour>
  </outline>
</glyph>
<glyph name="ain-georgian" format="2">
  <advance width="350"/>
  <unicode hex="10FA"/>
  <note>
uni10FA
</note>
  <outline>
    <contour>
      <point x="94" y="-87" type="line"/>
      <point x="319" y="15" type="line"/>
      <point x="319" y="86" type="line"/>
      <point x="288" y="70"/>
      <point x="258" y="61"/>
      <point x="229" y="61" type="curve" smooth="yes"/>
      <point x="160" y="61"/>
      <point x="125" y="129"/>
      <point x="125" y="266" type="curve" smooth="yes"/>
      <point x="125" y="405"/>
      <point x="160" y="475"/>
      <point x="228" y="475" type="curve" smooth="yes"/>
      <point x="251" y="475"/>
      <point x="275" y="468"/>
      <point x="300" y="455" type="curve"/>
      <point x="325" y="522" type="line"/>
      <point x="297" y="538"/>
      <point x="264" y="547"/>
      <point x="222" y="547" type="curve" smooth="yes"/>
      <point x="100" y="547"/>
      <point x="42" y="441"/>
      <point x="42" y="265" type="curve" smooth="yes"/>
      <point x="42" y="129"/>
      <point x="79" y="43"/>
      <point x="153" y="11" type="curve"/>
      <point x="153" y="9" type="line"/>
      <point x="94" y="-18" type="line"/>
    </contour>
  </outline>
</glyph>
<glyph name="paragraph-georgian" format="2">
  <advance width="389"/>
  <unicode hex="10FB"/>
  <note>
uni10FB
</note>
  <outline>
    <contour>
      <point x="300" y="209" type="curve" smooth="yes"/>
      <point x="332" y="209"/>
      <point x="348" y="231"/>
      <point x="348" y="268" type="curve" smooth="yes"/>
      <point x="348" y="305"/>
      <point x="332" y="327"/>
      <point x="300" y="327" type="curve" smooth="yes"/>
      <point x="267" y="327"/>
      <point x="251" y="306"/>
      <point x="251" y="268" type="curve" smooth="yes"/>
      <point x="251" y="230"/>
      <point x="268" y="209"/>
    </contour>
    <contour>
      <point x="93" y="-13" type="curve" smooth="yes"/>
      <point x="125" y="-13"/>
      <point x="142" y="10"/>
      <point x="142" y="46" type="curve" smooth="yes"/>
      <point x="142" y="84"/>
      <point x="126" y="105"/>
      <point x="93" y="105" type="curve" smooth="yes"/>
      <point x="61" y="105"/>
      <point x="45" y="83"/>
      <point x="45" y="46" type="curve" smooth="yes"/>
      <point x="45" y="10"/>
      <point x="62" y="-13"/>
    </contour>
    <contour>
      <point x="93" y="428" type="curve" smooth="yes"/>
      <point x="125" y="428"/>
      <point x="142" y="450"/>
      <point x="142" y="487" type="curve" smooth="yes"/>
      <point x="142" y="523"/>
      <point x="126" y="546"/>
      <point x="93" y="546" type="curve" smooth="yes"/>
      <point x="61" y="546"/>
      <point x="45" y="525"/>
      <point x="45" y="487" type="curve" smooth="yes"/>
      <point x="45" y="450"/>
      <point x="62" y="428"/>
    </contour>
  </outline>
</glyph>
<glyph name="narMod-georgian" format="2">
  <advance width="296"/>
  <unicode hex="10FC"/>
  <note>
uni10FC
</note>
  <outline>
    <contour>
      <point x="151" y="405" type="curve" smooth="yes"/>
      <point x="226" y="405"/>
      <point x="266" y="466"/>
      <point x="266" y="565" type="curve" smooth="yes"/>
      <point x="266" y="664"/>
      <point x="234" y="721"/>
      <point x="177" y="721" type="curve" smooth="yes"/>
      <point x="149" y="721"/>
      <point x="125" y="706"/>
      <point x="109" y="678" type="curve"/>
      <point x="106" y="678" type="line"/>
      <point x="108" y="699"/>
      <point x="109" y="711"/>
      <point x="109" y="723" type="curve" smooth="yes"/>
      <point x="109" y="742" type="line" smooth="yes"/>
      <point x="109" y="772"/>
      <point x="127" y="786"/>
      <point x="155" y="786" type="curve" smooth="yes"/>
      <point x="240" y="786" type="line"/>
      <point x="240" y="843" type="line"/>
      <point x="146" y="843" type="line" smooth="yes"/>
      <point x="88" y="843"/>
      <point x="40" y="811"/>
      <point x="40" y="744" type="curve" smooth="yes"/>
      <point x="40" y="564" type="line" smooth="yes"/>
      <point x="40" y="458"/>
      <point x="79" y="405"/>
    </contour>
    <contour>
      <point x="152" y="463" type="curve" smooth="yes"/>
      <point x="122" y="463"/>
      <point x="109" y="496"/>
      <point x="109" y="560" type="curve" smooth="yes"/>
      <point x="109" y="573" type="line" smooth="yes"/>
      <point x="109" y="635"/>
      <point x="123" y="664"/>
      <point x="155" y="664" type="curve" smooth="yes"/>
      <point x="184" y="664"/>
      <point x="196" y="628"/>
      <point x="196" y="565" type="curve" smooth="yes"/>
      <point x="196" y="498"/>
      <point x="184" y="463"/>
    </contour>
  </outline>
</glyph>
<glyph name="aen-georgian" format="2">
  <advance width="404"/>
  <unicode hex="10FD"/>
  <outline>
    <contour>
      <point x="201" y="-10" type="curve" smooth="yes"/>
      <point x="295" y="-10"/>
      <point x="367" y="58"/>
      <point x="367" y="187" type="curve" smooth="yes"/>
      <point x="367" y="310"/>
      <point x="304" y="380"/>
      <point x="234" y="436" type="curve" smooth="yes"/>
      <point x="164" y="492"/>
      <point x="125" y="520"/>
      <point x="125" y="606" type="curve" smooth="yes"/>
      <point x="125" y="667"/>
      <point x="153" y="703"/>
      <point x="197" y="703" type="curve" smooth="yes"/>
      <point x="242" y="703"/>
      <point x="269" y="662"/>
      <point x="269" y="608" type="curve" smooth="yes"/>
      <point x="269" y="588"/>
      <point x="268" y="573"/>
      <point x="265" y="563" type="curve"/>
      <point x="346" y="563" type="line"/>
      <point x="348" y="574"/>
      <point x="350" y="591"/>
      <point x="350" y="609" type="curve" smooth="yes"/>
      <point x="350" y="702"/>
      <point x="294" y="770"/>
      <point x="196" y="770" type="curve" smooth="yes"/>
      <point x="96" y="770"/>
      <point x="45" y="704"/>
      <point x="45" y="608" type="curve" smooth="yes"/>
      <point x="45" y="499"/>
      <point x="89" y="450"/>
      <point x="179" y="379" type="curve" smooth="yes"/>
      <point x="244" y="328"/>
      <point x="285" y="275"/>
      <point x="285" y="185" type="curve" smooth="yes"/>
      <point x="285" y="100"/>
      <point x="250" y="58"/>
      <point x="203" y="58" type="curve" smooth="yes"/>
      <point x="151" y="58"/>
      <point x="118" y="102"/>
      <point x="118" y="189" type="curve" smooth="yes"/>
      <point x="118" y="212"/>
      <point x="120" y="232"/>
      <point x="126" y="253" type="curve"/>
      <point x="44" y="253" type="line"/>
      <point x="40" y="234"/>
      <point x="37" y="209"/>
      <point x="37" y="186" type="curve" smooth="yes"/>
      <point x="37" y="60"/>
      <point x="104" y="-10"/>
    </contour>
  </outline>
</glyph>
<glyph name="hardsign-georgian" format="2">
  <advance width="442"/>
  <unicode hex="10FE"/>
  <outline>
    <contour>
      <point x="52" y="537" type="curve"/>
      <point x="52" y="466" type="line"/>
      <point x="85" y="466"/>
      <point x="121" y="460"/>
      <point x="166" y="438" type="curve"/>
      <point x="166" y="435" type="line"/>
      <point x="86" y="377"/>
      <point x="42" y="292"/>
      <point x="42" y="180" type="curve" smooth="yes"/>
      <point x="42" y="67"/>
      <point x="111" y="-10"/>
      <point x="221" y="-10" type="curve" smooth="yes"/>
      <point x="331" y="-10"/>
      <point x="400" y="67"/>
      <point x="400" y="180" type="curve" smooth="yes"/>
      <point x="400" y="292"/>
      <point x="356" y="377"/>
      <point x="276" y="435" type="curve"/>
      <point x="276" y="438" type="line"/>
      <point x="321" y="459"/>
      <point x="357" y="466"/>
      <point x="390" y="466" type="curve"/>
      <point x="390" y="537" type="line"/>
      <point x="333" y="537"/>
      <point x="274" y="515"/>
      <point x="221" y="475" type="curve"/>
      <point x="168" y="515"/>
      <point x="109" y="537"/>
    </contour>
    <contour>
      <point x="221" y="404" type="curve"/>
      <point x="276" y="353"/>
      <point x="318" y="290"/>
      <point x="318" y="181" type="curve" smooth="yes"/>
      <point x="318" y="105"/>
      <point x="276" y="61"/>
      <point x="221" y="61" type="curve" smooth="yes"/>
      <point x="166" y="61"/>
      <point x="124" y="105"/>
      <point x="124" y="181" type="curve" smooth="yes"/>
      <point x="124" y="290"/>
      <point x="166" y="353"/>
    </contour>
  </outline>
</glyph>
<glyph name="labial-georgian" format="2">
  <advance width="445"/>
  <unicode hex="10FF"/>
  <outline>
    <contour>
      <point x="403" y="269" type="curve" smooth="yes"/>
      <point x="403" y="452"/>
      <point x="337" y="547"/>
      <point x="223" y="547" type="curve" smooth="yes"/>
      <point x="99" y="547"/>
      <point x="42" y="446"/>
      <point x="42" y="269" type="curve" smooth="yes"/>
      <point x="42" y="101"/>
      <point x="102" y="-10"/>
      <point x="221" y="-10" type="curve" smooth="yes"/>
      <point x="346" y="-10"/>
      <point x="403" y="102"/>
    </contour>
    <contour>
      <point x="125" y="269" type="curve" smooth="yes"/>
      <point x="125" y="407"/>
      <point x="154" y="476"/>
      <point x="223" y="476" type="curve" smooth="yes"/>
      <point x="290" y="476"/>
      <point x="321" y="407"/>
      <point x="321" y="269" type="curve" smooth="yes"/>
      <point x="321" y="130"/>
      <point x="290" y="61"/>
      <point x="223" y="61" type="curve" smooth="yes"/>
      <point x="155" y="61"/>
      <point x="125" y="132"/>
    </contour>
  </outline>
</glyph>
<glyph name="An-georgian" format="2">
  <advance width="463"/>
  <unicode hex="1C90"/>
  <anchor x="229" y="714" name="top"/>
  <outline>
    <contour>
      <point x="229" y="-10" type="curve" smooth="yes"/>
      <point x="346" y="-10"/>
      <point x="417" y="76"/>
      <point x="417" y="223" type="curve" smooth="yes"/>
      <point x="417" y="341"/>
      <point x="376" y="426"/>
      <point x="334" y="499" type="curve" smooth="yes"/>
      <point x="292" y="572"/>
      <point x="257" y="636"/>
      <point x="268" y="714" type="curve"/>
      <point x="184" y="714" type="line"/>
      <point x="170" y="618"/>
      <point x="211" y="547"/>
      <point x="256" y="468" type="curve" smooth="yes"/>
      <point x="295" y="400"/>
      <point x="329" y="324"/>
      <point x="329" y="223" type="curve" smooth="yes"/>
      <point x="329" y="120"/>
      <point x="296" y="66"/>
      <point x="228" y="66" type="curve" smooth="yes"/>
      <point x="163" y="66"/>
      <point x="128" y="120"/>
      <point x="128" y="212" type="curve" smooth="yes"/>
      <point x="128" y="262"/>
      <point x="138" y="317"/>
      <point x="162" y="379" type="curve"/>
      <point x="189" y="352" type="line"/>
      <point x="32" y="352" type="line"/>
      <point x="79" y="379" type="line"/>
      <point x="53" y="315"/>
      <point x="41" y="262"/>
      <point x="41" y="208" type="curve" smooth="yes"/>
      <point x="41" y="74"/>
      <point x="115" y="-10"/>
    </contour>
  </outline>
</glyph>
<glyph name="Ban-georgian" format="2">
  <advance width="486"/>
  <unicode hex="1C91"/>
  <outline>
    <contour>
      <point x="242" y="-10" type="curve" smooth="yes"/>
      <point x="372" y="-10"/>
      <point x="440" y="100"/>
      <point x="440" y="254" type="curve" smooth="yes"/>
      <point x="440" y="425"/>
      <point x="363" y="515"/>
      <point x="243" y="515" type="curve" smooth="yes"/>
      <point x="114" y="515"/>
      <point x="46" y="418"/>
      <point x="46" y="254" type="curve" smooth="yes"/>
      <point x="46" y="99"/>
      <point x="117" y="-10"/>
    </contour>
    <contour>
      <point x="243" y="66" type="curve" smooth="yes"/>
      <point x="174" y="66"/>
      <point x="135" y="131"/>
      <point x="135" y="254" type="curve" smooth="yes"/>
      <point x="135" y="377"/>
      <point x="173" y="439"/>
      <point x="243" y="439" type="curve" smooth="yes"/>
      <point x="313" y="439"/>
      <point x="351" y="375"/>
      <point x="351" y="254" type="curve" smooth="yes"/>
      <point x="351" y="130"/>
      <point x="312" y="66"/>
    </contour>
    <contour>
      <point x="287" y="498" type="line"/>
      <point x="298" y="512"/>
      <point x="307" y="536"/>
      <point x="307" y="563" type="curve" smooth="yes"/>
      <point x="307" y="605"/>
      <point x="287" y="628"/>
      <point x="267" y="648" type="curve" smooth="yes"/>
      <point x="245" y="670"/>
      <point x="233" y="687"/>
      <point x="235" y="714" type="curve"/>
      <point x="147" y="714" type="line"/>
      <point x="141" y="663"/>
      <point x="163" y="636"/>
      <point x="186" y="614" type="curve" smooth="yes"/>
      <point x="203" y="597"/>
      <point x="218" y="580"/>
      <point x="218" y="553" type="curve" smooth="yes"/>
      <point x="218" y="535"/>
      <point x="212" y="514"/>
      <point x="202" y="501" type="curve"/>
    </contour>
  </outline>
</glyph>
<glyph name="Gan-georgian" format="2">
  <advance width="476"/>
  <unicode hex="1C92"/>
  <outline>
    <contour>
      <point x="237" y="-10" type="curve" smooth="yes"/>
      <point x="367" y="-10"/>
      <point x="435" y="100"/>
      <point x="435" y="239" type="curve" smooth="yes"/>
      <point x="435" y="364"/>
      <point x="394" y="436"/>
      <point x="315" y="464" type="curve"/>
      <point x="315" y="467" type="line"/>
      <point x="368" y="491"/>
      <point x="386" y="536"/>
      <point x="386" y="584" type="curve" smooth="yes"/>
      <point x="386" y="667"/>
      <point x="327" y="724"/>
      <point x="235" y="724" type="curve" smooth="yes"/>
      <point x="145" y="724"/>
      <point x="84" y="666"/>
      <point x="84" y="599" type="curve" smooth="yes"/>
      <point x="84" y="582"/>
      <point x="86" y="567"/>
      <point x="91" y="552" type="curve"/>
      <point x="173" y="552" type="line"/>
      <point x="170" y="565"/>
      <point x="168" y="576"/>
      <point x="168" y="592" type="curve" smooth="yes"/>
      <point x="168" y="629"/>
      <point x="195" y="655"/>
      <point x="234" y="655" type="curve" smooth="yes"/>
      <point x="278" y="655"/>
      <point x="302" y="626"/>
      <point x="302" y="581" type="curve" smooth="yes"/>
      <point x="302" y="538"/>
      <point x="289" y="498"/>
      <point x="216" y="485" type="curve" smooth="yes"/>
      <point x="101" y="465"/>
      <point x="41" y="379"/>
      <point x="41" y="239" type="curve" smooth="yes"/>
      <point x="41" y="99"/>
      <point x="112" y="-10"/>
    </contour>
    <contour>
      <point x="238" y="66" type="curve" smooth="yes"/>
      <point x="169" y="66"/>
      <point x="130" y="131"/>
      <point x="130" y="239" type="curve" smooth="yes"/>
      <point x="130" y="347"/>
      <point x="168" y="410"/>
      <point x="238" y="410" type="curve" smooth="yes"/>
      <point x="308" y="410"/>
      <point x="346" y="345"/>
      <point x="346" y="239" type="curve" smooth="yes"/>
      <point x="346" y="130"/>
      <point x="307" y="66"/>
    </contour>
  </outline>
</glyph>
<glyph name="Don-georgian" format="2">
  <advance width="689"/>
  <unicode hex="1C93"/>
  <outline>
    <contour>
      <point x="422" y="0" type="curve"/>
      <point x="506" y="0" type="line"/>
      <point x="497" y="88"/>
      <point x="431" y="132"/>
      <point x="351" y="166" type="curve" smooth="yes"/>
      <point x="248" y="210"/>
      <point x="132" y="273"/>
      <point x="132" y="472" type="curve" smooth="yes"/>
      <point x="132" y="593"/>
      <point x="154" y="650"/>
      <point x="211" y="650" type="curve" smooth="yes"/>
      <point x="268" y="650"/>
      <point x="282" y="604"/>
      <point x="282" y="518" type="curve" smooth="yes"/>
      <point x="282" y="477" type="line" smooth="yes"/>
      <point x="282" y="347"/>
      <point x="336" y="240"/>
      <point x="464" y="240" type="curve" smooth="yes"/>
      <point x="586" y="240"/>
      <point x="643" y="347"/>
      <point x="643" y="479" type="curve" smooth="yes"/>
      <point x="643" y="627"/>
      <point x="589" y="724"/>
      <point x="463" y="724" type="curve" smooth="yes"/>
      <point x="401" y="724"/>
      <point x="347" y="696"/>
      <point x="329" y="632" type="curve"/>
      <point x="326" y="632" type="line"/>
      <point x="311" y="695"/>
      <point x="263" y="724"/>
      <point x="208" y="724" type="curve" smooth="yes"/>
      <point x="100" y="724"/>
      <point x="46" y="632"/>
      <point x="46" y="472" type="curve" smooth="yes"/>
      <point x="46" y="331"/>
      <point x="108" y="219"/>
      <point x="224" y="163" type="curve"/>
      <point x="224" y="160" type="line"/>
      <point x="186" y="158"/>
      <point x="147" y="148"/>
      <point x="123" y="136" type="curve"/>
      <point x="149" y="79" type="line"/>
      <point x="183" y="95"/>
      <point x="225" y="103"/>
      <point x="255" y="103" type="curve" smooth="yes"/>
      <point x="328" y="103"/>
      <point x="410" y="74"/>
    </contour>
    <contour>
      <point x="462" y="314" type="curve" smooth="yes"/>
      <point x="395" y="314"/>
      <point x="370" y="376"/>
      <point x="370" y="478" type="curve" smooth="yes"/>
      <point x="370" y="588"/>
      <point x="395" y="650"/>
      <point x="462" y="650" type="curve" smooth="yes"/>
      <point x="530" y="650"/>
      <point x="555" y="590"/>
      <point x="555" y="478" type="curve" smooth="yes"/>
      <point x="555" y="376"/>
      <point x="529" y="314"/>
    </contour>
  </outline>
</glyph>
<glyph name="En-georgian" format="2">
  <advance width="479"/>
  <unicode hex="1C94"/>
  <anchor x="237" y="714" name="top"/>
  <outline>
    <contour>
      <point x="229" y="-10" type="curve" smooth="yes"/>
      <point x="346" y="-10"/>
      <point x="413" y="71"/>
      <point x="413" y="203" type="curve" smooth="yes"/>
      <point x="413" y="551" type="line" smooth="yes"/>
      <point x="413" y="664"/>
      <point x="335" y="724"/>
      <point x="238" y="724" type="curve" smooth="yes"/>
      <point x="133" y="724"/>
      <point x="60" y="664"/>
      <point x="60" y="561" type="curve" smooth="yes"/>
      <point x="60" y="527"/>
      <point x="64" y="502"/>
      <point x="72" y="469" type="curve"/>
      <point x="155" y="469" type="line"/>
      <point x="150" y="497"/>
      <point x="147" y="521"/>
      <point x="147" y="555" type="curve" smooth="yes"/>
      <point x="147" y="610"/>
      <point x="180" y="648"/>
      <point x="237" y="648" type="curve" smooth="yes"/>
      <point x="293" y="648"/>
      <point x="329" y="612"/>
      <point x="329" y="551" type="curve" smooth="yes"/>
      <point x="329" y="203" type="line" smooth="yes"/>
      <point x="329" y="115"/>
      <point x="296" y="66"/>
      <point x="228" y="66" type="curve" smooth="yes"/>
      <point x="153" y="66"/>
      <point x="128" y="130"/>
      <point x="128" y="192" type="curve" smooth="yes"/>
      <point x="128" y="235"/>
      <point x="134" y="269"/>
      <point x="143" y="296" type="curve"/>
      <point x="60" y="296" type="line"/>
      <point x="49" y="268"/>
      <point x="41" y="234"/>
      <point x="41" y="188" type="curve" smooth="yes"/>
      <point x="41" y="94"/>
      <point x="95" y="-10"/>
    </contour>
  </outline>
</glyph>
<glyph name="Vin-georgian" format="2">
  <advance width="466"/>
  <unicode hex="1C95"/>
  <outline>
    <contour>
      <point x="233" y="-10" type="curve" smooth="yes"/>
      <point x="351" y="-10"/>
      <point x="425" y="73"/>
      <point x="425" y="204" type="curve" smooth="yes"/>
      <point x="425" y="315"/>
      <point x="371" y="371"/>
      <point x="305" y="388" type="curve"/>
      <point x="305" y="391" type="line"/>
      <point x="371" y="412"/>
      <point x="414" y="466"/>
      <point x="414" y="557" type="curve" smooth="yes"/>
      <point x="414" y="667"/>
      <point x="336" y="724"/>
      <point x="236" y="724" type="curve" smooth="yes"/>
      <point x="131" y="724"/>
      <point x="59" y="666"/>
      <point x="59" y="570" type="curve" smooth="yes"/>
      <point x="59" y="537"/>
      <point x="62" y="522"/>
      <point x="68" y="493" type="curve"/>
      <point x="152" y="493" type="line"/>
      <point x="147" y="518"/>
      <point x="145" y="534"/>
      <point x="145" y="558" type="curve" smooth="yes"/>
      <point x="145" y="613"/>
      <point x="178" y="650"/>
      <point x="236" y="650" type="curve" smooth="yes"/>
      <point x="293" y="650"/>
      <point x="327" y="616"/>
      <point x="327" y="547" type="curve" smooth="yes"/>
      <point x="327" y="473"/>
      <point x="294" y="424"/>
      <point x="225" y="424" type="curve" smooth="yes"/>
      <point x="194" y="424" type="line"/>
      <point x="194" y="349" type="line"/>
      <point x="227" y="349" type="line" smooth="yes"/>
      <point x="295" y="349"/>
      <point x="337" y="302"/>
      <point x="337" y="205" type="curve" smooth="yes"/>
      <point x="337" y="115"/>
      <point x="302" y="64"/>
      <point x="232" y="64" type="curve" smooth="yes"/>
      <point x="156" y="64"/>
      <point x="126" y="125"/>
      <point x="126" y="200" type="curve" smooth="yes"/>
      <point x="126" y="224"/>
      <point x="128" y="249"/>
      <point x="134" y="274" type="curve"/>
      <point x="54" y="274" type="line"/>
      <point x="45" y="243"/>
      <point x="41" y="214"/>
      <point x="41" y="186" type="curve" smooth="yes"/>
      <point x="41" y="74"/>
      <point x="111" y="-10"/>
    </contour>
  </outline>
</glyph>
<glyph name="Zen-georgian" format="2">
  <advance width="506"/>
  <unicode hex="1C96"/>
  <outline>
    <contour>
      <point x="267" y="-10" type="curve" smooth="yes"/>
      <point x="401" y="-10"/>
      <point x="460" y="100"/>
      <point x="460" y="240" type="curve" smooth="yes"/>
      <point x="460" y="367"/>
      <point x="417" y="455"/>
      <point x="317" y="475" type="curve" smooth="yes"/>
      <point x="312" y="476"/>
      <point x="307" y="477"/>
      <point x="302" y="478" type="curve"/>
      <point x="302" y="480" type="line"/>
      <point x="324" y="503"/>
      <point x="333" y="535"/>
      <point x="333" y="573" type="curve" smooth="yes"/>
      <point x="333" y="663"/>
      <point x="276" y="724"/>
      <point x="180" y="724" type="curve" smooth="yes"/>
      <point x="78" y="724"/>
      <point x="28" y="657"/>
      <point x="28" y="564" type="curve" smooth="yes"/>
      <point x="28" y="494"/>
      <point x="68" y="434"/>
      <point x="138" y="417" type="curve"/>
      <point x="138" y="414" type="line"/>
      <point x="95" y="375"/>
      <point x="78" y="311"/>
      <point x="78" y="233" type="curve" smooth="yes"/>
      <point x="78" y="99"/>
      <point x="139" y="-10"/>
    </contour>
    <contour>
      <point x="269" y="65" type="curve" smooth="yes"/>
      <point x="196" y="65"/>
      <point x="166" y="129"/>
      <point x="166" y="240" type="curve" smooth="yes"/>
      <point x="166" y="352"/>
      <point x="195" y="414"/>
      <point x="269" y="414" type="curve" smooth="yes"/>
      <point x="342" y="414"/>
      <point x="372" y="350"/>
      <point x="372" y="240" type="curve" smooth="yes"/>
      <point x="372" y="128"/>
      <point x="341" y="65"/>
    </contour>
    <contour>
      <point x="180" y="473" type="curve" smooth="yes"/>
      <point x="134" y="473"/>
      <point x="112" y="515"/>
      <point x="112" y="565" type="curve" smooth="yes"/>
      <point x="112" y="615"/>
      <point x="132" y="652"/>
      <point x="180" y="652" type="curve" smooth="yes"/>
      <point x="228" y="652"/>
      <point x="249" y="615"/>
      <point x="249" y="565" type="curve" smooth="yes"/>
      <point x="249" y="505"/>
      <point x="231" y="473"/>
    </contour>
  </outline>
</glyph>
<glyph name="Tan-georgian" format="2">
  <advance width="738"/>
  <unicode hex="1C97"/>
  <outline>
    <contour>
      <point x="523" y="724" type="curve" smooth="yes"/>
      <point x="478" y="724"/>
      <point x="415" y="704"/>
      <point x="393" y="629" type="curve"/>
      <point x="391" y="629" type="line"/>
      <point x="364" y="698"/>
      <point x="317" y="724"/>
      <point x="248" y="724" type="curve" smooth="yes"/>
      <point x="105" y="724"/>
      <point x="53" y="615"/>
      <point x="50" y="357" type="curve" smooth="yes"/>
      <point x="48" y="106"/>
      <point x="101" y="-10"/>
      <point x="248" y="-10" type="curve" smooth="yes"/>
      <point x="390" y="-10"/>
      <point x="447" y="98"/>
      <point x="447" y="357" type="curve" smooth="yes"/>
      <point x="447" y="405"/>
      <point x="442" y="473"/>
      <point x="442" y="513" type="curve"/>
      <point x="442" y="595"/>
      <point x="462" y="648"/>
      <point x="516" y="648" type="curve" smooth="yes"/>
      <point x="569" y="648"/>
      <point x="600" y="586"/>
      <point x="600" y="413" type="curve" smooth="yes"/>
      <point x="600" y="253"/>
      <point x="577" y="129"/>
      <point x="528" y="0" type="curve"/>
      <point x="616" y="0" type="line"/>
      <point x="665" y="134"/>
      <point x="688" y="245"/>
      <point x="688" y="413" type="curve" smooth="yes"/>
      <point x="688" y="626"/>
      <point x="635" y="724"/>
    </contour>
    <contour>
      <point x="248" y="66" type="curve" smooth="yes"/>
      <point x="167" y="66"/>
      <point x="138" y="146"/>
      <point x="138" y="357" type="curve" smooth="yes"/>
      <point x="138" y="565"/>
      <point x="166" y="648"/>
      <point x="248" y="648" type="curve" smooth="yes"/>
      <point x="329" y="648"/>
      <point x="358" y="568"/>
      <point x="358" y="357" type="curve" smooth="yes"/>
      <point x="358" y="149"/>
      <point x="330" y="66"/>
    </contour>
  </outline>
</glyph>
<glyph name="In-georgian" format="2">
  <advance width="498"/>
  <unicode hex="1C98"/>
  <guideline x="52" y="434" angle="90"/>
  <guideline x="141" y="434" angle="90"/>
  <anchor x="249" y="714" name="top"/>
  <outline>
    <contour>
      <point x="109" y="0" type="curve"/>
      <point x="197" y="0" type="line"/>
      <point x="158" y="126"/>
      <point x="139" y="245"/>
      <point x="139" y="413" type="curve" smooth="yes"/>
      <point x="139" y="586"/>
      <point x="179" y="648"/>
      <point x="249" y="648" type="curve" smooth="yes"/>
      <point x="319" y="648"/>
      <point x="359" y="586"/>
      <point x="359" y="413" type="curve" smooth="yes"/>
      <point x="359" y="245"/>
      <point x="340" y="126"/>
      <point x="301" y="0" type="curve"/>
      <point x="389" y="0" type="line"/>
      <point x="430" y="135"/>
      <point x="448" y="245"/>
      <point x="448" y="413" type="curve" smooth="yes"/>
      <point x="448" y="627"/>
      <point x="378" y="724"/>
      <point x="249" y="724" type="curve" smooth="yes"/>
      <point x="120" y="724"/>
      <point x="50" y="627"/>
      <point x="50" y="413" type="curve" smooth="yes"/>
      <point x="50" y="245"/>
      <point x="68" y="135"/>
    </contour>
  </outline>
</glyph>
<glyph name="Kan-georgian" format="2">
  <advance width="450"/>
  <unicode hex="1C99"/>
  <outline>
    <contour>
      <point x="225" y="-9" type="curve" smooth="yes"/>
      <point x="339" y="-9"/>
      <point x="409" y="69"/>
      <point x="409" y="205" type="curve" smooth="yes"/>
      <point x="409" y="329"/>
      <point x="368" y="388"/>
      <point x="290" y="408" type="curve"/>
      <point x="290" y="411" type="line"/>
      <point x="368" y="435"/>
      <point x="398" y="488"/>
      <point x="398" y="560" type="curve" smooth="yes"/>
      <point x="398" y="669"/>
      <point x="319" y="724"/>
      <point x="231" y="724" type="curve"/>
      <point x="231" y="652" type="line"/>
      <point x="271" y="649"/>
      <point x="312" y="617"/>
      <point x="312" y="554" type="curve" smooth="yes"/>
      <point x="312" y="492"/>
      <point x="278" y="446"/>
      <point x="209" y="446" type="curve" smooth="yes"/>
      <point x="178" y="446" type="line"/>
      <point x="178" y="369" type="line"/>
      <point x="212" y="369" type="line" smooth="yes"/>
      <point x="280" y="369"/>
      <point x="321" y="322"/>
      <point x="321" y="207" type="curve" smooth="yes"/>
      <point x="321" y="111"/>
      <point x="289" y="65"/>
      <point x="224" y="65" type="curve" smooth="yes"/>
      <point x="150" y="65"/>
      <point x="120" y="125"/>
      <point x="120" y="200" type="curve" smooth="yes"/>
      <point x="120" y="224"/>
      <point x="122" y="249"/>
      <point x="128" y="274" type="curve"/>
      <point x="48" y="274" type="line"/>
      <point x="39" y="243"/>
      <point x="35" y="214"/>
      <point x="35" y="186" type="curve" smooth="yes"/>
      <point x="35" y="74"/>
      <point x="105" y="-9"/>
    </contour>
  </outline>
</glyph>
<glyph name="Las-georgian" format="2">
  <advance width="819"/>
  <unicode hex="1C9A"/>
  <outline>
    <contour>
      <point x="520" y="0" type="curve"/>
      <point x="604" y="0" type="line"/>
      <point x="582" y="120"/>
      <point x="469" y="172"/>
      <point x="371" y="192" type="curve" smooth="yes"/>
      <point x="200" y="227"/>
      <point x="132" y="313"/>
      <point x="132" y="488" type="curve" smooth="yes"/>
      <point x="132" y="598"/>
      <point x="153" y="651"/>
      <point x="205" y="651" type="curve" smooth="yes"/>
      <point x="253" y="651"/>
      <point x="265" y="609"/>
      <point x="265" y="536" type="curve" smooth="yes"/>
      <point x="265" y="390" type="line"/>
      <point x="348" y="390" type="line"/>
      <point x="348" y="536" type="line" smooth="yes"/>
      <point x="348" y="606"/>
      <point x="359" y="651"/>
      <point x="410" y="651" type="curve" smooth="yes"/>
      <point x="458" y="651"/>
      <point x="471" y="610"/>
      <point x="471" y="536" type="curve" smooth="yes"/>
      <point x="471" y="390" type="line"/>
      <point x="554" y="390" type="line"/>
      <point x="554" y="536" type="line" smooth="yes"/>
      <point x="554" y="605"/>
      <point x="565" y="651"/>
      <point x="614" y="651" type="curve" smooth="yes"/>
      <point x="667" y="651"/>
      <point x="687" y="595"/>
      <point x="687" y="489" type="curve" smooth="yes"/>
      <point x="687" y="417"/>
      <point x="678" y="353"/>
      <point x="648" y="292" type="curve"/>
      <point x="727" y="270" type="line"/>
      <point x="759" y="341"/>
      <point x="773" y="406"/>
      <point x="773" y="490" type="curve" smooth="yes"/>
      <point x="773" y="635"/>
      <point x="721" y="724"/>
      <point x="626" y="724" type="curve" smooth="yes"/>
      <point x="569" y="724"/>
      <point x="529" y="696"/>
      <point x="514" y="639" type="curve"/>
      <point x="511" y="639" type="line"/>
      <point x="497" y="694"/>
      <point x="458" y="724"/>
      <point x="410" y="724" type="curve" smooth="yes"/>
      <point x="363" y="724"/>
      <point x="323" y="697"/>
      <point x="308" y="639" type="curve"/>
      <point x="305" y="639" type="line"/>
      <point x="290" y="696"/>
      <point x="250" y="724"/>
      <point x="193" y="724" type="curve" smooth="yes"/>
      <point x="98" y="724"/>
      <point x="46" y="635"/>
      <point x="46" y="490" type="curve" smooth="yes"/>
      <point x="46" y="321"/>
      <point x="117" y="217"/>
      <point x="248" y="175" type="curve"/>
      <point x="248" y="172" type="line"/>
      <point x="211" y="169"/>
      <point x="176" y="159"/>
      <point x="147" y="143" type="curve"/>
      <point x="173" y="87" type="line"/>
      <point x="207" y="106"/>
      <point x="255" y="120"/>
      <point x="315" y="120" type="curve" smooth="yes"/>
      <point x="384" y="120"/>
      <point x="505" y="87"/>
    </contour>
  </outline>
</glyph>
<glyph name="Man-georgian" format="2">
  <advance width="496"/>
  <unicode hex="1C9B"/>
  <outline>
    <contour>
      <point x="240" y="-10" type="curve" smooth="yes"/>
      <point x="360" y="-10"/>
      <point x="430" y="74"/>
      <point x="430" y="250" type="curve" smooth="yes"/>
      <point x="430" y="559" type="line" smooth="yes"/>
      <point x="430" y="667"/>
      <point x="355" y="724"/>
      <point x="253" y="724" type="curve" smooth="yes"/>
      <point x="152" y="724"/>
      <point x="74" y="671"/>
      <point x="74" y="586" type="curve" smooth="yes"/>
      <point x="74" y="577"/>
      <point x="75" y="567"/>
      <point x="77" y="557" type="curve"/>
      <point x="159" y="557" type="line"/>
      <point x="158" y="565"/>
      <point x="157" y="572"/>
      <point x="157" y="579" type="curve" smooth="yes"/>
      <point x="157" y="631"/>
      <point x="196" y="657"/>
      <point x="252" y="657" type="curve" smooth="yes"/>
      <point x="314" y="657"/>
      <point x="346" y="623"/>
      <point x="346" y="560" type="curve" smooth="yes"/>
      <point x="346" y="507" type="line" smooth="yes"/>
      <point x="346" y="491"/>
      <point x="346" y="468"/>
      <point x="349" y="435" type="curve"/>
      <point x="345" y="435" type="line"/>
      <point x="317" y="483"/>
      <point x="270" y="504"/>
      <point x="213" y="504" type="curve" smooth="yes"/>
      <point x="105" y="504"/>
      <point x="46" y="414"/>
      <point x="46" y="252" type="curve" smooth="yes"/>
      <point x="46" y="97"/>
      <point x="107" y="-10"/>
    </contour>
    <contour>
      <point x="239" y="65" type="curve" smooth="yes"/>
      <point x="165" y="65"/>
      <point x="132" y="131"/>
      <point x="132" y="251" type="curve" smooth="yes"/>
      <point x="132" y="368"/>
      <point x="164" y="432"/>
      <point x="234" y="432" type="curve" smooth="yes"/>
      <point x="310" y="432"/>
      <point x="346" y="379"/>
      <point x="346" y="269" type="curve" smooth="yes"/>
      <point x="346" y="243" type="line" smooth="yes"/>
      <point x="346" y="127"/>
      <point x="311" y="65"/>
    </contour>
  </outline>
</glyph>
<glyph name="On-georgian" format="2">
  <advance width="666"/>
  <unicode hex="1C9D"/>
  <anchor x="333" y="714" name="top"/>
  <outline>
    <contour>
      <point x="122" y="0" type="curve"/>
      <point x="210" y="0" type="line"/>
      <point x="161" y="130"/>
      <point x="139" y="253"/>
      <point x="139" y="413" type="curve" smooth="yes"/>
      <point x="139" y="586"/>
      <point x="167" y="648"/>
      <point x="217" y="648" type="curve" smooth="yes"/>
      <point x="277" y="648"/>
      <point x="291" y="579"/>
      <point x="291" y="493" type="curve" smooth="yes"/>
      <point x="291" y="210" type="line"/>
      <point x="375" y="210" type="line"/>
      <point x="375" y="493" type="line" smooth="yes"/>
      <point x="375" y="585"/>
      <point x="392" y="648"/>
      <point x="447" y="648" type="curve" smooth="yes"/>
      <point x="499" y="648"/>
      <point x="528" y="586"/>
      <point x="528" y="413" type="curve" smooth="yes"/>
      <point x="528" y="253"/>
      <point x="505" y="129"/>
      <point x="456" y="0" type="curve"/>
      <point x="544" y="0" type="line"/>
      <point x="593" y="134"/>
      <point x="616" y="245"/>
      <point x="616" y="413" type="curve" smooth="yes"/>
      <point x="616" y="626"/>
      <point x="563" y="724"/>
      <point x="451" y="724" type="curve" smooth="yes"/>
      <point x="407" y="724"/>
      <point x="357" y="705"/>
      <point x="335" y="634" type="curve"/>
      <point x="332" y="634" type="line"/>
      <point x="310" y="708"/>
      <point x="261" y="724"/>
      <point x="212" y="724" type="curve" smooth="yes"/>
      <point x="102" y="724"/>
      <point x="50" y="626"/>
      <point x="50" y="413" type="curve" smooth="yes"/>
      <point x="50" y="245"/>
      <point x="73" y="135"/>
    </contour>
  </outline>
</glyph>
<glyph name="Par-georgian" format="2">
  <advance width="459"/>
  <unicode hex="1C9E"/>
  <outline>
    <contour>
      <point x="227" y="-9" type="curve" smooth="yes"/>
      <point x="341" y="-9"/>
      <point x="413" y="64"/>
      <point x="413" y="208" type="curve" smooth="yes"/>
      <point x="413" y="324"/>
      <point x="354" y="384"/>
      <point x="298" y="398" type="curve"/>
      <point x="298" y="400" type="line"/>
      <point x="356" y="416"/>
      <point x="391" y="450"/>
      <point x="391" y="506" type="curve" smooth="yes"/>
      <point x="391" y="565"/>
      <point x="356" y="601"/>
      <point x="320" y="628" type="curve" smooth="yes"/>
      <point x="284" y="655"/>
      <point x="260" y="678"/>
      <point x="260" y="714" type="curve"/>
      <point x="175" y="714" type="line"/>
      <point x="170" y="653"/>
      <point x="203" y="619"/>
      <point x="243" y="589" type="curve" smooth="yes"/>
      <point x="274" y="566"/>
      <point x="305" y="541"/>
      <point x="305" y="502" type="curve" smooth="yes"/>
      <point x="305" y="464"/>
      <point x="280" y="434"/>
      <point x="211" y="434" type="curve" smooth="yes"/>
      <point x="172" y="434" type="line"/>
      <point x="172" y="360" type="line"/>
      <point x="206" y="360" type="line" smooth="yes"/>
      <point x="276" y="360"/>
      <point x="325" y="311"/>
      <point x="325" y="209" type="curve" smooth="yes"/>
      <point x="325" y="107"/>
      <point x="293" y="65"/>
      <point x="227" y="65" type="curve" smooth="yes"/>
      <point x="156" y="65"/>
      <point x="126" y="125"/>
      <point x="126" y="200" type="curve" smooth="yes"/>
      <point x="126" y="224"/>
      <point x="128" y="249"/>
      <point x="134" y="274" type="curve"/>
      <point x="54" y="274" type="line"/>
      <point x="45" y="243"/>
      <point x="41" y="214"/>
      <point x="41" y="186" type="curve" smooth="yes"/>
      <point x="41" y="74"/>
      <point x="111" y="-9"/>
    </contour>
  </outline>
</glyph>
<glyph name="Zhar-georgian" format="2">
  <advance width="535"/>
  <unicode hex="1C9F"/>
  <outline>
    <contour>
      <point x="277" y="-9" type="curve" smooth="yes"/>
      <point x="393" y="-9"/>
      <point x="463" y="67"/>
      <point x="463" y="197" type="curve" smooth="yes"/>
      <point x="463" y="714" type="line"/>
      <point x="392" y="714" type="line"/>
      <point x="330" y="682"/>
      <point x="252" y="658"/>
      <point x="160" y="647" type="curve"/>
      <point x="160" y="581" type="line"/>
      <point x="196" y="571"/>
      <point x="227" y="544"/>
      <point x="227" y="496" type="curve" smooth="yes"/>
      <point x="227" y="458"/>
      <point x="211" y="432"/>
      <point x="172" y="432" type="curve" smooth="yes"/>
      <point x="135" y="432"/>
      <point x="116" y="455"/>
      <point x="116" y="486" type="curve" smooth="yes"/>
      <point x="116" y="496"/>
      <point x="117" y="506"/>
      <point x="120" y="517" type="curve"/>
      <point x="46" y="517" type="line"/>
      <point x="42" y="505"/>
      <point x="40" y="493"/>
      <point x="40" y="478" type="curve" smooth="yes"/>
      <point x="40" y="416"/>
      <point x="89" y="365"/>
      <point x="172" y="365" type="curve" smooth="yes"/>
      <point x="250" y="365"/>
      <point x="305" y="419"/>
      <point x="305" y="490" type="curve" smooth="yes"/>
      <point x="305" y="541"/>
      <point x="279" y="579"/>
      <point x="240" y="596" type="curve"/>
      <point x="240" y="598" type="line"/>
      <point x="298" y="606"/>
      <point x="339" y="622"/>
      <point x="379" y="640" type="curve"/>
      <point x="378" y="202" type="line" smooth="yes"/>
      <point x="378" y="115"/>
      <point x="344" y="65"/>
      <point x="276" y="65" type="curve" smooth="yes"/>
      <point x="204" y="65"/>
      <point x="174" y="125"/>
      <point x="174" y="200" type="curve" smooth="yes"/>
      <point x="174" y="224"/>
      <point x="176" y="249"/>
      <point x="182" y="274" type="curve"/>
      <point x="102" y="274" type="line"/>
      <point x="93" y="243"/>
      <point x="89" y="214"/>
      <point x="89" y="186" type="curve" smooth="yes"/>
      <point x="89" y="74"/>
      <point x="159" y="-9"/>
    </contour>
  </outline>
</glyph>
<glyph name="Rae-georgian" format="2">
  <advance width="628"/>
  <unicode hex="1CA0"/>
  <outline>
    <contour>
      <point x="91" y="0" type="curve"/>
      <point x="175" y="0" type="line"/>
      <point x="151" y="80"/>
      <point x="134" y="167"/>
      <point x="134" y="258" type="curve" smooth="yes"/>
      <point x="134" y="381"/>
      <point x="150" y="440"/>
      <point x="208" y="440" type="curve" smooth="yes"/>
      <point x="257" y="440"/>
      <point x="272" y="390"/>
      <point x="272" y="302" type="curve" smooth="yes"/>
      <point x="272" y="170" type="line"/>
      <point x="355" y="170" type="line"/>
      <point x="355" y="302" type="line" smooth="yes"/>
      <point x="355" y="390"/>
      <point x="373" y="440"/>
      <point x="422" y="440" type="curve" smooth="yes"/>
      <point x="478" y="440"/>
      <point x="494" y="381"/>
      <point x="494" y="259" type="curve" smooth="yes"/>
      <point x="494" y="169"/>
      <point x="477" y="80"/>
      <point x="452" y="0" type="curve"/>
      <point x="536" y="0" type="line"/>
      <point x="567" y="88"/>
      <point x="582" y="167"/>
      <point x="582" y="260" type="curve" smooth="yes"/>
      <point x="582" y="421"/>
      <point x="527" y="514"/>
      <point x="426" y="514" type="curve" smooth="yes"/>
      <point x="368" y="514"/>
      <point x="330" y="485"/>
      <point x="315" y="429" type="curve"/>
      <point x="313" y="429" type="line"/>
      <point x="298" y="485"/>
      <point x="260" y="514"/>
      <point x="211" y="514" type="curve" smooth="yes"/>
      <point x="179" y="514"/>
      <point x="148" y="504"/>
      <point x="126" y="471" type="curve"/>
      <point x="124" y="471" type="line"/>
      <point x="143" y="554"/>
      <point x="181" y="594"/>
      <point x="254" y="616" type="curve" smooth="yes"/>
      <point x="302" y="631"/>
      <point x="380" y="641"/>
      <point x="441" y="650" type="curve"/>
      <point x="428" y="724" type="line"/>
      <point x="349" y="713"/>
      <point x="269" y="700"/>
      <point x="227" y="686" type="curve" smooth="yes"/>
      <point x="77" y="637"/>
      <point x="46" y="485"/>
      <point x="46" y="312" type="curve" smooth="yes"/>
      <point x="46" y="174"/>
      <point x="57" y="106"/>
    </contour>
  </outline>
</glyph>
<glyph name="San-georgian" format="2">
  <advance width="497"/>
  <unicode hex="1CA1"/>
  <outline>
    <contour>
      <point x="258" y="-10" type="curve" smooth="yes"/>
      <point x="386" y="-10"/>
      <point x="451" y="87"/>
      <point x="451" y="206" type="curve" smooth="yes"/>
      <point x="451" y="269"/>
      <point x="433" y="322"/>
      <point x="403" y="369" type="curve" smooth="yes"/>
      <point x="377" y="411"/>
      <point x="357" y="448"/>
      <point x="359" y="505" type="curve"/>
      <point x="275" y="505" type="line"/>
      <point x="272" y="425"/>
      <point x="297" y="381"/>
      <point x="324" y="338" type="curve" smooth="yes"/>
      <point x="349" y="298"/>
      <point x="363" y="260"/>
      <point x="363" y="206" type="curve" smooth="yes"/>
      <point x="363" y="123"/>
      <point x="330" y="66"/>
      <point x="259" y="66" type="curve" smooth="yes"/>
      <point x="184" y="66"/>
      <point x="150" y="124"/>
      <point x="150" y="227" type="curve" smooth="yes"/>
      <point x="150" y="714" type="line"/>
      <point x="66" y="714" type="line"/>
      <point x="66" y="227" type="line" smooth="yes"/>
      <point x="66" y="69"/>
      <point x="135" y="-10"/>
    </contour>
  </outline>
</glyph>
<glyph name="Tar-georgian" format="2">
  <advance width="602"/>
  <unicode hex="1CA2"/>
  <outline>
    <contour>
      <point x="301" y="-10" type="curve" smooth="yes"/>
      <point x="484" y="-10"/>
      <point x="556" y="132"/>
      <point x="556" y="357" type="curve" smooth="yes"/>
      <point x="556" y="555"/>
      <point x="491" y="680"/>
      <point x="340" y="698" type="curve"/>
      <point x="342" y="710"/>
      <point x="343" y="723"/>
      <point x="343" y="737" type="curve"/>
      <point x="343" y="751" type="line"/>
      <point x="259" y="751" type="line"/>
      <point x="259" y="737" type="line"/>
      <point x="259" y="723"/>
      <point x="260" y="710"/>
      <point x="262" y="698" type="curve"/>
      <point x="118" y="680"/>
      <point x="46" y="565"/>
      <point x="46" y="358" type="curve" smooth="yes"/>
      <point x="46" y="133"/>
      <point x="118" y="-10"/>
    </contour>
    <contour>
      <point x="301" y="66" type="curve" smooth="yes"/>
      <point x="195" y="66"/>
      <point x="135" y="158"/>
      <point x="135" y="357" type="curve" smooth="yes"/>
      <point x="135" y="517"/>
      <point x="173" y="609"/>
      <point x="263" y="625" type="curve"/>
      <point x="261" y="605"/>
      <point x="259" y="575"/>
      <point x="259" y="547" type="curve"/>
      <point x="259" y="336" type="line"/>
      <point x="343" y="336" type="line"/>
      <point x="343" y="547" type="line"/>
      <point x="343" y="573"/>
      <point x="342" y="602"/>
      <point x="339" y="626" type="curve"/>
      <point x="426" y="610"/>
      <point x="467" y="522"/>
      <point x="467" y="357" type="curve" smooth="yes"/>
      <point x="467" y="157"/>
      <point x="410" y="66"/>
    </contour>
  </outline>
</glyph>
<glyph name="Un-georgian" format="2">
  <advance width="493"/>
  <unicode hex="1CA3"/>
  <anchor x="236" y="714" name="top"/>
  <outline>
    <contour>
      <point x="243" y="-10" type="curve" smooth="yes"/>
      <point x="360" y="-10"/>
      <point x="427" y="71"/>
      <point x="427" y="203" type="curve" smooth="yes"/>
      <point x="427" y="563" type="line" smooth="yes"/>
      <point x="427" y="657"/>
      <point x="382" y="724"/>
      <point x="283" y="724" type="curve" smooth="yes"/>
      <point x="215" y="724"/>
      <point x="175" y="694"/>
      <point x="159" y="648" type="curve"/>
      <point x="157" y="648" type="line"/>
      <point x="143" y="694"/>
      <point x="111" y="719"/>
      <point x="55" y="719" type="curve" smooth="yes"/>
      <point x="22" y="719" type="line"/>
      <point x="22" y="643" type="line"/>
      <point x="48" y="643" type="line" smooth="yes"/>
      <point x="98" y="643"/>
      <point x="119" y="612"/>
      <point x="119" y="562" type="curve" smooth="yes"/>
      <point x="119" y="438" type="line"/>
      <point x="202" y="438" type="line"/>
      <point x="202" y="562" type="line" smooth="yes"/>
      <point x="202" y="613"/>
      <point x="219" y="650"/>
      <point x="272" y="650" type="curve" smooth="yes"/>
      <point x="332" y="650"/>
      <point x="343" y="602"/>
      <point x="343" y="558" type="curve" smooth="yes"/>
      <point x="343" y="203" type="line" smooth="yes"/>
      <point x="343" y="115"/>
      <point x="310" y="66"/>
      <point x="242" y="66" type="curve" smooth="yes"/>
      <point x="167" y="66"/>
      <point x="142" y="130"/>
      <point x="142" y="192" type="curve" smooth="yes"/>
      <point x="142" y="235"/>
      <point x="148" y="269"/>
      <point x="157" y="296" type="curve"/>
      <point x="74" y="296" type="line"/>
      <point x="63" y="268"/>
      <point x="55" y="234"/>
      <point x="55" y="188" type="curve" smooth="yes"/>
      <point x="55" y="94"/>
      <point x="109" y="-10"/>
    </contour>
  </outline>
</glyph>
<glyph name="Phar-georgian" format="2">
  <advance width="685"/>
  <unicode hex="1CA4"/>
  <outline>
    <contour>
      <point x="400" y="-9" type="curve" smooth="yes"/>
      <point x="540" y="-9"/>
      <point x="618" y="69"/>
      <point x="618" y="186" type="curve" smooth="yes"/>
      <point x="618" y="269"/>
      <point x="585" y="320"/>
      <point x="532" y="339" type="curve"/>
      <point x="532" y="342" type="line"/>
      <point x="611" y="368"/>
      <point x="639" y="444"/>
      <point x="639" y="527" type="curve" smooth="yes"/>
      <point x="639" y="636"/>
      <point x="585" y="724"/>
      <point x="483" y="724" type="curve" smooth="yes"/>
      <point x="428" y="724"/>
      <point x="378" y="698"/>
      <point x="363" y="635" type="curve"/>
      <point x="360" y="635" type="line"/>
      <point x="341" y="698"/>
      <point x="288" y="724"/>
      <point x="226" y="724" type="curve" smooth="yes"/>
      <point x="104" y="724"/>
      <point x="46" y="627"/>
      <point x="46" y="484" type="curve" smooth="yes"/>
      <point x="46" y="357"/>
      <point x="103" y="250"/>
      <point x="225" y="250" type="curve" smooth="yes"/>
      <point x="353" y="250"/>
      <point x="407" y="357"/>
      <point x="407" y="482" type="curve" smooth="yes"/>
      <point x="407" y="518" type="line" smooth="yes"/>
      <point x="407" y="604"/>
      <point x="423" y="650"/>
      <point x="479" y="650" type="curve" smooth="yes"/>
      <point x="536" y="650"/>
      <point x="554" y="597"/>
      <point x="554" y="524" type="curve" smooth="yes"/>
      <point x="554" y="446"/>
      <point x="529" y="379"/>
      <point x="459" y="379" type="curve" smooth="yes"/>
      <point x="439" y="379" type="line"/>
      <point x="439" y="305" type="line"/>
      <point x="452" y="305" type="line" smooth="yes"/>
      <point x="504" y="305"/>
      <point x="531" y="259"/>
      <point x="531" y="188" type="curve" smooth="yes"/>
      <point x="531" y="111"/>
      <point x="491" y="63"/>
      <point x="399" y="63" type="curve" smooth="yes"/>
      <point x="323" y="63"/>
      <point x="276" y="98"/>
      <point x="276" y="158" type="curve" smooth="yes"/>
      <point x="276" y="164"/>
      <point x="276" y="172"/>
      <point x="277" y="183" type="curve"/>
      <point x="195" y="183" type="line"/>
      <point x="192" y="170"/>
      <point x="191" y="160"/>
      <point x="191" y="149" type="curve" smooth="yes"/>
      <point x="191" y="61"/>
      <point x="267" y="-9"/>
    </contour>
    <contour>
      <point x="227" y="324" type="curve" smooth="yes"/>
      <point x="160" y="324"/>
      <point x="134" y="386"/>
      <point x="134" y="483" type="curve" smooth="yes"/>
      <point x="134" y="590"/>
      <point x="159" y="650"/>
      <point x="227" y="650" type="curve" smooth="yes"/>
      <point x="294" y="650"/>
      <point x="319" y="588"/>
      <point x="319" y="483" type="curve" smooth="yes"/>
      <point x="319" y="386"/>
      <point x="294" y="324"/>
    </contour>
  </outline>
</glyph>
<glyph name="Khar-georgian" format="2">
  <advance width="479"/>
  <unicode hex="1CA5"/>
  <outline>
    <contour>
      <point x="233" y="-10" type="curve" smooth="yes"/>
      <point x="346" y="-10"/>
      <point x="413" y="72"/>
      <point x="413" y="205" type="curve" smooth="yes"/>
      <point x="413" y="714" type="line"/>
      <point x="329" y="714" type="line"/>
      <point x="329" y="621" type="line" smooth="yes"/>
      <point x="329" y="601"/>
      <point x="330" y="578"/>
      <point x="332" y="547" type="curve"/>
      <point x="328" y="547" type="line"/>
      <point x="300" y="596"/>
      <point x="261" y="617"/>
      <point x="211" y="617" type="curve" smooth="yes"/>
      <point x="131" y="617"/>
      <point x="60" y="558"/>
      <point x="60" y="450" type="curve" smooth="yes"/>
      <point x="60" y="429"/>
      <point x="62" y="408"/>
      <point x="67" y="388" type="curve"/>
      <point x="150" y="388" type="line"/>
      <point x="147" y="410"/>
      <point x="146" y="428"/>
      <point x="146" y="444" type="curve" smooth="yes"/>
      <point x="146" y="505"/>
      <point x="179" y="543"/>
      <point x="226" y="543" type="curve" smooth="yes"/>
      <point x="293" y="543"/>
      <point x="329" y="485"/>
      <point x="329" y="380" type="curve" smooth="yes"/>
      <point x="329" y="205" type="line" smooth="yes"/>
      <point x="329" y="115"/>
      <point x="296" y="64"/>
      <point x="232" y="64" type="curve" smooth="yes"/>
      <point x="156" y="64"/>
      <point x="126" y="124"/>
      <point x="126" y="199" type="curve" smooth="yes"/>
      <point x="126" y="223"/>
      <point x="128" y="248"/>
      <point x="134" y="273" type="curve"/>
      <point x="54" y="273" type="line"/>
      <point x="45" y="242"/>
      <point x="41" y="213"/>
      <point x="41" y="185" type="curve" smooth="yes"/>
      <point x="41" y="73"/>
      <point x="111" y="-10"/>
    </contour>
  </outline>
</glyph>
<glyph name="Ghan-georgian" format="2">
  <advance width="625"/>
  <unicode hex="1CA6"/>
  <outline>
    <contour>
      <point x="387" y="0" type="curve"/>
      <point x="471" y="0" type="line"/>
      <point x="462" y="88"/>
      <point x="406" y="142"/>
      <point x="326" y="176" type="curve" smooth="yes"/>
      <point x="223" y="220"/>
      <point x="132" y="283"/>
      <point x="132" y="467" type="curve" smooth="yes"/>
      <point x="132" y="594"/>
      <point x="153" y="650"/>
      <point x="210" y="650" type="curve" smooth="yes"/>
      <point x="258" y="650"/>
      <point x="270" y="598"/>
      <point x="270" y="512" type="curve" smooth="yes"/>
      <point x="270" y="382" type="line"/>
      <point x="354" y="382" type="line"/>
      <point x="354" y="512" type="line" smooth="yes"/>
      <point x="354" y="594"/>
      <point x="364" y="650"/>
      <point x="415" y="650" type="curve" smooth="yes"/>
      <point x="471" y="650"/>
      <point x="492" y="592"/>
      <point x="492" y="472" type="curve" smooth="yes"/>
      <point x="492" y="406"/>
      <point x="483" y="343"/>
      <point x="454" y="280" type="curve"/>
      <point x="530" y="259" type="line"/>
      <point x="565" y="331"/>
      <point x="579" y="400"/>
      <point x="579" y="473" type="curve" smooth="yes"/>
      <point x="579" y="632"/>
      <point x="524" y="724"/>
      <point x="424" y="724" type="curve" smooth="yes"/>
      <point x="366" y="724"/>
      <point x="328" y="691"/>
      <point x="313" y="636" type="curve"/>
      <point x="311" y="636" type="line"/>
      <point x="296" y="691"/>
      <point x="258" y="724"/>
      <point x="198" y="724" type="curve" smooth="yes"/>
      <point x="98" y="724"/>
      <point x="46" y="631"/>
      <point x="46" y="468" type="curve" smooth="yes"/>
      <point x="46" y="328"/>
      <point x="108" y="220"/>
      <point x="204" y="173" type="curve"/>
      <point x="204" y="170" type="line"/>
      <point x="166" y="168"/>
      <point x="137" y="158"/>
      <point x="113" y="146" type="curve"/>
      <point x="139" y="89" type="line"/>
      <point x="173" y="105"/>
      <point x="215" y="113"/>
      <point x="245" y="113" type="curve" smooth="yes"/>
      <point x="318" y="113"/>
      <point x="375" y="74"/>
    </contour>
  </outline>
</glyph>
<glyph name="Qar-georgian" format="2">
  <advance width="485"/>
  <unicode hex="1CA7"/>
  <outline>
    <contour>
      <point x="233" y="-10" type="curve" smooth="yes"/>
      <point x="351" y="-10"/>
      <point x="419" y="72"/>
      <point x="419" y="205" type="curve" smooth="yes"/>
      <point x="419" y="714" type="line"/>
      <point x="335" y="714" type="line"/>
      <point x="335" y="586" type="line" smooth="yes"/>
      <point x="335" y="457"/>
      <point x="287" y="410"/>
      <point x="227" y="410" type="curve" smooth="yes"/>
      <point x="161" y="410"/>
      <point x="135" y="465"/>
      <point x="135" y="549" type="curve" smooth="yes"/>
      <point x="135" y="606"/>
      <point x="145" y="655"/>
      <point x="164" y="714" type="curve"/>
      <point x="84" y="714" type="line"/>
      <point x="62" y="662"/>
      <point x="50" y="608"/>
      <point x="50" y="541" type="curve" smooth="yes"/>
      <point x="50" y="417"/>
      <point x="105" y="339"/>
      <point x="203" y="339" type="curve" smooth="yes"/>
      <point x="264" y="339"/>
      <point x="310" y="361"/>
      <point x="334" y="414" type="curve"/>
      <point x="338" y="414" type="line"/>
      <point x="335" y="363"/>
      <point x="334" y="336"/>
      <point x="334" y="300" type="curve" smooth="yes"/>
      <point x="334" y="205" type="line" smooth="yes"/>
      <point x="334" y="115"/>
      <point x="301" y="64"/>
      <point x="232" y="64" type="curve" smooth="yes"/>
      <point x="161" y="64"/>
      <point x="131" y="124"/>
      <point x="131" y="199" type="curve" smooth="yes"/>
      <point x="131" y="223"/>
      <point x="133" y="248"/>
      <point x="139" y="273" type="curve"/>
      <point x="59" y="273" type="line"/>
      <point x="50" y="242"/>
      <point x="46" y="213"/>
      <point x="46" y="185" type="curve" smooth="yes"/>
      <point x="46" y="73"/>
      <point x="116" y="-10"/>
    </contour>
  </outline>
</glyph>
